<?xml version="1.0" encoding="iso-8859-1"?>
<svg version="1.1" xmlns="http://www.w3.org/2000/svg" xmlns:xlink="http://www.w3.org/1999/xlink" x="0px" y="0px" viewBox="0 0 117.606 283.847" style="enable-background:new 0 0 117.606 283.847;" xml:space="preserve">
    <g id="Layer_2">
        <path id="one" style="fill:#8CAF3E;" d="M115.869,190.428c-0.259,2.894,0.241,55.103-0.773,60.473 c0.045,0.374,0.07,0.754,0.069,1.138c-0.015,4.011-0.824,7.928-1.998,11.742c-0.217,0.705-0.217,0.706-0.001,0.004 c-0.06,0.389-0.644,3.506-0.966,4.66c-0.35,1.255-0.735,2.498-1.131,3.739c-0.73,2.288-7.734,6.325-9.263,7.209 c-4.401,2.544-10.019,1.957-14.879,2.033c-0.383,0.006-27.047,1.458-32.274,1.678c-10.886,0.458-35.026-2.176-36.486-1.952 c-2.736,0.42-10.341-7.262-11.396-8.37c-2.158-2.265-3.692-4.854-3.835-8.06c-0.069-1.538,0.078-8.131-0.054-10.202 c-0.203-3.189-0.277-64.746-0.096-70.814c0.094-3.159,0.153-6.32,0.123-9.48c-0.013,0.618-0.187-1.328-0.18-1.244 c-0.059-0.694-0.559-13.354-0.603-16.855c-0.034-2.688,0.997-21.382,0.662-24.112c-0.596-4.853,0.021-12.77,2.032-14.47 c-0.359-0.273-0.555-0.533-0.555-0.774c0-2.742,24.503-4.965,54.73-4.965c30.226,0,54.73,2.223,54.73,4.965 c0,0.881-2.596,2.001-7.106,3.116c3.093-0.603,5.172-1.253,5.93-1.915c1.705-1.491,1.808,19.31,1.799,19.381 C115.08,138.56,116.162,187.155,115.869,190.428z"/>
        <path id="fixed" style="opacity:0.3;fill:#FFFFFF;" d="M111.539,154.779c-0.005-0.029-0.01-0.059-0.015-0.088 C111.536,154.761,111.54,154.785,111.539,154.779z M109.417,130.344c-0.071-2.428-2.822-4.093-5.022-3.784 c-2.6,0.365-2.988,3.957-2.917,6.379c0.059,2.033,1.132,49.505,1.102,51.787c-0.033,2.421,1.228,4.646,3.836,4.984 c2.191,0.284,4.02-1.927,4.053-4.354C110.5,183.076,109.485,132.692,109.417,130.344z M109.447,198.75 c-0.071-1.546-1.573-3.074-3.772-2.877c-2.6,0.233-3.198,2.573-3.127,4.115c0.029,0.636-0.291,15.741-0.216,17.411 c0.331,7.366,0.312,2.784-0.017,9.371c-0.158,3.168,5.514,3.111,6.257,0.988C110.877,221.172,109.525,200.45,109.447,198.75z M58.433,124.579c30.226,0,55.292-5.069,55.292-7.811c0-2.742-24.503-4.965-54.73-4.965c-30.226,0-54.73,2.223-54.73,4.965 C4.266,119.511,28.207,124.579,58.433,124.579z"/>
        <path id="two" style="fill:#9FB1B2;" d="M112.483,93.971c-0.713-0.415-1.422-0.816-2.226-1.017 c-1.111-0.277-1.68-0.904-1.592-2.126c0.061-0.839,0.061-1.722-0.378-2.491c-0.546-0.956-0.469-1.889-0.116-2.889 c0.567-1.609,0.937-3.246,0.76-4.993c-0.245-2.417-1.51-4.795-3.663-5.479c0.001-0.003,0.007-0.005,0.007-0.008 c0,0-2.448-3.096-46.518-1.872c-17.979,0.499-33.136,1.085-40.882,1.643c-0.682,0.008-1.406,0.036-2.128,0.113 c-1.599,0.171-3.345,0.177-4.662,1.266c-2.014,1.666-3.282,6.322-2.005,8.648c1.323,2.411,1.667,4.64,0.672,7.175 c-0.241,0.615-0.34,1.074-1.063,1.369c-3.442,1.403-4.07,4.41-1.539,7.027c0.139,0.144,25.086,1.3,34.292,1.198 c7.178-0.079,67.538-1.385,69.164-1.491c0.199-0.136,0.417-0.228,0.656-0.246c1.488-0.113,2.355-0.782,2.654-2.246 C114.227,96.029,113.911,94.802,112.483,93.971z"/>
        <path id="three" style="fill:#E4E4E4;" d="M117.405,146.084c-0.394-8.209-0.916-16.412-1.46-24.613 c-0.21-3.165-0.364-6.347-1.444-9.401c-1.002-2.833-2.855-5.123-4.526-7.533c-0.897-1.294-0.506-3.64,0.573-4.452 c-1.572,0.108-3.704-0.158-5.274,0c0.358,0.096-97.507,0.521-98.125,0.252c0.487,0.639,1.291,1.869,1.698,2.566 c0.582,0.997,0.357,1.754-0.412,2.511c-4.694,4.621-6.776,10.449-7.588,16.807c-0.295,2.31-0.232,4.663-0.407,6.99 c-0.493,6.566-0.523,13.14-0.328,19.715c0.141,4.755,0.488,9.506,0.567,14.261c0.096,5.783-0.074,11.571,0.019,17.354 c0.103,6.39,0.899,12.755,0.709,19.163c-0.141,4.76,0.144,9.526,0.125,14.284c-0.024,6.067,0.414,12.125,0.179,18.193 c-0.248,6.4,0.052,12.791,0.423,19.18c0.211,3.632-0.278,7.268,0.022,10.911c0.47,5.711,2.047,10.903,6.288,15.049 c3.389,3.313,7.587,4.937,12.103,5.53c4.069,0.534,8.217,0.529,12.333,0.624c3.594,0.082,7.219-0.12,10.782,0.111 c4.392,0.284,8.773,0.167,13.155,0.253c3.958,0.077,7.925-0.436,11.886-0.414c4.455,0.025,8.897-0.059,13.334-0.418 c1.933-0.156,3.859-0.498,5.792-0.53c4.764-0.079,9.417-0.697,14.104-1.667c9.164-1.896,12.691-10.535,13.386-12.834 c1.751-5.792,1.994-11.755,2.006-17.73c0.015-7.304-0.038-14.61-0.198-21.912c-0.141-6.462-0.151-12.925-0.255-19.386 c-0.141-8.762,0.107-17.529,0.182-26.295c0.035-4.093-0.085-8.194,0.115-12.279C117.567,162.278,117.794,154.181,117.405,146.084z M1.033,140.202c-0.01-0.024-0.029-0.049-0.027-0.072c0.004-0.051,0.018-0.101,0.029-0.151c0.022,0.039,0.044,0.077,0.066,0.116 C1.079,140.133,1.056,140.168,1.033,140.202z M1.109,138.222c-0.065-0.043-0.168-0.074-0.184-0.13 c-0.018-0.066,0.039-0.153,0.078-0.275c0.088,0.082,0.181,0.128,0.193,0.19C1.208,138.071,1.141,138.15,1.109,138.222z M113.896,224.809c0.177,8.959-0.813,36.355-1.436,41.086c-0.51,3.87-3.028,6.223-6.03,8.077 c-3.614,2.232-7.803,2.796-11.939,3.157c-6.827,0.596-54.75,5.629-78.555,0.745c-3.14-0.644-5.27-2.678-6.865-5.386 c-3.527-5.99-4.585-12.511-4.246-19.338c0.422-8.52-0.609-41.912-0.75-50.097c-0.071-4.152-0.794-61.306-0.6-67.574 c0.158-5.1,0.169-10.254,1.44-15.263c1.216-4.796,2.987-9.339,6.04-13.314c0.832-1.084,1.834-1.637,3.159-1.481 c3.256,0.383,6.522-0.019,9.79,0.228c3.925,0.296,7.874,0.299,11.814,0.363c3.762,0.061,7.525,0.009,11.288,0.057 c6.127,0.078,12.254,0.217,18.381,0.288c2.424,0.028,34.341-0.393,38.41-0.758c2.231-0.2,3.24,2.165,4.835,3.995 c3.631,4.165,4.088,14.568,4.094,14.78c0.007,0.212,0.04,0.422,0.041,0.43c0.014,7.463,1.278,14.647,1.259,21.913 C114.014,151.263,113.712,215.495,113.896,224.809z"/>
        <path id="fixed" style="fill:#5C7635;" d="M107.64,272.965c-0.764,0.017-76.799,2.352-80.728,2.385 c-3.21,0.027-13.062-1.125-14.581-3.058c-4.125-5.251,13.942-7.201,29.167-7.942c-1.139-0.804-0.945-2.997,0.792-2.997 c1.669,0,2.129,2.041,1.208,2.906c8.356-0.357,15.475-0.365,16.962-0.389c12.895-0.21,22.526,0.177,29.67,0.893 c-0.43-0.97-0.019-2.312,1.341-2.312c1.505,0,2.026,1.661,1.439,2.622C113.122,267.569,110.184,272.907,107.64,272.965z M12.822,188.895c2.126,0,1.943-3.289-0.172-3.289C10.523,185.606,10.706,188.895,12.822,188.895z M16.821,215.685 c-2.126,0-1.943,3.289,0.172,3.289C19.12,218.974,18.937,215.685,16.821,215.685z M24.239,198.775c2.126,0,1.943-3.289-0.172-3.289 C21.94,195.486,22.123,198.775,24.239,198.775z M30.606,226.878c2.126,0,1.943-3.289-0.172-3.289 C28.307,223.589,28.49,226.878,30.606,226.878z M10.673,233.03c-2.126,0-1.943,3.289,0.172,3.289 C12.972,236.319,12.789,233.03,10.673,233.03z M16.774,167.598c2.126,0,1.943-3.289-0.172-3.289 C14.475,164.309,14.658,167.598,16.774,167.598z M8.87,144.325c2.126,0,1.943-3.289-0.172-3.289 C6.571,141.036,6.754,144.325,8.87,144.325z M23.141,129.176c2.126,0,1.943-3.289-0.172-3.289 C20.842,125.887,21.026,129.176,23.141,129.176z M30.606,146.081c2.126,0,1.943-3.289-0.172-3.289 C28.307,142.792,28.49,146.081,30.606,146.081z M43.121,129.834c2.126,0,1.943-3.289-0.172-3.289 C40.822,126.545,41.005,129.834,43.121,129.834z M96.473,128.078c2.126,0,1.943-3.289-0.172-3.289 C94.174,124.789,94.357,128.078,96.473,128.078z M86.593,148.277c2.126,0,1.943-3.289-0.172-3.289 C84.294,144.988,84.477,148.277,86.593,148.277z M77.371,129.395c2.126,0,1.943-3.289-0.172-3.289 C75.073,126.106,75.256,129.395,77.371,129.395z M98.449,157.937c2.126,0,1.943-3.289-0.172-3.289 C96.15,154.649,96.333,157.937,98.449,157.937z M95.155,188.456c2.126,0,1.943-3.289-0.172-3.289 C92.857,185.167,93.04,188.456,95.155,188.456z M98.057,206.903c-2.126,0-1.943,3.289,0.172,3.289 C100.355,210.192,100.172,206.903,98.057,206.903z M85.934,229.952c2.126,0,1.943-3.289-0.172-3.289 C83.635,226.663,83.819,229.952,85.934,229.952z M110.352,231.932c-2.126,0-1.943,3.289,0.172,3.289 C112.651,235.221,112.467,231.932,110.352,231.932z M14.186,259.646c-2.126,0-1.943,3.289,0.172,3.289 C16.485,262.935,16.302,259.646,14.186,259.646z M108.815,261.133c-2.126,0-1.943,3.289,0.172,3.289 C111.114,264.422,110.931,261.133,108.815,261.133z M19.383,228.8c1.488,0,1.36-2.302-0.121-2.302 C17.774,226.498,17.902,228.8,19.383,228.8z M15.211,133.952c1.488,0,1.36-2.302-0.121-2.302 C13.602,131.649,13.73,133.952,15.211,133.952z M89.201,128.243c1.488,0,1.36-2.302-0.121-2.302 C87.592,125.941,87.721,128.243,89.201,128.243z M95.13,221.994c1.488,0,1.36-2.302-0.121-2.302 C93.521,219.691,93.649,221.994,95.13,221.994z M8.405,171.715c1.488,0,1.36-2.302-0.121-2.302 C6.796,169.413,6.924,171.715,8.405,171.715z M8.284,259.651c-1.488,0-1.36,2.302,0.121,2.302 C9.893,261.953,9.765,259.651,8.284,259.651z M99.521,263.051c1.488,0,1.36-2.302-0.121-2.302 C97.912,260.748,98.04,263.051,99.521,263.051z M18.285,205.307c1.488,0,1.36-2.302-0.121-2.302 C16.676,203.005,16.804,205.307,18.285,205.307z M100.838,194.11c1.488,0,1.36-2.302-0.121-2.302 C99.229,191.808,99.357,194.11,100.838,194.11z M25.75,149.979c1.488,0,1.36-2.302-0.121-2.302 C24.141,147.677,24.269,149.979,25.75,149.979z"/>
        <path id="five" style="fill:#FFFFFF;" d="M20.563,155.466c-0.011-0.207,0.12-0.301,0.285-0.375 c1.297-0.58,2.916-0.923,4.1,0.641c0.208,0.275,0.42,0.123,0.604-0.033c0.575-0.487,1.221-0.813,1.98-0.855 c0.28-0.015,0.578,0.018,0.843,0.107c0.249,0.083,0.571,0.213,0.573,0.521c0.002,0.306-0.304,0.409-0.561,0.526 c-1.039,0.474-1.136,1.457-1.236,2.407c-0.14,1.328-0.138,2.662-0.038,3.993c0.141,1.889,1.64,2.967,3.703,2.68 c2.43-0.339,2.961-1.466,3.752-3.984c0.381-1.214,0.443-2.501,0.289-3.769c-0.088-0.72-0.449-1.31-1.243-1.485 c-0.143-0.031-0.296-0.046-0.32-0.23c-0.024-0.186,0.103-0.288,0.24-0.37c1.003-0.599,2.426-0.434,3.263,0.404 c0.329,0.329,0.603,0.369,0.977,0.063c0.996-0.815,2.094-1.018,3.283-0.441c0.159,0.077,0.356,0.175,0.336,0.39 c-0.021,0.222-0.253,0.169-0.395,0.24c-0.802,0.401-1.264,1.065-1.424,1.94c-0.481,2.639-0.597,5.311-0.718,7.982 c-0.139,3.045-0.251,6.082-1.813,8.845c-1.642,2.903-4.043,4.762-7.608,5.603c-2.375,0.319-4.984,0.221-7.114-1.744 c-1.347-1.243-2.098-3.169-1.191-4.876c0.746-1.406,2.184-1.935,3.869-1.249c0.991,0.403,1.517,1.295,1.44,2.35 c0.043,0.13,0.075,0.255,0.089,0.359c0.073,0.515-0.014,0.937-0.161,1.34c0.083,0.054,0.186,0.102,0.314,0.145 c1.569,0.528,4.108-0.442,5.193-1.96c1.336-1.869,1.854-4.006,2.131-6.231c0.012-0.097-0.021-0.2-0.032-0.3 c-0.094,0.03-0.196,0.045-0.28,0.092c-2.971,1.697-5.993,1.73-9.016,0.192c-1.045-0.532-1.683-1.474-1.958-2.62 c-0.497-2.067-0.341-4.182-0.421-6.28c-0.041-1.083-0.053-2.166-0.635-3.144c-0.18-0.303-0.442-0.429-0.751-0.509 C20.717,155.78,20.576,155.687,20.563,155.466z M55.266,156.698c1.112,0.535,1.357,1.554,1.486,2.629 c0.15,1.248,0.354,12.611,0.72,14.439c0.545,8.238,10.471,7.041,11.416,1.729c0.15-0.157,0.637,3.184,3.113,3.891 c3.36,0.601,4.328-0.938,5.094-2.264c1.099-1.902,0.947-4.973-0.421-6.606c-0.528-0.631-1.132-0.922-1.928-0.546 c-0.798,0.377-0.767,1.025-0.622,1.988c0.495,2.122,0.024,2.688-0.743,2.476c-0.531-0.248-2.016,0.035-0.743-16.2 c0.254-0.985,0.872-1.449,1.96-1.643c0.082-0.014,0.184-0.114,0.211-0.195c0.048-0.145-0.062-0.248-0.183-0.309 c-1.087-0.548-2.205-0.81-3.318-0.124c-0.429,0.265-0.72,0.251-1.116-0.044c-0.991-0.738-2.375-0.652-3.123,0.142 c-0.129,0.137-0.254,0.276-0.196,0.481c0.06,0.214,0.266,0.188,0.422,0.22c0.984,0.199,1.359,0.616,1.259,1.596 c-0.089,3.977,0.4,8.97-0.655,12.679c-0.326,1.146-1.533,3.278-3.042,3.466c-1.231,0.32-2.772,0.083-3.254-1.203 c-0.424-1.132-0.492-3.962-0.512-4.812c-0.03-1.226-0.189-7.756,0.126-9.788c0.131-0.844,0.41-1.633,1.259-2.042 c0.173-0.084,0.34-0.119,0.322-0.366c-0.02-0.26-0.186-0.35-0.402-0.412c-0.865-0.249-1.682-0.142-2.444,0.334 c-0.604,0.378-1.14,0.504-1.769-0.046c-0.679-0.593-2.216-0.528-2.936,0.006C55.001,156.358,55.003,156.572,55.266,156.698z M61.36,203.923c-0.874,0.954-1.847,1.796-3.065,2.251c-2.162,0.808-4.87,0.751-6.282-0.486c-2.109-2.059-1.979-3.672-1.825-5.78 c0.569-7.781,8.459-7.031,8.851-6.902c0.565-0.019,1.237,0.151,1.513-0.578c-0.015-0.123,1.055-2.662-0.552-5.676 c-0.552-0.904-1.858-1.231-2.562-1.055c-0.368,0.006-0.705,0.448-0.909,0.785c-0.2,0.33-0.148,0.569,0.08,0.887 c0.6,0.838-0.148,2.315-1.435,2.784c-1.01,0.369-2.073,0.332-2.872-0.414c-0.901-0.841-0.857-2.013-0.506-3.088 c0.707-2.161,2.156-3.491,4.419-4.121c2.305-0.642,4.445-0.416,6.417,0.777c2.19,1.325,2.931,3.586,2.977,5.979 c0.066,3.456-0.181,6.918,0.156,10.372c0.028,0.287,0.085,0.582,0.19,0.848c0.131,0.33,0.251,0.786,0.599,0.851 c0.336,0.063,0.28-0.434,0.438-0.66c0.631-0.908,1.365-1.2,2.366-0.873c0.869,0.283,1.697,1.558,1.629,2.508 c-0.176,2.449-2.89,4.321-5.556,3.902c-1.556-0.245-2.711-0.994-3.486-2.351C61.724,203.497,61.52,203.748,61.36,203.923z M68.503,203.817c1.273,0,1.273-1.956,0-1.956C67.23,201.861,67.23,203.817,68.503,203.817z M54.122,186.821 c-1.273,0-1.273,1.956,0,1.956C55.395,188.777,55.395,186.821,54.122,186.821z M55.384,184.456c-0.636,0-0.636,0.978,0,0.978 C56.021,185.434,56.021,184.456,55.384,184.456z M58.348,183.386c-0.636,0-0.636,0.978,0,0.978S58.985,183.386,58.348,183.386z M65.264,204.124c0.636,0,0.636-0.978,0-0.978S64.628,204.124,65.264,204.124z M63.343,193.518c-1.273,0-1.273,1.956,0,1.956 C64.616,195.474,64.616,193.518,63.343,193.518z M63.453,197.218c-0.636,0-0.636,0.978,0,0.978 C64.09,198.196,64.09,197.218,63.453,197.218z M63.206,190.137c-0.636,0-0.636,0.978,0,0.978S63.842,190.137,63.206,190.137z M62.794,188.069c0.636,0,0.636-0.978,0-0.978S62.158,188.069,62.794,188.069z M63.124,202.143c1.273,0,1.273-1.956,0-1.956 C61.851,200.187,61.851,202.143,63.124,202.143z M61.038,185.704c1.273,0,1.273-1.956,0-1.956 C59.765,183.747,59.765,185.704,61.038,185.704z M59.913,194.985c0.636,0,0.636-0.978,0-0.978S59.276,194.985,59.913,194.985z M56.866,195.149c0.636,0,0.636-0.978,0-0.978C56.23,194.171,56.23,195.149,56.866,195.149z M54.232,196.137 c0.636,0,0.636-0.978,0-0.978S53.595,196.137,54.232,196.137z M52.503,198.69c0.636,0,0.636-0.978,0-0.978 S51.866,198.69,52.503,198.69z M52.036,201.092c-1.273,0-1.273,1.956,0,1.956S53.309,201.092,52.036,201.092z M54.149,204.298 c-0.636,0-0.636,0.978,0,0.978S54.786,204.298,54.149,204.298z M57.607,203.969c-0.636,0-0.636,0.978,0,0.978 C58.244,204.947,58.244,203.969,57.607,203.969z M60.16,202.487c-0.636,0-0.636,0.978,0,0.978S60.796,202.487,60.16,202.487z M61.707,198.455c0.07-0.277-0.031-1.381-0.552-1.758c-0.816-0.697-1.545-0.779-3.434-0.414c-1.971,0.653-2.965,1.49-3.334,2.373 c-0.706,1.69-0.189,4.378,1.676,4.351C58.995,203.227,61.82,200.15,61.707,198.455z M91.051,178.667 c-1.085-0.755-1.745-2.358-2.29-3.735c-0.19-1.315-2.053-3.823-2.299-3.94c-1.036-0.495-1.376-0.31-1.454,0.819 c-0.108,1.568-0.081,3.129,0.347,4.66c0.106,0.38,0.69,1.124,0.845,1.224c1.36,0.879,0.385,1.242,0.228,1.256 c-1.164,0.103-7.452,0.472-7.405-0.283c-0.044-0.327,0.718-1.168,0.925-1.257c0.856-0.368,1.317-1.016,1.313-1.949 c-0.004-1.33-0.293-14.826-0.789-17.079c-0.172-0.783-0.299-1.58-1.341-1.662c-0.071-0.006-0.16-0.157-0.186-0.255 c-0.037-0.138,0.054-0.229,0.175-0.313c1.408-0.984,2.848-1.023,4.312-0.144c0.372,0.224,0.656,0.167,0.983-0.112 c1.925-1.64,4.9-1.888,6.966-0.419c1.451,1.032,1.813,2.666,1.841,4.383c0.044,2.66-0.979,4.893-2.652,6.889 c-0.479,0.571-1.454,1.212-0.086,2.297c1.179,1.368,1.411,2.193,1.698,3.537c0.098,0.46,0.389,2.043,1.432,2.07 c0.351,0.048,0.691-0.132,0.911-0.455c0.223-0.328-0.166-0.475-0.308-0.677c-0.633-0.895-0.526-2.277,0.249-2.937 c0.966-0.823,2.389-0.767,3.265,0.108c1.285,1.283,1.406,4.31,0.63,5.758C97.064,178.871,93.22,179.752,91.051,178.667z M88.678,160.124c-0.057-0.466-0.094-0.936-0.176-1.398c-0.217-1.233-1.331-1.843-2.254-1.188c-0.86,0.61-1.38,1.551-1.405,2.561 c-0.039,1.56,0.133,3.126,0.252,4.687c0.07,0.913,0.893,1.376,1.729,0.999c0.751-0.338,1.142-1.002,1.446-1.721 C88.809,162.794,88.738,161.46,88.678,160.124z M54.071,161.228c0.173,1.475,0.464,2.945,0.391,4.444 c-0.036,0.729,0.402,1.179,0.936,1.576c0.139,0.104,0.347,0.19,0.306,0.415c-0.041,0.23-0.268,0.2-0.432,0.266 c-0.959,0.389-1.082,1.281-1.2,2.128c-0.289,2.081-0.183,4.92-1.006,6.877c-0.94,2.234-3.16,3.679-6.131,3.396 c-0.804-0.131-2.169-0.33-3.254-1.132c-1.874-1.563-2.618-4.153-2.454-6.365c-0.092-1.425,0.028-2.533-0.182-3.639 c-0.153-0.803-0.465-1.456-1.137-1.929c-0.305-0.215-0.352-0.44,0.001-0.668c1.488-0.96,1.671-2.49,1.86-4.067 c0.204-1.703,0.817-3.271,1.787-4.717c1.113-1.659,2.766-2.407,4.653-2.574C51.484,154.948,53.668,157.79,54.071,161.228z M48.726,159.437c-0.923-0.052-2.111,0.854-2.5,1.745c-1.45,3.326-0.943,6.225-0.802,10.847c0.236,2.83,1.072,3.908,2.169,3.962 c1.126,0.055,2.169-0.094,2.877-3.16c0.982-2.586,0.238-10.407,0.029-11.063C50.251,160.984,49.655,159.489,48.726,159.437z M32.017,197.686c0.18-3.053,0.156-6.116,0.154-9.174c-0.001-1.374-0.093-2.753-0.576-4.088c-0.043-0.119-0.12-0.23-0.174-0.346 c-0.157-0.341-0.823-0.606-0.432-1.012c0.388-0.403,0.962-0.062,1.435,0.011c0.767,0.118,1.431,0.435,1.997,0.881 c0.204,0.161,0.441,0.327,0.715,0.141c2.32-1.568,4.882-1.114,7.377-0.489c2.809,0.704,4.049,2.606,4.923,4.72 c0.807,1.953,1.252,3.952,1.228,6.651c0.047,2.671-0.675,5.837-2.677,8.755c-1.564,2.281-5.462,3.811-8.658,3.343 c-1.217-0.178-2.474-0.398-3.633-0.838c-0.229-0.087-0.461,0.27-0.687,0.371c-1.046,0.471-2.179,0.7-3.372,0.73 c-0.279,0.007-0.501-0.08-0.571-0.329c-0.058-0.206-0.042-0.399,0.217-0.505c1.443-0.585,1.755-1.745,2.142-2.849 C32.111,201.705,31.9,199.677,32.017,197.686z M38.753,205.122c-0.636,0-0.636,0.978,0,0.978S39.389,205.122,38.753,205.122z M41.717,204.381c-0.636,0-0.636,0.978,0,0.978S42.353,204.381,41.717,204.381z M43.583,202.19c-1.273,0-1.273,1.956,0,1.956 C44.856,204.146,44.856,202.19,43.583,202.19z M44.846,200.923c-0.636,0-0.636,0.978,0,0.978 C45.482,201.901,45.482,200.923,44.846,200.923z M45.834,198.617c-0.636,0-0.636,0.978,0,0.978S46.47,198.617,45.834,198.617z M46.245,195.164c-1.273,0-1.273,1.956,0,1.956S47.518,195.164,46.245,195.164z M46.163,192.936c-0.636,0-0.636,0.978,0,0.978 S46.799,192.936,46.163,192.936z M45.751,190.713c-0.636,0-0.636,0.978,0,0.978S46.388,190.713,45.751,190.713z M45.34,188.49 c-0.636,0-0.636,0.978,0,0.978S45.976,188.49,45.34,188.49z M44.132,187.68c1.273,0,1.273-1.956,0-1.956 C42.86,185.723,42.86,187.68,44.132,187.68z M42.046,185.681c0.636,0,0.636-0.978,0-0.978S41.41,185.681,42.046,185.681z M39.412,185.022c0.636,0,0.636-0.978,0-0.978C38.775,184.044,38.775,185.022,39.412,185.022z M37.303,186.836 c-0.228,1.868-0.61,12.644-0.764,16.158c-0.018,0.407-0.171,0.856,0.388,1.129c0.552,0.269,0.984,0.316,1.541,0.259 c1.55-0.158,2.16,0.151,3.767-2.712c1.006-2.174,1.558-4.058,1.658-6.329c0.235-1.56-0.19-4.113-0.552-5.625 c-0.397-1.656-1.959-3.566-4.372-3.624C37.765,186.049,37.419,185.884,37.303,186.836z M36.695,185.434 c0.636,0,0.636-0.978,0-0.978S36.058,185.434,36.695,185.434z M36.036,205.771c0.636,0,0.636-0.978,0-0.978 S35.4,205.771,36.036,205.771z M34.472,187.405c1.273,0,1.273-1.956,0-1.956C33.199,185.449,33.199,187.405,34.472,187.405z M34.389,188.902c-0.636,0-0.636,0.978,0,0.978C35.026,189.88,35.026,188.902,34.389,188.902z M34.307,191.454 c-0.636,0-0.636,0.978,0,0.978C34.943,192.432,34.943,191.454,34.307,191.454z M34.307,196.38c1.273,0,1.273-1.956,0-1.956 C33.034,194.423,33.034,196.38,34.307,196.38z M33.978,198.123c-0.636,0-0.636,0.978,0,0.978S34.614,198.123,33.978,198.123z M33.895,200.511c-0.636,0-0.636,0.978,0,0.978S34.532,200.511,33.895,200.511z M33.731,204.86c1.273,0,1.273-1.956,0-1.956 S32.458,204.86,33.731,204.86z M39.917,234.746c-0.514-0.014-1.296,0.053-1.81,0.038c-0.426-0.013-0.496,0.186-0.673,0.602 c-0.496,1.169-2.617,6.671-3.202,8.245c-0.056,0.152-0.167,0.312-0.338,0.253c-0.104-0.036-2.077-5.843-3.169-8.543 c-0.164-0.404-0.243-0.705-0.763-0.669c-0.834,0.056-1.885-0.189-2.639,0.075c-0.077,0.103,0.15,12.41-0.113,16.778 c-0.084,1.828,0.032,3.916-0.042,5.744c-0.032,0.792,0.09,1.174,1.097,1.193c0.591-0.074,1.223,0.005,1.816,0.041 c0.579,0.036,0.758-0.296,0.77-0.775c0.028-1.094,0.093-7.722,0.135-9.941c0.003-0.179-0.146-2.042,0.069-2.107 c0.05-0.015,0.799,2.42,1.093,2.677c0.294,0.257,3.016,0.377,3.393-0.038c0.268-0.295,0.989-3.111,1.282-3.054 c0.311,0.06,0.152,1.488,0.155,1.755c0.038,3.184,0.043,6.368,0.09,9.551c-0.021,0.681-0.164,1.569,0.245,1.815 c0.189,0.113,2.375,0.226,3.243-0.113c0.151-0.829,0.45-19.066,0.351-21.972C40.785,234.935,40.841,234.772,39.917,234.746z M65.155,236.775c1.433,2.094,1.888,4.454,2.023,7.519c-0.178,3.31,0.482,14.08-6.224,14.14c-1.265,0.234-2.997-0.663-4.253-3.076 c-1.102-1.993-1.18-11.214-0.704-13.624c0.498-2.52,1.252-4.563,3.318-6.334C61.155,233.822,64.191,235.366,65.155,236.775z M64.845,242.539c0.007-0.438-0.477-1.136-1.087-1.024c-0.924,0.169-1.878,2.887-2.08,2.859c-0.188-0.026-0.557-2.026-0.704-2.489 c-0.102-0.321-0.523-0.509-0.902-0.51c-0.367-0.001-0.628,0.32-0.744,0.655c-1.446,2.897,0.209,8.249,1.35,10.891 c0.088,0.204,0.389,0.94,0.647,0.954C62.633,253.548,65.549,245.731,64.845,242.539z M89.186,236.053 c-0.089-1.424-0.128-1.375-0.93-1.332c-0.485,0.026-1.282,0.05-1.81,0.05c-1.031-0.202-0.841,0.583-0.867,1.408 c-0.062,1.924,0.209,4.087,0.088,6.008c-0.048,0.762-1.026,0.562-1.574,0.588c-0.384,0.018-0.87,0.032-0.878-0.556 c-0.027-2.201,0.139-4.507,0.064-6.744c0.052-0.247-0.014-0.647-0.352-0.729c-0.779,0.05-3.041-0.251-3.444,0.151 c-0.251,1.533,0.403-0.447-0.302,23.075c-0.015,0.5,0.968,0.509,1.552,0.547c0.679-0.019,0.754-0.075,1.364-0.094 c0.352,0,0.553-0.782,0.553-1.408c0-3.517,0.137-6.454,0.386-9.955c0.06-0.849,0.694-0.635,1.171-0.669 c0.469-0.033,1.702-0.32,1.71,0.381c0.023,1.895-0.079,11.628,0.251,11.625c0.597,0.082,0.789,0.118,1.483,0.119 c0.505,0.001,1.484,0.029,1.508-0.446C89.303,255.331,88.936,240.545,89.186,236.053z M20.395,243.606 c-1.489-2.575-0.903-4.932,1.973-5.278c1.018-0.038,1.659,0.188,1.603-0.505c0.006-0.425-0.057-2.889-0.321-3.002 c-1.448-0.453-3.259-0.145-4.633,0.53c-1.783,0.877-2.558,2.422-3.063,4.203c-0.33,1.166-0.561,2.337-0.169,3.526 c0.706,2.14,2.093,3.81,3.735,5.293c0.937,0.846,1.693,1.779,1.951,3.075c0.267,1.34-0.172,2.583-1.209,3.09 c-0.991,0.484-1.865,0.383-2.872-0.904c-0.192-0.246-0.626-1.071-0.867-0.867c-0.66,0.558-1.677,1.512-2.183,2.221 c-0.241,0.338-0.306,0.531,0.007,1.011c0.5,0.653,1.102,1.17,1.77,1.631c1.493,1.032,4.779,1.012,6.206-0.046 c3.11-2.307,3.661-7.524,1.134-10.466C22.446,245.943,21.199,244.997,20.395,243.606z M104.991,235.237 c-0.046-0.326-0.316-0.399-0.641-0.415c-1.973-0.098-3.991,0.111-5.965,0.025c-0.499-0.022-0.782,0.188-0.914,0.781 c-0.13,0.583-0.144,19.664,0.044,20.9c-0.027,1.67,0.103,1.916,1.33,1.953c0.475,0.014,2.841-0.094,3.714-0.075 c0.349,0.007,2.038,0.219,2.074-0.207c0.113-1.263,0.151-2.828-0.075-3.827c0.009-0.225-0.756-0.212-1.007-0.211 c-0.667,0-1.336-0.03-2.001,0.006c-0.507,0.027-0.739-0.15-0.789-0.664c-0.158-1.642-0.024-3.58,0.008-5.22 c0.034-1.76,0.073-1.461,1.772-1.482c0.32-0.006,0.641-0.031,0.96-0.014c0.604,0.031,0.929-0.245,0.94-0.843 c0.02-1.014,0.02-2.029,0.018-3.043c-0.001-0.343-0.197-0.491-0.539-0.486c-0.626,0.008-2.284,0.08-2.699,0.005 c-0.547,0-0.49-3.242-0.302-3.469c0-0.283,2.914,0.032,3.883-0.057c0.347-0.032,0.274-0.906,0.302-1.207 C105.16,236.5,105.143,236.31,104.991,235.237z M76.6,234.772c-0.347,0.012-6.133,0.039-8.094,0.025 c-1.089-0.008-1.087-0.054-1.156,1.332c-0.025,2.941-0.427,2.916,1.684,2.966c1.659-0.025,1.732-0.167,1.835,0.553 c0.129,0.897-0.352,11.889-0.217,16.696c-0.026,0.689-0.233,1.72,0.418,2.031c0.93,0.151,2.194,0.292,3.117-0.101 c0.679,0.05,0.445-14.976,0.503-18.726c0.009-0.555,0.357-0.471,0.905-0.528c2.021-0.209,2.262,0.453,2.338-2.865 C77.992,234.699,77.902,234.727,76.6,234.772z M43.043,228.617c0.323,0.16,0.878-0.006,1.085-0.247 c0.562-0.656,0.844-1.488,1.023-2.39c0.32-1.612,1.549-7.909,1.96-8.308c0.31,0.492,0.956,8.031,1.556,10.178 c0.168,0.601,0.853,1.04,1.467,0.481c0.378-0.344,3.849-13.129,4.083-14.81c-0.015-0.89,0.371-1.257-0.452-1.43 c-1.086-0.264-1.536,1.228-1.613,1.63c-0.499,2.607-2.213,8.862-2.495,8.844c-0.287-0.018-1.266-6.655-1.592-9.352 c-0.074-0.61-0.294-1.2-1.062-1.17c-0.408-0.097-0.622,0.704-0.724,1.167c-0.635,2.881-2.107,9.818-2.19,9.833 c-0.072,0.012-0.367-1.104-0.393-1.189c-0.412-1.314-1.885-7.705-2.515-9.511c-0.221-0.632-0.79-0.794-1.385-0.465 c-0.234,0.543-0.44,0.348-0.186,1.777C40.112,214.519,42.6,228.398,43.043,228.617z M65.62,133.394 c-0.143-0.666,0.237-0.95,0.735-0.999c1.164-0.115,2.338-0.226,3.504-0.185c1.257,0.045,2.095,0.856,2.484,2.063 c0.463,1.44,0.554,2.9-0.295,4.24c-0.28,0.441-0.708,0.743-1.166,0.984c-0.133,0.07-0.352,0.154-0.18,0.35 c1.262,1.447,1.457,3.309,1.902,5.079c0.192,0.762,0.252,1.563,0.659,2.266c0.173,0.299,0.345,0.447,0.695,0.385 c0.521-0.091,0.95,0.047,1.07,0.668c0.123,0.635-0.181,0.955-0.749,1.107c-1.333,0.356-2.008-0.035-2.495-1.387 c-0.681-1.891-0.984-3.905-1.799-5.749c-0.355-0.802-0.662-1.647-1.618-1.909c-0.444-0.121-0.666-0.026-0.631,0.506 c0.132,1.969,0.424,7.141,0.427,7.757c0.002,0.385-0.046,0.752-0.492,0.899c-1.081,0.357-1.248,0.241-1.285-0.934 C66.374,148.222,65.698,133.759,65.62,133.394z M67.399,134.572c0.017,0.992,0.034,1.983,0.047,2.684 c0.175,1.54,0.729,1.676,1.907,1.348c1.022-0.274,1.624-1.73,1.619-2.588c-0.005-0.859-0.371-1.523-1.224-1.8 c-0.637-0.207-1.287-0.203-1.939-0.152C67.51,134.087,67.394,134.278,67.399,134.572z M95.056,234.784 c-0.719-0.097-1.433-0.038-2.329-0.025c-0.517-0.103-0.872,0.136-0.869,0.751c0.009,1.546-0.083,18.729-0.275,22.134 c0.093,0.693,0.042,0.818,1.065,0.745c1.955,0.016,2.109,0.34,2.256-0.878C94.981,253.787,95.657,234.725,95.056,234.784z M55.359,149.269c0.161-2.153,0.27-4.319,0.534-6.451c0.331-2.672,0.401-5.408,1.316-7.984c0.353-0.993,0.917-2.084,1.974-2.275 c0.97-0.175,1.853,0.588,2.289,1.437c0.471,0.918,0.525,2.003,0.653,3.034c0.435,3.492,0.256,7.033,0.81,10.517 c0.081,0.507,0.194,0.892,0.827,0.576c0.212-0.106,0.466-0.067,0.619,0.161c0.147,0.22,0.235,0.459,0.086,0.727 c-0.344,0.62-0.854,0.93-1.556,0.846c-0.659-0.079-1.192-0.345-1.338-1.091c-0.105-0.532-0.205-1.066-0.307-1.599 c-0.26-2.116-0.332-4.243-0.49-6.363c-0.022-0.289-0.121-0.468-0.406-0.437c-0.802,0.087-1.653,0.062-2.385,0.347 c-0.48,0.187-0.36,0.967-0.391,1.482c-0.133,2.255-0.271,4.508-0.602,6.743c-0.126,0.853-0.807,1.278-1.41,0.899 C55.349,149.692,55.342,149.503,55.359,149.269z M58.856,139.191c0.513-0.077,1.026-0.152,1.538-0.232 c0.183-0.029,0.286-0.153,0.27-0.335c-0.103-1.178-0.133-2.375-0.672-3.463c-0.129-0.26-0.321-0.542-0.642-0.538 c-0.329,0.004-0.469,0.309-0.598,0.574c-0.454,0.934-0.54,1.956-0.703,2.966C57.933,138.882,57.913,139.388,58.856,139.191z M43.63,149.855c1.08-0.176,1.953-0.492,2.708-1.708c0.524-1.09,0.545-1.941,0.629-3.103c0.155-2.128-1.032-3.95-3.061-4.655 c-1.396-0.485-2.237-1.31-2.139-2.893c-0.053-1.066,0.194-1.887,0.663-2.762c0.296-0.552,0.753-0.762,1.322-0.609 c0.478,0.128,0.711,0.536,0.834,1.011c0.18,0.692,0.622,0.992,1.348,0.885c0.572-0.085,0.707-0.475,0.704-0.951 c-0.008-1.323-0.722-2.315-1.889-2.659c-1.303-0.384-2.794,0.12-3.509,1.091c-1.181,1.604-1.049,3.136-0.942,4.958 c0.039,0.658,0.372,1.513,0.861,1.985c0.531,0.513,1.121,0.92,1.781,1.118c0.854,0.255,1.667,0.805,1.971,1.677 c0.574,1.649,0.845,2.922-0.168,4.403c-0.541,0.791-1.758,0.892-3.104,0.464c-0.797-0.253-0.764-0.865-0.675-1.532 c0.063-0.472-0.247-0.904-0.666-1.071c-0.295-0.13-0.674,0.024-0.928,0.306c-0.558,0.619-0.373,2.353,0.251,2.929 C40.773,149.802,42.134,150.098,43.63,149.855z M47.989,134.436c0.485,0.132,1.505,0.038,2.008,0.044 c0.546,0.006,0.467,0.479,0.48,0.982c0.06,2.255,0.122,13.379,0.151,13.631c0.031,0.271,0.094,0.557,0.41,0.616 c0.325,0.062,0.949-0.008,1.119-0.325c0.117-0.218-0.052-12.866,0.087-14.184c0.042-0.401-0.087-0.655,0.24-0.698 c0.562-0.075,1.643-0.113,2.204-0.205c0.31-0.051,0.524-0.228,0.51-0.559c-0.029-0.677-0.207-1.144-1.055-1.113 c-0.41,0.015-6.769-0.415-6.787,0.415C47.334,134.043,47.164,134.21,47.989,134.436z M74.263,134.174 c0.807,0.065,1.339,0.095,2.012,0.085c0.479-0.007,0.721,0.136,0.733,0.677c0.048,2.143,0.288,10.864,0.39,13.082 c0.024,0.532,0.104,1.31,0.727,1.279c0.616-0.031,1.23-0.202,1.222-1.353c0.089-1.059-0.392-9.099-0.509-12.054 c-0.124-1.89-0.142-1.629,1.557-1.847c0.012-0.001,0.752-0.02,0.764-0.022c0.628-0.104,0.917-0.109,0.698-1.091 c-0.157-0.652-0.393-0.742-1.331-0.698c-1.243,0.058-5.548,0.136-6.176,0.153c-0.829,0.022-0.839,0.487-0.841,1.036 C73.477,134.13,73.833,134.139,74.263,134.174z M80.571,228.063c0.078-3.995,0.357-14.433-0.101-15.531 c-0.115-0.277-0.186-0.566-0.545-0.57c-0.349-0.003-0.749,0.048-0.855,0.369c-0.302,0.918-0.131,2.041-0.174,2.996 c-0.035,2.774-0.188,2.262-2.255,2.206c-0.745-0.02-1.424,0.325-1.373-0.542c0.055-0.94,0.005-2.598-0.003-3.54 c-0.008-0.916-0.021-1.75-1.114-1.498c-0.691,0.247-0.73,0.367-0.776,1.688c0.129,1.878,0.18,11.1-0.01,13.873 c-0.032,0.463,0.176,0.964,0.728,1.025c0.542,0.061,0.841-0.008,0.987-0.648c0.122-0.538,0.209-5.71,0.326-7.726 c0.037-0.641,0.285-0.953,0.92-0.94c0.645,0.014,1.292-0.014,1.936-0.055c0.391-0.025,0.496,0.168,0.468,0.527 c-0.088,1.155,0.094,2.502-0.006,3.656c-0.02,1.631-0.012,2.307,0.05,4.176c0.074,0.586-0.036,1.179,0.433,1.148 C79.718,228.643,80.561,228.619,80.571,228.063z M60.473,213.655c1.1-0.013,1.341-0.655,0.835-1.233 c-0.529-0.605-3.41-0.309-4.057-0.239c-0.402,0.044-0.537,0.411-0.579,0.818c-0.043,0.411,0.247,0.63,0.606,0.64 c1.175,0.031,0.966-0.079,0.953,1.777c-0.025,3.486-0.014,6.915-0.263,10.327c-0.058,0.794,0.292,1.524-0.716,1.471 c-0.471,0.002-0.909,0.323-0.875,0.875c0.033,0.537,0.617,0.426,0.901,0.477c2.917,0.053,4.004,0.106,3.951-0.398 c-0.026-0.456-0.053-0.928-0.835-0.955c-0.835,0.08-0.608-0.512-0.676-0.848c0.013-1.564,0.054-9.089,0.148-11.602 C59.887,214.21,59.741,213.664,60.473,213.655z M70.328,213.815c0.464-0.062,0.828-0.191,0.806-0.791 c-0.022-0.576,0.012-0.748-0.413-0.939c-1.091-0.437-5.278-0.189-6.045-0.055c-0.263,0.046-0.223,0.478-0.239,0.71 c0.08,0.928-0.08,1.037,1.549,1.053c0.742-0.109,1.024,0.145,0.997,0.901c-0.054,1.479-0.026,10.063-0.186,12.864 c0.026,0.71,0.173,0.905,0.689,1.037c0.557-0.054,0.823-0.08,0.981-0.491c0.437-1.139,0.224-9.54,0.292-12.43 C68.812,213.422,68.547,213.777,70.328,213.815z M78.616,183.613c0.031,0.279-0.238,0.403-0.461,0.534 c-0.902,0.533-0.897,1.439-0.896,2.316c0,1.225,0.13,2.443,0.349,3.648c0.31,1.71,1.782,2.55,3.637,2.089 c2.185-0.543,2.561-1.623,3.041-3.996c0.231-1.144,0.164-2.325-0.099-3.467c-0.149-0.649-0.536-1.152-1.278-1.236 c-0.133-0.015-0.275-0.014-0.314-0.179c-0.04-0.167,0.066-0.273,0.184-0.361c0.858-0.643,2.172-0.629,3.016,0.055 c0.332,0.269,0.586,0.279,0.897-0.036c0.831-0.839,1.813-1.13,2.953-0.718c0.152,0.055,0.342,0.125,0.344,0.323 c0.002,0.205-0.215,0.178-0.338,0.257c-0.693,0.443-1.051,1.094-1.113,1.908c-0.185,2.454-0.034,4.904,0.112,7.353 c0.166,2.792,0.356,5.574-0.803,8.246c-1.219,2.807-3.231,4.734-6.404,5.845c-2.137,0.52-4.527,0.681-6.66-0.907 c-1.349-1.005-2.219-2.69-1.556-4.335c0.546-1.354,1.807-1.975,3.41-1.512c1.209,0.349,1.81,1.501,1.442,2.867 c-0.137,0.508,0.026,0.693,0.497,0.798c1.482,0.33,3.706-0.799,4.55-2.288c1.039-1.834,1.307-3.834,1.346-5.891 c0.002-0.09-0.038-0.18-0.058-0.271c-0.083,0.036-0.175,0.06-0.246,0.111c-2.548,1.835-5.302,2.155-8.209,1.042 c-1.005-0.385-1.678-1.183-2.039-2.203c-0.652-1.839-0.714-3.784-0.988-5.69c-0.142-0.984-0.257-1.972-0.882-2.808 c-0.194-0.259-0.444-0.349-0.734-0.392c-0.182-0.027-0.32-0.098-0.352-0.299c-0.03-0.188,0.081-0.287,0.224-0.37 c1.128-0.654,2.572-1.123,3.803,0.191c0.216,0.231,0.395,0.072,0.548-0.089c0.478-0.5,1.036-0.86,1.724-0.97 c0.254-0.041,0.53-0.039,0.779,0.016C78.278,183.244,78.585,183.332,78.616,183.613z M75.639,201.175c-1.273,0-1.273,1.956,0,1.956 C76.911,203.131,76.911,201.175,75.639,201.175z M77.368,204.134c-0.636,0-0.636,0.978,0,0.978S78.004,204.134,77.368,204.134z M80.002,204.134c-0.636,0-0.636,0.978,0,0.978C80.639,205.112,80.639,204.134,80.002,204.134z M82.637,203.146 c-0.636,0-0.636,0.978,0,0.978S83.273,203.146,82.637,203.146z M86.342,197.382c-0.636,0-0.636,0.978,0,0.978 S86.978,197.382,86.342,197.382z M86.507,194.254c-0.636,0-0.636,0.978,0,0.978C87.143,195.232,87.143,194.254,86.507,194.254z M86.424,185.841c1.273,0,1.273-1.956,0-1.956S85.152,185.841,86.424,185.841z M86.424,187.42c-0.636,0-0.636,0.978,0,0.978 S87.061,187.42,86.424,187.42z M86.26,192.345c1.273,0,1.273-1.956,0-1.956C84.987,190.389,84.987,192.345,86.26,192.345z M84.942,200.434c-1.273,0-1.273,1.956,0,1.956C86.215,202.39,86.215,200.434,84.942,200.434z M83.049,193.914 c0.636,0,0.636-0.978,0-0.978C82.412,192.936,82.412,193.914,83.049,193.914z M79.837,194.738c0.636,0,0.636-0.978,0-0.978 C79.201,193.76,79.201,194.738,79.837,194.738z M74.897,187.24c1.273,0,1.273-1.956,0-1.956 C73.625,185.284,73.625,187.24,74.897,187.24z M75.144,189.469c0.636,0,0.636-0.978,0-0.978S74.508,189.469,75.144,189.469z M75.474,190.713c-0.636,0-0.636,0.978,0,0.978S76.11,190.713,75.474,190.713z M76.791,192.53c-1.273,0-1.273,1.956,0,1.956 C78.064,194.486,78.064,192.53,76.791,192.53z M28.503,156.99c-0.344,0.524-0.548,1.507-0.565,2.135 c-0.049,1.878-0.558,4.382,1.248,5.285c0.338,0.169,0.233,0.121,0.024-0.195c-0.983-1.491-0.857-3.731-0.641-5.466 c0.171-1.377,1.13-1.027,1.52-2.809c0.081-0.369-0.26-0.821-0.366-0.464C29.406,156.55,28.903,156.38,28.503,156.99z M42.119,155.769c-0.435,0.537-1.241,0.83-1.583,1.572c-0.257,0.557-0.51,1.312-0.536,1.909c-0.098,2.239-0.505,3.985-0.506,6.223 c0,0.961,0.539,0.418,0.535,0.041c-0.021-1.882,0.375-3.378,0.51-5.256c0.084-1.167,0.001-2.374,1.096-3.123 c0.45-0.308,0.428-0.368,0.659-0.879C42.449,155.914,42.357,155.475,42.119,155.769z M39.453,167.943 c-0.098,2.197-0.278,4.445-1.479,6.645c-1.079,1.978-2.961,4.514-5.199,5.004c-0.368,0.081-0.634,0.373-0.268,0.293 c2.334-0.511,4.065-1.815,5.562-4.1c1.764-2.693,1.684-4.639,1.879-7.348C39.974,168.059,39.47,167.567,39.453,167.943z M56.125,166.79c-0.83-0.513-0.403-0.793-0.72-3.652c-0.06-0.537-0.256-3.219-0.513-4.211c-0.286-1.106-1.403-3.06-2.672-3.451 c-0.36-0.111-0.734,0.063-0.391,0.22c1.074,0.488,2.452,2.655,2.612,3.613c0.21,1.258,0.44,2.675,0.464,3.954 c0.015,0.832,0.122,1.892,0.208,2.758c0.063,0.638,0.527,0.851,0.915,1.086C56.369,167.314,56.446,166.988,56.125,166.79z M55.591,168.283c-1.433,1.254-0.879,3.173-1.147,4.967c-0.166,1.106-0.214,2.307-0.549,3.381 c-0.207,0.663-1.098,2.325-2.063,2.783c-0.342,0.162-0.609,0.402-0.232,0.391c1.196-0.037,2.416-1.982,2.716-2.917 c0.444-1.387,0.677-2.691,0.707-4.148c0.031-1.502-0.275-3.332,0.983-4.432C56.29,168.059,55.872,168.037,55.591,168.283z M45.682,165.909c-0.1,0.857,0.096,5.019,0.188,5.946c0.139,1.399,0.192,2.673,1.293,3.672c0.28,0.254,0.867,0.171,0.587-0.083 c-0.956-0.867-1.123-1.367-1.402-3.814c-0.151-1.323-0.755-12.211,2.861-11.515c0.37,0.071,0.155-0.303-0.217-0.329 C46.286,159.597,45.891,164.118,45.682,165.909z M52.4,236.628c1.433,2.094,1.888,4.454,2.023,7.519 c-0.178,3.31,0.482,14.08-6.224,14.14c-1.265,0.234-2.997-0.663-4.253-3.076c-1.102-1.994-1.18-11.214-0.704-13.624 c0.498-2.52,1.252-4.563,3.318-6.334C48.4,233.676,51.436,235.22,52.4,236.628z M52.09,242.392 c0.007-0.438-0.477-1.136-1.087-1.024c-0.924,0.169-1.878,2.887-2.08,2.859c-0.188-0.026-0.557-2.026-0.704-2.488 c-0.102-0.321-0.523-0.509-0.902-0.51c-0.367-0.001-0.628,0.32-0.744,0.655c-1.446,2.897,0.209,8.249,1.35,10.891 c0.088,0.204,0.389,0.94,0.648,0.954C49.878,253.402,52.793,245.585,52.09,242.392z M27.508,176.128 c0.144-0.632,0.423-2.148-0.309-2.758c-0.325-0.271-0.313,0.092-0.112,0.466c0.215,0.399-0.036,1.732-0.094,1.984 C26.898,176.235,27.413,176.542,27.508,176.128z M63.961,156.718c0.018-0.424-0.49-0.87-0.507-0.449 c-0.044,1.05-1.208,0.992-1.496,2.014c-0.418,1.481-0.321,4.09-0.329,5.626c-0.01,1.792,0.149,8.169,0.768,9.633 c0.164,0.388,0.715,0.831,0.549,0.439c-0.313-0.74-0.623-8.285-0.686-9.962c-0.057-1.506-0.337-4.82,0.754-5.913 C63.611,157.506,63.924,157.598,63.961,156.718z M75.494,157.034c0.305-0.297,0.076-0.563-0.226-0.268 c-0.643,0.627-1.415,0.402-1.914,1.153c-0.469,0.705-0.575,5.556-0.576,6.792c-0.001,1.129-0.362,7.505,0.659,9.098 c0.229,0.358,0.456,0.214,0.226-0.144c-0.94-1.467-0.145-13.032-0.103-13.791C73.683,157.672,74.481,158.023,75.494,157.034z M78.959,173.034c-0.07-0.698-0.555-1.956-1.015-2.498c-0.271-0.319-1.244-0.51-0.933-0.219c1.647,1.537,2.033,6.862-0.604,8.645 c-0.351,0.237,0.161,0.31,0.521,0.082C79.451,177.452,79.038,173.826,78.959,173.034z M67.789,179.559 c0.511-0.311,1.327-1.189,1.455-1.482c0.169-0.388-0.05-1.268-0.22-0.878c-0.373,0.858-1.223,1.749-2.003,2.223 C66.658,179.643,67.427,179.78,67.789,179.559z M87.34,157.803c-2.885-0.13-1.863,5.707-1.558,7.294 c0.08,0.416,0.803,0.527,0.724,0.115c-0.238-1.238-1.219-6.313,0.741-7.026C87.549,158.077,87.76,157.822,87.34,157.803z M85.738,175.696c0.345,1.292,1.493,1.68,1.839,2.827c0.121,0.401,0.513-0.166,0.329-0.549c-0.469-0.981-1.021-1.348-1.427-2.388 c-0.528-1.351-0.101-1.97-0.22-3.362c-0.036-0.422-0.585-0.996-0.548-0.573C85.823,172.961,85.393,174.405,85.738,175.696z M90.513,167.82c-0.143,0.249-0.051,0.534,0.172,0.537c1.846,1.347,1.672,3.579,2.462,5.446c0.164,0.388,0.825,0.639,0.659,0.247 c-0.465-1.098-0.593-2.803-1.06-3.903c-0.361-0.85-0.873-1.667-1.591-2.25c0.564-0.91,1.426-1.709,1.965-2.656 c0.732-1.286,0.909-2.828,1.153-4.271c0.27-1.597-0.165-3.358-1.016-4.539c-0.248-0.344-0.678-0.487-0.494-0.11 C95.784,162.498,90.956,167.051,90.513,167.82z M98.335,178.413c2.186-1.386,1.924-4.475,1.262-6.587 c-0.127-0.405-1.043-1.203-0.851-0.823c1.125,2.223,0.843,6.402-1.455,7.52C96.937,178.696,97.951,178.743,98.335,178.413z M37.806,203.758c-0.308-1.353,0.781-14.07,0.823-17.002c0.006-0.425-0.653-0.381-0.659,0.041 c-0.043,2.935-0.988,15.561-0.848,16.777C37.172,203.995,37.9,204.169,37.806,203.758z M46.534,185.357 c5.228,6.916,2.552,18.937-2.264,20.913c-0.392,0.161,0.174,0.386,0.576,0.247c4.405-1.523,7.863-12.679,2.799-20.436 C47.412,185.725,46.279,185.02,46.534,185.357z M64.057,183.683c0.851,0.988,2.305,2.285,2.223,8.041 c-0.02,1.415-0.082,7.19,0.055,8.535c0.043,0.423,0.425,0.092,0.439-0.329c0.041-1.253,0.115-3.768,0.137-5.022 c0.026-1.414,0.621-8.376-1.811-10.703C64.793,183.911,63.781,183.362,64.057,183.683z M71.921,200.805 c-0.265-0.326-0.846-0.424-0.577-0.094c0.988,1.215,0.027,4.446-1.647,5.05c-0.398,0.144,0.286,0.311,0.686,0.165 C72.154,205.277,73.192,202.368,71.921,200.805z M56.439,189.939c-0.364,0.219,0.188,0.453,0.551,0.234 c0.696-0.419,0.952-0.738,1.102-1.537c0.073-0.389,0.169-0.896-0.011-1.242c-0.288-0.556-0.762-0.865-1.112-0.865 c-0.509,0,0.453,0.329,0.535,1.029C57.654,188.83,57.149,189.511,56.439,189.939z M57.525,196.801 c-1.161,0.617-2.017,1.013-2.614,2.244c-0.568,1.171-0.247,2.346,0.391,3.252c0.244,0.346,1.163,0.545,0.906,0.213 c-0.844-1.091-1.444-2.535-0.453-3.732c0.528-0.637,1.038-1.145,1.75-1.523C57.879,197.055,57.898,196.603,57.525,196.801z M77.861,187.003c-0.017,0.83,0.088,1.864,0.268,2.676c0.175,0.787,0.292,1.213,0.865,1.832c0.288,0.312,0.623,0.233,0.391-0.123 c-0.309-0.474-0.349-0.922-0.556-1.544c-0.391-1.173-0.31-2.229-0.288-3.314c0.024-1.183,1.332-1.527,0.967-2.758 c-0.121-0.407-0.433-0.612-0.313-0.205c0.168,0.566-0.798,1.323-1.087,1.813C77.862,185.798,77.871,186.56,77.861,187.003z M79.178,202.383c0.008-0.619,0.401-2.74-0.762-2.518c-0.371,0.071-0.241,0.572,0.084,0.624c0.004,0.009,0.007,0.017,0.012,0.03 c0.023,0.063,0.03,0.13,0.039,0.196c0.027,0.205,0.023,0.415,0.02,0.622c-0.005,0.361-0.046,0.72-0.051,1.081 C78.515,202.842,79.173,202.805,79.178,202.383z M90.417,182.887c-1.441,1.07-1.181,2.307-1.201,3.796 c-0.015,1.076,0.048,5.388,0.172,6.743c0.213,2.331,0.032,4.96-0.967,7.107c-0.922,1.979-2.35,3.773-4.137,4.976 c-0.352,0.237,0.305,0.197,0.659-0.041c2.983-2.007,4.527-4.505,4.983-8.1c0.232-1.832-0.21-8.295-0.166-9.581 c0.054-1.59-0.453-3.499,0.535-4.528C90.588,182.951,90.755,182.636,90.417,182.887z"/>
        <path id="fixed" style="opacity:0.3;fill:#FFFFFF;" d="M10.201,87.756l-1.122-2.989c0,0,90.89-4.313,99.851-4.312 c0.324,0-0.287,3.434-0.287,3.434L10.201,87.756z M108.029,87.756c-24.271,0-78.755,2.784-97.962,3.228L9.203,92.99 c0,0,74.779-0.596,99.586-2.385C108.789,90.605,108.573,87.756,108.029,87.756z M59.804,76.825 c26.207-0.698,45.489-1.187,45.47-1.857c0,0-2.448-3.096-46.518-1.872c-26.206,0.728-46.421,1.639-46.421,2.382 C12.336,76.222,7.817,78.211,59.804,76.825z"/>
        <path id="one" style="fill:#8CAF3E;" d="M71.036,74.349L90.999,0l7.781,2.089L79.353,74.45 C76.518,74.461,74.141,74.429,71.036,74.349z M62.697,106.223l-1.923,6.348c1.891,2.027,3.051,3.022,6.52,6.793l3.559-13.141 H62.697z"/>
        <path id="four" style="fill:#FDE657;" d="M10.82,204.868c-1.481,0-1.609-2.302-0.121-2.302 C12.18,202.566,12.308,204.868,10.82,204.868z M24.092,186.099c-1.488,0-1.36,2.302,0.121,2.302 C25.701,188.401,25.573,186.099,24.092,186.099z M9.162,156.459c-1.488,0-1.36,2.302,0.121,2.302 C10.771,158.761,10.643,156.459,9.162,156.459z M10.919,125.282c-1.488,0-1.36,2.302,0.121,2.302 C12.528,127.584,12.4,125.282,10.919,125.282z M33.314,132.528c-1.488,0-1.36,2.302,0.121,2.302 C34.923,134.83,34.794,132.528,33.314,132.528z M90.837,134.504c-1.488,0-1.36,2.302,0.121,2.302 C92.446,136.806,92.318,134.504,90.837,134.504z M95.009,196.858c-1.488,0-1.36,2.302,0.121,2.302 C96.618,199.16,96.49,196.858,95.009,196.858z M97.863,228.693c-1.488,0-1.36,2.302,0.121,2.302 C99.472,230.995,99.344,228.693,97.863,228.693z M74.81,257.724c-1.488,0-1.36,2.302,0.121,2.302 C76.419,260.027,76.291,257.724,74.81,257.724z M10.48,246.477c-1.488,0-1.36,2.302,0.121,2.302 C12.089,248.779,11.961,246.477,10.48,246.477z M27.605,213.983c-1.488,0-1.36,2.302,0.121,2.302 C29.214,216.285,29.086,213.983,27.605,213.983z M32.435,259.7c-1.488,0-1.36,2.302,0.121,2.302 C34.044,262.003,33.916,259.7,32.435,259.7z M20.993,138.182c-2.126,0-1.943,3.289,0.172,3.289 C23.291,141.471,23.108,138.182,20.993,138.182z M95.861,143.232c-2.126,0-1.943,3.289,0.172,3.289 C98.16,146.52,97.977,143.232,95.861,143.232z M10.674,222.272c-2.126,0-1.943,3.289,0.172,3.289 C12.972,225.561,12.789,222.272,10.674,222.272z M89.714,211.294c-2.126,0-1.943,3.289,0.172,3.289 C92.012,214.583,91.829,211.294,89.714,211.294z M8.478,179.239c-2.126,0-1.943,3.289,0.172,3.289 C10.777,182.528,10.593,179.239,8.478,179.239z M59.195,126.326c-2.126,0-1.943,3.289,0.172,3.289 C61.494,129.615,61.311,126.326,59.195,126.326z M23.408,261.353c-2.126,0-1.943,3.289,0.172,3.289 C25.706,264.642,25.523,261.353,23.408,261.353z M102.887,261.183c-2.126,0-1.943,3.289,0.172,3.289 C105.186,264.472,105.003,261.183,102.887,261.183z M56.341,258.548c-2.126,0-1.943,3.289,0.172,3.289 C58.64,261.837,58.457,258.548,56.341,258.548z M64.996,263.599c-2.551,0-2.332,3.947,0.207,3.947 C67.755,267.545,67.535,263.599,64.996,263.599z M13.95,147.733c-2.552,0-2.332,3.947,0.207,3.947 C16.708,151.68,16.488,147.733,13.95,147.733z M35.027,216.234c-2.551,0-2.332,3.947,0.207,3.947 C37.785,220.181,37.566,216.234,35.027,216.234z M8.68,210.636c-2.551,0-2.332,3.947,0.207,3.947 C11.439,214.582,11.219,210.636,8.68,210.636z M91.014,227.432c-2.552,0-2.332,3.947,0.207,3.947 C93.772,231.378,93.552,227.432,91.014,227.432z M34.368,229.408c-2.552,0-2.332,3.947,0.207,3.947 C37.127,233.354,36.907,229.408,34.368,229.408z M58.604,120.653l3.172-11.815l6.11,8.314l-0.955,3.556 C64.174,121.314,61.383,121.017,58.604,120.653z M82.112,33.098l-3.343,12.45l6.11,8.314l3.343-12.45L82.112,33.098z M75.194,58.864l-3.343,12.45l2.289,3.115l5.223-0.026l1.94-7.226L75.194,58.864z"/>
    </g>
</svg>
