<?xml version="1.0" encoding="iso-8859-1"?>
<svg version="1.1" xmlns="http://www.w3.org/2000/svg" xmlns:xlink="http://www.w3.org/1999/xlink" x="0px" y="0px" viewBox="0 0 281.945 246.574" style="enable-background:new 0 0 281.945 246.574;" xml:space="preserve">
    <g id="Layer">
        <path id="one" style="opacity:0.4;fill:#FDCC58;" d="M251.382,118.493c3.246,23.094-3.59,47.721-18.297,66.973 c-24.576,32.17-67.085,41.068-105.263,34.088c-43.836-8.016-101.627-30.151-112.422-79.915 C4.636,90.01,86.454,62.202,121.348,53.744c42.522-10.307,82.165-8.293,112.103,25.499 C243.581,90.677,249.387,104.296,251.382,118.493z"/>
        <path id="two" style="opacity:0.7;fill-rule:evenodd;clip-rule:evenodd;fill:#FDE657;" d="M124.624,229.263 c-16.775,6.933-33.828-1.092-48.827-8.646c-0.032-0.043-0.071-0.065-0.111-0.089c-9.776-6.058-20.006-13.645-24.051-24.879 c-4.035-11.216,3.408-23.197,10.461-32.02c-4.212,12.546-5.867,25.032,0.327,37.476c5.899,11.845,17.603,20.482,29.536,25.537 c12.841,5.431,26.964,5.327,39.456-0.915c0.74-0.376,1.465-0.764,2.173-1.171C130.802,226.372,127.809,227.948,124.624,229.263z M70.551,163.262h-0.002c-0.356,3.539-3.401,10.674,1.42,12.105c3.794,1.129,8.09-0.034,11.982-0.093 c3.299-0.047,6.773-0.23,10.044,0.317c3.758,0.627,7.045,2.086,10.722,1.524c-0.055-0.024-0.118-0.04-0.179-0.056 c-2.716-0.701-5.549-1.768-8.153-2.81c-3.057-1.226-7.793-4.443-11.104-4.49c-1.219-0.016-3.05-0.477-3.958-1.344 c-1.377-1.323-2.221-3.01-4.219-3.71c-1.72-0.598-3.774-0.949-5.581-1.322C71.394,163.358,71.036,163.318,70.551,163.262z M79.196,172.393c-1.174-0.122-1.459,1.697-0.279,1.818c2.04,0.209,4.117,0.078,6.156,0.323c1.176,0.144,1.457-1.676,0.279-1.819 C83.312,172.471,81.235,172.603,79.196,172.393z M74.03,169.083c0.96,0.298,1.858,0.88,2.87,1.094 c1.088,0.234,2.011,0.847,3.09,1.096c1.156,0.27,1.427-1.553,0.279-1.82c-0.917-0.21-1.705-0.799-2.637-0.995 c-1.008-0.215-1.891-0.756-2.85-1.051C73.661,167.058,72.898,168.735,74.03,169.083z M81.858,205.786 c0.96,1.08,1.488,3.427,2.116,4.247c2.567,3.332,7.756,4.754,10.202,0.395c1.073-1.908,2.003-3.893,3.075-5.802 c3.803-6.764,8.818-12.88,13.548-19.012c0.022-0.029,0.047-0.049,0.071-0.074c0-0.001,0.001-0.002,0.001-0.002 c-0.062,0.104-5.115,3.221-6.142,4.19c-1.091,1.034-2.162,2.097-3.292,3.089c-1.908,1.674-3.934,3.248-6.049,4.653 C91.116,200.302,84.945,201.279,81.858,205.786z M92.623,205.383c-0.129,0.383-0.488,0.656-0.735,0.962 c-0.514,0.638-1.019,1.279-1.626,1.83c-0.869,0.791,0.211,2.282,1.089,1.484c0.673-0.611,1.266-1.275,1.832-1.985 c0.379-0.476,0.921-0.945,1.121-1.54C94.679,205.018,93.002,204.26,92.623,205.383z M87.998,205.786 c0.099-0.288,0.467-0.466,0.695-0.656c0.408-0.338,0.789-0.695,1.226-1c0.598-0.417,1.62-0.761,2.021-1.393 c0.631-0.992-0.795-2.159-1.43-1.16c-0.151,0.238-0.766,0.501-1.017,0.659c-0.456,0.276-0.893,0.56-1.305,0.901 c-0.63,0.521-1.594,1.089-1.869,1.898C85.933,206.149,87.611,206.907,87.998,205.786z M120.697,210.853 c0.28,2.587,0.008,11.056,5.007,9.88c3.439-0.814,6.476-2.871,9.419-4.767c-0.564-4.942-4.719-10.067-7.12-14.175 c-2.352-4.027-5.794-7.485-7.886-11.612c-0.096-0.019-0.193-0.048-0.297-0.108c-1.747-0.995-0.753,9.005-0.588,10.004 C119.821,203.655,120.305,207.247,120.697,210.853z M125.02,203.039c1.249,1.797,1.848,4.074,2.97,5.973 c1.141,1.935,1.993,4.02,3.107,5.972c0.587,1.031,2.061-0.07,1.482-1.087c-1.109-1.949-1.921-4.067-3.107-5.975 c-1.176-1.892-1.704-4.147-2.97-5.972C125.824,200.978,124.343,202.067,125.02,203.039z M122.495,209.441 c0.816,2.487,1.923,4.856,2.59,7.38c0.303,1.146,2.011,0.461,1.711-0.678c-0.665-2.518-1.772-4.888-2.589-7.375 C123.837,207.64,122.127,208.32,122.495,209.441z M121.011,197.893c0.14,0.431,0.233,0.91,0.499,1.281 c0.071,0.098,0.135,0.202,0.198,0.305c-0.028-0.047-0.019-0.024,0.02,0.051c-0.213,0.941,1.251,1.515,1.738,0.534 c0.266-0.537,0.05-1.102-0.222-1.584c-0.089-0.155-0.185-0.303-0.29-0.449c-0.077-0.106-0.166-0.615-0.232-0.815 C122.358,196.088,120.647,196.766,121.011,197.893z M97.818,217.567c3.021,1.859,6.509,3.784,10.026,4.266 c6.931,0.954,5.936-6.519,5.993-11.147c0.083-7.1,0.562-14.146,0.561-21.255c-1.319,1.232-2.444,3.014-3.543,4.267 c-2.138,2.436-4.037,5.465-5.602,8.294C102.41,207.114,99.376,211.876,97.818,217.567z M112.159,205.214 c0.386-3.304,1.172-6.682,1.04-10.013c-0.048-1.184-1.874-0.964-1.828,0.213c0.124,3.139-0.666,6.403-1.029,9.521 C110.204,206.112,112.022,206.396,112.159,205.214z M110.717,216.408c0.258-0.611,0.468-1.234,0.607-1.883 c0.013-0.044,0.036-0.074,0.044-0.124l0.023-0.15c0.181-1.175-1.621-1.449-1.818-0.28c-0.1,0.594-0.303,1.133-0.536,1.686 C108.581,216.753,110.26,217.503,110.717,216.408z M107.753,207.643c0.078-0.399,0.228-0.781,0.33-1.172 c0.087-0.33-0.026-0.631-0.003-0.949c0.037-0.501-0.244-0.969-0.77-1.05c-0.466-0.072-1.013,0.268-1.049,0.77 c-0.022,0.318,0.063,0.641,0.004,0.95c-0.076,0.396-0.251,0.77-0.33,1.17C105.71,208.529,107.531,208.804,107.753,207.643z M132.045,199.228c2.831,3.908,5.662,7.805,8.39,11.796c1.412-0.234,2.556-1.343,3.584-2.287c1.296-1.182,1.884-2.261,2.163-3.891 c-0.016-0.049-0.023-0.104-0.031-0.156c-3.393-3.038-7.118-5.762-10.758-8.496c-1.06-0.797-7.79-6.604-10.171-7.082 C127.893,192.035,129.778,196.1,132.045,199.228z M142.306,204.608c0.165,0.194,0.372,0.354,0.538,0.547 c0.322,0.383,0.859,0.51,1.286,0.199c0.383-0.281,0.519-0.905,0.196-1.288c-0.165-0.195-0.373-0.353-0.537-0.546 c-0.323-0.383-0.86-0.51-1.284-0.198C142.12,203.603,141.983,204.225,142.306,204.608z M139.324,204.894 c0.134,0.325,0.415,0.664,0.573,0.836c0.302,0.326,0.36,0.672,0.807,0.886c0.969,0.465,1.658-0.861,0.99-1.498 c-0.111-0.154-0.191-0.328-0.314-0.477c-0.138-0.169-0.267-0.24-0.344-0.427C140.593,203.118,138.881,203.789,139.324,204.894z M85.963,197.97c3.468-2.659,7.029-5.197,10.506-7.846c2.644-2.013,8.279-5.288,8.634-9.079c-2.272-0.336-5.3,0.301-7.454,0.227 c-3.17-0.109-6.261,0.328-9.412,0.54c-3.383,0.225-6.718,0.131-10.108,0.155c-2.468,0.016-6.257-0.236-8.262,1.369 c-0.994,4.618-0.972,9.354,1.804,13.489C75.477,202.487,81.013,201.77,85.963,197.97z M94.847,187.829 c0.295-0.342,0.902-0.594,1.288-0.816c0.496-0.288,0.98-0.452,1.413-0.794c0.367-0.165,0.627-0.483,0.575-0.931 c-0.055-0.457-0.532-0.92-1.023-0.806c-0.197,0.045-0.383,0.074-0.554,0.2c-0.102,0.073-0.192,0.206-0.299,0.259 c-0.363,0.167-0.701,0.279-1.046,0.496c-0.604,0.382-1.311,0.682-1.784,1.233C92.642,187.572,94.076,188.725,94.847,187.829z M79.683,186.153c0.324,0.442,0.848,0.442,1.285,0.199c-0.155,0.086,0.35,0.116,0.456,0.14c0.255,0.054,0.523,0.093,0.786,0.08 c0.636-0.038,1.069-0.483,1.666-0.62c1.142-0.261,0.944-2.091-0.213-1.827c-0.347,0.076-0.658,0.175-0.977,0.332 c-0.299,0.146-0.466,0.302-0.802,0.253c-0.755-0.114-1.3-0.234-2.003,0.16C79.442,185.115,79.414,185.787,79.683,186.153z M79.173,195.969c0.252-0.276,0.657-0.465,0.998-0.598c0.612-0.239,1.177-0.602,1.754-0.907c1.017-0.544,1.904-1.172,2.751-1.958 c0.863-0.797-0.216-2.289-1.089-1.483c-0.95,0.882-1.987,1.528-3.121,2.157c-0.931,0.515-1.989,0.819-2.724,1.631 C76.945,195.692,78.382,196.844,79.173,195.969z M65.336,202.568c6.552,10.501,17.197,18.74,28.82,22.96 c12.833,4.656,27.06,4.609,38.915-2.827c11.639-7.3,17.969-18.031,23.47-30.172c-0.661-0.288-1.361-0.527-2.095-0.718 c0,0,0-0.001-0.001-0.001c-0.08,0.108-0.181,0.19-0.296,0.247c-1.222,2.024-3.025,5.101-5.495,5.388 c-2.797,0.327-4.791-2.284-7.13-3.266c-3.484-1.462-6.701-3.387-10.194-4.82c-1.52-0.625-3.076-1.226-4.479-2.096 c-0.42-0.263-2.054-1.979-2.471-2.042c-0.522-0.08-0.755-0.484-0.752-0.894l0,0c-0.428-0.103-0.801-0.175-1.11-0.191 c0.115,0.784,0.999,2.392,0.005,2.953c-0.534,0.302-0.796,0.323-1.418,0.266c-0.336-0.029-1.762-1.185-2.002-0.924 c-0.575,0.626-1.776,1.461-2.494,0.481c-0.523-0.709-0.455-1.98-1.586-1.766c-0.805,0.152-1.723-0.357-2.407-0.679 c-0.454-0.211-0.676-0.754-0.464-1.216c0.082-0.178,0.147-0.28,0.198-0.35c-0.116,0.08-0.342,0.173-0.733,0.171 c-0.476-0.001-0.785-0.05-1.24-0.191c-0.882-0.274-0.902-1.918-1.007-2.871c-0.073-0.147-0.118-0.315-0.087-0.52l0.023-0.152 c0.006-0.042,0.026-0.071,0.037-0.112c-0.003,0-0.009-0.001-0.012-0.003c-0.652-0.198-1.249-0.501-1.845-0.818 c-0.265,0.362-0.777,0.424-1.166,0.24c-4.574,1.181-7.892-0.724-12.604-1.237c-6.177-0.672-12.179,0.045-18.337,0.243 c-2.55,0.081-6.077-0.601-7.263-3.24c-1.679-3.742,0.323-7.514,0.615-11.382c-1.694-0.254-3.497-0.724-3.362-1.598 c-0.064,0.422-0.431,0.733-0.835,0.763C59.756,175.581,57.352,189.781,65.336,202.568z M123.09,189.549 c3.038,2.774,5.209,7.389,7.471,10.769c2.76,4.121,5.868,8.074,8.669,12.194c0.227,0.332,0.545,0.422,0.841,0.366 c0.056,0.008,0.101,0.03,0.161,0.026c1.978-0.07,3.468-1.431,4.875-2.683c1.855-1.648,2.652-3.108,2.963-5.542 c0.049-0.374-0.126-0.734-0.43-0.923c-0.044-0.162-0.131-0.318-0.284-0.454c-4.981-4.468-10.562-8.456-16.045-12.278 c-1.837-1.283-5.354-5.063-7.814-3.337c-0.159,0.112-0.26,0.247-0.318,0.391C122.765,188.403,122.582,189.086,123.09,189.549z M116.791,191.618c-0.1,7.034,1.484,13.995,2.244,20.979c0.396,3.625,0.334,7.986,4.09,9.776c3.67,1.744,9.318-2.372,12.577-4.577 c0.541,0.174,1.317-0.177,1.318-0.944c-0.003-4.61-3.466-9.247-5.679-13.071c-1.413-2.442-2.875-4.858-4.425-7.213 c-1.673-2.54-3.952-4.674-5.282-7.43c-0.174-0.36-0.488-0.518-0.805-0.532c-0.07-0.08-0.152-0.152-0.257-0.211 C118.075,186.969,116.825,189.253,116.791,191.618z M110.084,191.786c-2.178,2.489-4.255,5.378-5.86,8.278 c-3.135,5.656-6.52,10.901-8.228,17.169c-0.347,0.272-0.52,0.736-0.272,1.099c-0.079,0.697,0.644,1.024,1.215,0.834 c4.496,2.725,14.83,8.304,17.745,1.731c1.997-4.502,0.899-10.188,1.284-14.979c0.493-6.108,0.328-12.196,0.258-18.318 c-0.008-0.737-0.801-0.934-1.341-0.661c-0.145,0.007-0.295,0.045-0.442,0.131C112.655,188.116,111.423,190.254,110.084,191.786z M70.188,197.913c2.041,3.683,6.511,6.175,10.713,4.835c0.721-0.231,1.43-0.511,2.13-0.824c-1.219,1.006-2.295,2.149-3.134,3.519 c-0.222,0.362-0.147,0.688,0.067,0.91c0.061,0.337,0.296,0.636,0.736,0.704c-0.435-0.068,1.52,3.636,1.792,4.061 c0.935,1.466,2.274,2.54,3.72,3.45c2.271,1.425,5.447,1.588,7.455-0.405c3.456-3.422,5.024-8.722,7.71-12.731 c3.388-5.046,7.14-9.851,10.85-14.66c0.067-0.086,0.111-0.175,0.142-0.264c0.067-0.063,0.13-0.133,0.181-0.22 c0.017-0.028,0.036-0.058,0.051-0.088c0.168-0.281,0.072-0.667-0.097-0.919c-3.102-4.685-11.311,5.31-13.295,7.052 c-2.713,2.383-6.318,3.958-9.789,5.688c2.827-2.101,5.515-4.457,8.136-6.412c3.406-2.533,8.789-5.676,9.352-10.253 c0.719-0.232,0.96-1.386,0.118-1.714c-0.076-0.027-0.159-0.041-0.238-0.068h-0.001c-2.759-0.944-5.963-0.027-8.861-0.119 c-3.345-0.104-6.572,0.308-9.904,0.529c-3.785,0.254-7.563,0.137-11.355,0.165c-2.497,0.02-5.404-0.012-7.526,1.456 c-0.405,0.008-0.814,0.237-0.932,0.736C66.858,188.022,67.33,192.754,70.188,197.913z M128.813,186.247 c2.966,1.38,5.965,2.541,8.824,4.144c1.948,1.092,4.089,1.719,5.981,2.913c1.915,1.211,4.841,3.595,7.209,0.318 c0.546-0.761,1.077-1.522,1.589-2.298c-1.125-0.237-2.258-0.421-3.289-0.596c-2.73-0.477-5.375-1.313-8.088-1.823 c-3.543-0.66-7.03-1.377-10.517-2.276c-0.501-0.128-1.397-0.46-2.435-0.834C128.319,185.967,128.556,186.126,128.813,186.247z M111.204,179.75c0.135,0.823,0.082,1.555,0.621,1.491c0.621-0.076,1.328-0.211,1.928,0.057c0.836,0.373,0.769,1.066,0.521,1.725 c0.959,0.113,2.014-0.031,2.76,0.576c0.484,0.392,0.651,0.831,0.809,1.4c0.008,0.032,0.008,0.065,0.002,0.095 c0.045-0.056,0.099-0.122,0.175-0.204c0.565-0.625,1.324-0.621,2.05-0.296c0.566,0.251,1.065,1.468,0.805,0.586 c-0.093-0.314-0.168-0.577-0.194-0.9c-0.003-0.027,0-0.051,0-0.075c-0.002-0.002-0.003-0.002-0.007-0.004 c-0.191-0.167-0.326-0.405-0.351-0.654c-1.169-0.381-3.032,0.232-3.98-1.049c-1.058-1.458-3.199-2.198-5.135-2.748 C111.208,179.75,111.206,179.75,111.204,179.75z"/>
        <path id="three" style="opacity:0.7;fill-rule:evenodd;clip-rule:evenodd;fill:#E55C5B;" d="M196.68,103.723 c0.064-0.025,0.123-0.034,0.185-0.042c5.898-3.415,11.893-6.91,16.264-12.281c3.704-4.537,6.536-9.885,7.699-15.666 c1.226-6.09,1.086-12.591-0.855-18.524c-1.133-3.47-2.748-6.516-4.775-9.278c-0.098-0.055-0.189-0.115-0.283-0.162 c-0.22-0.135-0.27-0.327-0.213-0.509c-1.324-1.727-2.823-3.35-4.464-4.897c-0.17,0.276-0.573,0.401-0.825,0.062 c-2.742-3.702-5.805-6.746-10.289-8.209c-3.614-1.17-7.357-1.85-10.807-3.469c-3.398-1.606-6.616-3.142-10.38-3.299 c-0.055,0.032-0.124,0.047-0.208,0.062c-0.219,0.016-0.435-0.013-0.637-0.078c-0.031-0.003-0.053,0.003-0.083,0 c-4.718,0.079-9.066,1.14-13.001,3.817c-0.025,0.02-0.055,0.032-0.086,0.044c-0.009,0.007-0.009,0.007-0.016,0.013 c-0.042,0.049-0.091,0.089-0.156,0.128c-0.033,0.027-0.079,0.052-0.128,0.077c-0.135,0.084-0.402,0.059-0.519-0.051 c0.158,0.144-1.868,2.083-2.445,2.298c-1.857,0.666-3.355,2.199-4.541,3.733c-0.935,1.207-2.477,2.092-3.271,3.334 c-0.892,1.376-1.598,2.926-2.538,4.26c-0.014,0.068-0.037,0.14-0.081,0.203c-0.436,0.698-0.57,1.616-1.098,2.269 c-1.016,1.275-1.719,2.479-1.929,4.153c-0.139,1.044-0.549,2.106-0.62,3.134c-0.043,0.83,0.028,1.729-0.15,2.528 c-0.373,1.689-1.077,3.128-1.379,4.853c-0.299,1.68-0.647,3.333-0.881,5.027c0.06,0.09,0.086,0.189,0.082,0.316 c-0.369,4.537-0.841,9.233-0.625,13.783c0.204,3.988,0.274,7.878-0.544,11.805c-0.511,2.485-0.16,4.574,0.345,7.015 c0.377,1.808,0.207,3.411,0.192,5.253c-0.024,2.547,0.37,4.821,0.963,7.285c0.569,2.389,1.396,5.588,3.698,6.909 c0.1,0.055,0.161,0.127,0.198,0.19c0.908,0.156,1.808,0.552,2.859,0.453c0.546-0.053,1.118-0.154,1.655,0.031 c1.378,0.496,2.3,0.488,3.722,0.191c0.643-0.132,1.007-0.223,1.663-0.056c1.662,0.425,2.828-0.001,4.446-0.196 c0.842-0.09,2.938,0.168,4.103-0.08c0.072-0.06,0.161-0.105,0.287-0.114c0.039-0.003,0.076-0.006,0.121-0.002 c0.055-0.033,0.103-0.059,0.15-0.084c0.232-0.151,0.475-0.104,0.65,0.026c1.336-0.089,2.633-0.238,3.838-0.901 c1.03-0.559,2.001-1.072,3.071-1.582c1.613-0.78,3.578-1.235,4.989-2.394c0.928-0.765,1.883-1.564,2.989-2.049 c2.555-1.114,4.324-3.269,6.704-4.692C192.085,106.94,194.048,104.673,196.68,103.723z M217.102,61.163 c0.095,0.444,0.155,0.896,0.171,1.349c0.012,0.364-0.053,0.757-0.014,1.113c0.072,0.666,0.171,1.259-0.335,1.78 c-0.471,0.489-1.136-0.331-0.669-0.815c0.113-0.117-0.009-0.542-0.025-0.683c-0.023-0.212-0.016-0.411-0.008-0.623 c0.031-0.656-0.026-1.31-0.163-1.954C215.92,60.665,216.96,60.498,217.102,61.163z M190.599,81.587 c-0.488,0.473-1.155-0.346-0.669-0.816c1.035-0.999,1.608-2.45,2.592-3.497c0.464-0.496,1.128,0.328,0.67,0.816 c-0.477,0.505-0.832,1.202-1.256,1.756C191.493,80.427,191.13,81.075,190.599,81.587z M200.579,70.675 c0.732-1.088,0.83-2.38,1.053-3.63c0.079-0.439,0.343-0.671,0.138-1.042c-0.184-0.333-0.045-0.755,0.066-1.077 c0.223-0.646,1.211-0.277,0.991,0.365c-0.14,0.403,0.185,0.481,0.126,0.816c-0.041,0.218-0.082,0.422-0.147,0.635 c-0.169,0.561-0.203,1.131-0.319,1.703c-0.202,0.998-0.469,1.983-1.047,2.838C201.058,71.848,200.198,71.237,200.579,70.675z M166.231,93.085c0.492-0.47,1.16,0.348,0.67,0.814c-0.466,0.446-0.781,0.986-1.285,1.4l-1.605,1.32 c-0.526,0.432-1.196-0.382-0.67-0.816l1.604-1.32C165.443,94.075,165.768,93.528,166.231,93.085z M171.998,89.71l2.904-2.387 c0.743-0.612,1.018-1.371,1.652-2.044c0.467-0.493,1.129,0.328,0.67,0.816c-0.323,0.343-0.33,0.955-0.685,1.247l-3.872,3.184 C172.141,90.958,171.47,90.143,171.998,89.71z M210.703,57.038c0.573,1.586,0.654,3.244,0.889,4.9 c0.094,0.673-0.947,0.844-1.044,0.167c-0.22-1.557-0.27-3.145-0.808-4.638C209.511,56.832,210.472,56.396,210.703,57.038z M205.996,59.706c0.073,0.32,0.145,0.64,0.218,0.959c0.029,0.129,0.057,0.505,0.117,0.596c0.187,0.276,0.228,0.63,0.411,0.902 c0.378,0.557-0.434,1.233-0.814,0.67c-0.588-0.869-0.747-1.959-0.975-2.961C204.803,59.209,205.845,59.043,205.996,59.706z M210.902,49.766c-0.091,0.264,0.161,0.708,0.275,0.937c0.152,0.309,0.32,0.61,0.536,0.883c0.42,0.532-0.394,1.205-0.816,0.67 c-0.557-0.705-1.304-1.923-0.985-2.854C210.133,48.755,211.124,49.124,210.902,49.766z M200.274,57.033 c-0.125,1.282-0.076,2.879-1.091,3.831c-0.495,0.465-1.164-0.353-0.671-0.816c0.725-0.678,0.624-2.211,0.711-3.118 C199.29,56.252,200.34,56.354,200.274,57.033z M201.733,48.174c0.471,0.58,0.531,1.215,0.84,1.883 c0.172,0.37,0.335,0.755,0.384,1.165c0.045,0.383,0.025,0.882,0.234,1.22c0.355,0.569-0.456,1.247-0.815,0.669 c-0.465-0.749-0.293-1.6-0.654-2.378c-0.282-0.608-0.384-1.372-0.805-1.888C200.487,48.317,201.302,47.647,201.733,48.174z M193.559,55.574c-0.062-0.672,0.979-0.847,1.044-0.166c0.122,1.285,0.118,2.963-1.172,3.667c-0.597,0.327-1.025-0.639-0.428-0.963 C193.764,57.696,193.628,56.29,193.559,55.574z M176.865,68.624c-0.478,0.483-1.144-0.337-0.669-0.815 c0.284-0.288,0.345-0.914,0.574-1.279c0.254-0.403,0.507-0.807,0.76-1.211c0.294-0.465,0.465-0.865,0.781-1.241 c-0.134-0.476,0.538-0.936,0.919-0.474l0.166,0.204c0.184,0.225,0.149,0.56-0.071,0.743c-0.64,0.535-1.056,1.573-1.502,2.286 C177.433,67.456,177.398,68.084,176.865,68.624z M201.272,44.62c-0.132-0.182-0.274-0.354-0.424-0.52 c-0.234-0.258-0.483-0.502-0.707-0.767c-0.442-0.52,0.375-1.188,0.815-0.671c0.552,0.65,2.095,1.826,1.232,2.745 c-0.464,0.495-1.13-0.327-0.67-0.815C201.311,44.814,201.456,44.872,201.272,44.62z M193.859,48.157 c0.536-0.44,1.138,0.341,0.67,0.815c0.032-0.032-0.004,0.26-0.004,0.329c-0.005,0.181,0.001,0.373-0.039,0.552 c-0.085,0.383-0.219,0.668-0.509,0.94c-0.494,0.469-1.161-0.349-0.671-0.814c0.248-0.233,0.145-0.685,0.177-0.989 c0.004-0.033,0.016-0.057,0.022-0.088c-0.076-0.188-0.053-0.409,0.149-0.576L193.859,48.157z M189.239,54.832 c-0.1,0.759-0.489,1.439-0.588,2.192c-0.09,0.675-1.139,0.573-1.05-0.102c0.1-0.759,0.489-1.439,0.589-2.192 C188.278,54.055,189.329,54.157,189.239,54.832z M202.732,39.836c1.028,1.25,2.073,2.616,1.986,4.319 c-0.037,0.681-1.088,0.576-1.052-0.104c0.073-1.387-0.921-2.537-1.749-3.545C201.486,39.979,202.301,39.308,202.732,39.836z M195.024,43.585c-0.054,0.678-1.105,0.575-1.051-0.102c0.052-0.662,0.002-1.366-0.409-1.916c-0.405-0.544,0.407-1.217,0.816-0.67 C194.964,41.678,195.098,42.631,195.024,43.585z M177.601,55.814c0.509-2.227,2.146-3.887,3.843-5.306 c0.523-0.435,1.192,0.38,0.671,0.816c-1.57,1.311-3.053,2.797-3.523,4.852C178.44,56.841,177.452,56.465,177.601,55.814z M151.394,77.953c0.396,0.549-0.418,1.223-0.814,0.669c-0.259-0.356-0.375-0.723-0.273-1.159c0.059-0.249,0.254-0.469,0.301-0.714 c0.121-0.664,1.173-0.566,1.05,0.103C151.598,77.175,151.184,77.66,151.394,77.953z M195.039,35.971 c0.194-0.063,0.431,0.017,0.554,0.168c0.516,0.628,1.029,1.255,1.251,2.051c0.182,0.653-0.863,0.816-1.044,0.165 c-0.136-0.488-0.49-0.912-0.824-1.308c-0.211-0.014-0.413-0.105-0.57-0.274C193.999,36.336,194.578,35.77,195.039,35.971z M188.41,44.439c-0.509,0.453-1.178-0.364-0.67-0.815c0.55-0.492,0.35-1.18,0.398-1.837c0.049-0.681,1.1-0.576,1.051,0.102 c-0.03,0.427,0.056,0.88-0.042,1.299C189.031,43.703,188.806,44.084,188.41,44.439z M190.875,35.418 c0.304,0.52,0.122,1.388,0.066,1.955c-0.067,0.677-1.116,0.575-1.051-0.103c0.036-0.376,0.217-1.087,0.021-1.424 C189.569,35.261,190.536,34.836,190.875,35.418z M175.011,47.257c-0.331,0.304-0.512,0.732-0.851,1.042 c-0.502,0.461-1.169-0.357-0.67-0.815c0.332-0.304,0.513-0.732,0.851-1.042C174.843,45.981,175.511,46.799,175.011,47.257z M186.249,33.917l0.168,0.204c0.195,0.237,0.131,0.539-0.074,0.742c-0.136,0.134-0.117,0.569-0.17,0.748 c-0.102,0.351-0.284,0.621-0.549,0.869c-0.499,0.466-1.166-0.353-0.671-0.815c0.236-0.22,0.245-0.54,0.305-0.839 c0.026-0.129,0.071-0.238,0.121-0.345C185.119,33.978,185.844,33.425,186.249,33.917z M160.508,55.967 c0.059-0.467,0.212-0.926,0.432-1.341c0.126-0.239,0.342-0.405,0.471-0.628c0.121-0.208,0.189-0.426,0.354-0.607 c0.451-0.499,1.318,0.106,0.863,0.606c-0.161,0.18-0.196,0.434-0.355,0.609c-0.11,0.123-0.245,0.239-0.332,0.382 c-0.195,0.324-0.335,0.704-0.383,1.08C161.471,56.743,160.42,56.645,160.508,55.967z M179.858,39.855 c-0.743,0.632-1.331,1.416-2.074,2.047c-0.519,0.443-1.188-0.374-0.67-0.815c0.742-0.632,1.33-1.416,2.074-2.048 C179.706,38.598,180.375,39.415,179.858,39.855z M170.993,36.553c0.547-0.4,1.219,0.413,0.67,0.816 c-0.54,0.394-1.16,0.695-1.725,1.05c-0.233,0.145-0.494,0.221-0.733,0.352c-0.382,0.207-0.431,0.505-0.671,0.804 c-0.424,0.529-1.29-0.076-0.862-0.607c0.196-0.243,0.275-0.622,0.539-0.811c0.321-0.225,0.647-0.381,1-0.544 C169.783,37.347,170.48,36.929,170.993,36.553z M165.434,33.949c0.556-0.427,1.172-0.738,1.824-0.994 c0.418-0.164,0.952-0.329,1.33-0.573c0.563-0.366,1.241,0.445,0.67,0.816c-0.991,0.64-2.202,0.835-3.152,1.567 C165.567,35.18,164.896,34.365,165.434,33.949z M158.264,41.239c0.382-0.583,0.845-1.062,1.382-1.503 c0.172-0.142,0.276-0.475,0.438-0.65c0.179-0.198,0.386-0.367,0.59-0.537c0.525-0.435,1.195,0.381,0.67,0.814 c-0.192,0.161-0.592,0.401-0.653,0.66c-0.062,0.263-0.169,0.357-0.375,0.528c-0.464,0.389-0.855,0.788-1.19,1.295 C158.752,42.416,157.89,41.805,158.264,41.239z M153.068,48.379c-0.238-0.492,0.217-1.063,0.453-1.466 c0.122-0.207,0.184-0.482,0.319-0.67c0.151-0.217,0.495-0.338,0.553-0.622c0.136-0.659,1.186-0.565,1.051,0.102 c-0.1,0.485-0.377,0.824-0.733,1.136c-0.072,0.194-0.16,0.381-0.268,0.564c-0.099,0.164-0.199,0.326-0.29,0.495 c-0.118,0.215-0.012,0.253-0.121,0.031C154.328,48.561,153.364,48.991,153.068,48.379z M174.66,31.629 c-0.681-0.023-0.574-1.073,0.103-1.049c0.246,0.007,0.574-0.103,0.82-0.18c0.179-0.055,0.358-0.112,0.531-0.185 c0.031-0.012,0.271-0.135,0.193-0.079c0.554-0.388,1.228,0.424,0.67,0.815C176.379,31.369,175.387,31.654,174.66,31.629z M150.684,52.571c0.02-0.024,0.036-0.039,0.051-0.052c-0.126-0.517,0.705-0.838,1.004-0.293c0.259,0.465-0.026,0.861-0.385,1.161 C150.83,53.825,150.161,53.01,150.684,52.571z M160.837,45.614c0.112-0.133,0.103-0.381,0.241-0.54 c0.155-0.183,0.386-0.302,0.53-0.495c0.15-0.199,0.226-0.492,0.417-0.65c0.08-0.068,0.167-0.135,0.244-0.211 c0.009-0.016,0.009-0.006,0.016-0.016c-0.099-0.528,0.725-0.847,1-0.285c0.314,0.632-0.324,0.938-0.572,1.39 c-0.162,0.298-0.368,0.554-0.624,0.775c-0.19,0.16-0.133,0.115-0.217,0.342c-0.041,0.117-0.091,0.205-0.171,0.299 C161.26,46.734,160.392,46.128,160.837,45.614z M154.863,53.916c0.407-0.369,0.535-0.909,0.741-1.4 c0.133-0.323,0.307-0.607,0.509-0.873c-0.188-0.49,0.506-0.993,0.897-0.517l0.168,0.203c0.188,0.231,0.14,0.551-0.072,0.742 c-0.408,0.37-0.537,0.912-0.743,1.403c-0.201,0.482-0.441,0.904-0.829,1.257C155.03,55.192,154.362,54.374,154.863,53.916z M168.258,43.786c0.175-1.027,1.111-1.478,1.857-2.069c0.531-0.423,1.205,0.391,0.67,0.815c-0.433,0.343-1.374,0.756-1.478,1.356 C169.192,44.555,168.143,44.46,168.258,43.786z M177.344,36.798c0.404-0.353,0.681-0.795,1.051-1.174 c0.309-0.323,0.679-0.59,1.024-0.874c0.526-0.433,1.195,0.381,0.671,0.815c-0.34,0.279-0.75,0.54-1.026,0.882 c-0.332,0.409-0.65,0.817-1.049,1.166C177.5,38.061,176.831,37.244,177.344,36.798z M165.215,48.23 c0.073-0.162,0.194-0.242,0.318-0.359c0.063-0.059,0.089-0.088,0.1-0.105c-0.084-0.522,0.731-0.831,1.005-0.276 c0.23,0.465-0.088,0.898-0.434,1.197c-0.191,0.166-0.263,0.503-0.394,0.731c-0.18,0.311-0.386,0.574-0.65,0.816 c-0.502,0.459-1.171-0.357-0.671-0.814C164.84,49.096,165.027,48.657,165.215,48.23z M148.803,67.125 c0.328-0.359,0.121-0.742,0.248-1.16c0.141-0.461,0.286-0.922,0.394-1.391c0.221-0.952,0.289-1.928,0.382-2.9 c0.067-0.678,1.117-0.574,1.05,0.103c-0.102,1.061-0.179,2.126-0.442,3.162c-0.159,0.62-0.309,1.183-0.372,1.815 c-0.039,0.38-0.138,0.695-0.397,0.98C149.212,68.229,148.345,67.625,148.803,67.125z M154.423,63.322 c-0.21-0.367-0.062-0.962,0.021-1.348c0.062-0.288,0.119-0.676,0.27-0.974c-0.028-0.254,0.073-0.506,0.277-0.696 c0.437-0.408,1.003,0.17,0.802,0.631c0.046,0.144,0.026,0.348-0.072,0.451c-0.023,0.027-0.091,0.182-0.127,0.306 c-0.048,0.164-0.09,0.328-0.122,0.496c-0.033,0.174-0.063,0.348-0.076,0.523c-0.003,0.044-0.016,0.138-0.01,0.182 C155.723,63.484,154.754,63.911,154.423,63.322z M158.726,61.493c-0.272-0.523,0.045-1.157,0.422-1.534 c0.481-0.481,1.148,0.339,0.671,0.816c-0.047,0.047-0.16,0.231-0.129,0.288C160.004,61.666,159.039,62.093,158.726,61.493z M168.657,52.824c0.397-0.387,0.473-1.008,0.887-1.413c0.488-0.476,1.155,0.344,0.671,0.815c-0.398,0.39-0.474,1.009-0.888,1.413 C168.839,54.117,168.174,53.296,168.657,52.824z M182.204,42.71c0.904-0.818,1.178-1.909,1.65-2.974 c0.276-0.621,1.268-0.258,0.992,0.365c-0.299,0.671-0.45,1.377-0.847,1.993c-0.331,0.513-0.669,1.02-1.127,1.431 C182.368,43.981,181.702,43.163,182.204,42.71z M147.919,73.73c0.148-0.408-0.024-0.897,0.08-1.31 c-0.062-0.282,0.036-0.563,0.261-0.773c0.441-0.411,1.01,0.18,0.794,0.643c0.041,0.125,0.024,0.269-0.041,0.382 c0.002,0.009,0.003,0.029-0.004,0.08c0.004,0.064,0.009,0.129,0.012,0.194c0.008,0.127,0.018,0.256,0.018,0.385 c-0.001,0.265-0.039,0.513-0.13,0.762C148.675,74.734,147.685,74.367,147.919,73.73z M152.567,72.2 c-0.048-0.325,0.007-0.638,0.102-0.952c0.039-0.135,0.206-0.633,0.194-0.653c-0.156-0.242-0.169-0.545,0.073-0.743l0.203-0.166 c0.498-0.412,1.116,0.301,0.728,0.742c0.026,0.187,0.015,0.376-0.036,0.588c-0.08,0.323-0.27,0.684-0.221,1.019 C153.71,72.705,152.668,72.876,152.567,72.2z M163.37,64.371c0.253-0.24,0.542-0.438,0.73-0.737 c0.168-0.263,0.345-0.485,0.571-0.699c0.495-0.468,1.162,0.35,0.671,0.815c-0.366,0.344-0.565,0.797-0.956,1.129 c-0.368,0.311-0.716,0.639-0.796,1.137c-0.108,0.67-1.158,0.572-1.051-0.101C162.635,65.302,162.921,64.798,163.37,64.371z M146.443,82.907c0.044-0.558-0.033-1.146,0.115-1.692c0.133-0.487-0.016-0.983,0.009-1.485c0.033-0.681,1.084-0.576,1.05,0.102 c-0.022,0.448,0.194,1.019,0.03,1.45c-0.206,0.539-0.109,1.158-0.151,1.725C147.443,83.687,146.393,83.585,146.443,82.907z M157.197,75.256c0.448-0.719,1-1.63,0.941-2.513c-0.04-0.671,1-0.847,1.045-0.166c0.074,1.193-0.511,2.301-1.124,3.287 C157.7,76.443,156.839,75.832,157.197,75.256z M169.668,65.86c0.13-0.703,0.568-1.152,0.932-1.727 c0.449-0.707,0.637-1.642,1.214-2.263c0.455-0.491,1.324,0.11,0.863,0.607c-0.52,0.562-0.66,1.39-1.065,2.029 c-0.291,0.462-0.79,0.896-0.893,1.458C170.595,66.627,169.546,66.53,169.668,65.86z M181.368,57.065 c0.266-0.26,0.321-0.839,0.476-1.169c0.17-0.354,0.378-0.723,0.773-0.858c0.636-0.22,1.074,0.742,0.429,0.963 c-0.238,0.083-0.373,0.677-0.473,0.952c-0.13,0.345-0.269,0.667-0.534,0.927C181.551,58.353,180.883,57.535,181.368,57.065z M149.33,85.999c0.036-0.364,0.056-0.831,0.207-1.202c-0.26-0.504,0.467-1.057,0.871-0.567l0.166,0.205 c0.137,0.166,0.179,0.466,0.025,0.637c-0.211,0.24-0.189,0.728-0.218,1.03C150.313,86.781,149.264,86.678,149.33,85.999z M163.031,75.9c0.692-0.618,1.077-1.741,1.219-2.674l-0.018-0.023c-0.431-0.526,0.383-1.196,0.816-0.669 c0.473,0.577,0.187,1.301-0.038,1.955c-0.28,0.816-0.652,1.64-1.309,2.226C163.194,77.17,162.525,76.351,163.031,75.9z M147.083,91.405l-0.167-0.204c-0.182-0.222-0.15-0.559,0.073-0.742l0.035-0.028l0.052-0.527c0.066-0.677,1.117-0.574,1.05,0.103 c-0.032,0.331-0.051,0.606-0.158,0.853C148.194,91.361,147.483,91.891,147.083,91.405z M154.531,86.507 c0.058-0.45,0.176-0.958,0.405-1.381c-0.246-0.5,0.474-1.045,0.876-0.556l0.167,0.204c0.2,0.243,0.127,0.534-0.072,0.742 c-0.202,0.211-0.289,0.803-0.328,1.093C155.493,87.284,154.442,87.184,154.531,86.507z M160.115,82.739 c0.503-0.448,0.542-1.047,0.71-1.636c-0.399-0.523,0.398-1.172,0.824-0.652l0.168,0.203c0.116,0.141,0.156,0.348,0.088,0.518 c-0.156,0.391-0.174,0.821-0.321,1.213c-0.174,0.464-0.431,0.84-0.799,1.168C160.277,84.008,159.608,83.191,160.115,82.739z M183.95,65.19c0.452-0.41,0.523-1.158,0.827-1.68c0.343-0.591,1.201,0.023,0.863,0.606c-0.382,0.661-0.423,1.349-1.021,1.888 C184.115,66.465,183.446,65.644,183.95,65.19z M173.373,75.595c-0.794,0.801-1.405,2.386-1.828,3.45 c-0.511,1.281-1.052,2.525-1.371,3.873c-0.159,0.661-1.148,0.287-0.992-0.365c0.335-1.401,0.824-3.254,1.614-4.469 c0.705-1.09,0.975-2.365,1.907-3.303C173.182,74.296,173.848,75.116,173.373,75.595z M164.138,87.631 c0.168-0.138,0.421-0.285,0.458-0.517c0.104-0.672,1.157-0.572,1.05,0.103c-0.089,0.559-0.415,0.88-0.838,1.228 C164.282,88.881,163.612,88.064,164.138,87.631z M158.082,93.979c-0.507,0.457-1.174-0.362-0.669-0.816 c0.64-0.578,0.455-1.732,0.667-2.507c0.183-0.658,1.169-0.284,0.991,0.366C158.778,92.09,158.989,93.159,158.082,93.979z M152.108,93.236c0.018-0.244,0.065-0.443,0.212-0.645c0.397-0.552,1.26,0.057,0.862,0.607c-0.169,0.236,0.077,0.719-0.046,0.993 c-0.136,0.306-0.278,0.613-0.372,0.934c-0.184,0.637-0.238,1.193-0.689,1.715c-0.441,0.511-1.304-0.093-0.861-0.606 c0.448-0.521,0.448-1.247,0.697-1.86C152.083,93.959,152.074,93.669,152.108,93.236z M147.37,102.441 c-0.057-0.737,0.064-1.451,0.093-2.187c0.023-0.576-0.13-1.125-0.106-1.697c0.028-0.683,1.078-0.575,1.051,0.102 c-0.022,0.506,0.134,0.999,0.112,1.512c-0.026,0.701-0.161,1.401-0.107,2.105C148.462,102.949,147.42,103.124,147.37,102.441z M177.699,77.705c0.07-0.412,0.248-0.751,0.52-1.069c0.217-0.254,0.55-0.538,0.608-0.884c0.114-0.667,1.166-0.57,1.05,0.102 c-0.07,0.412-0.248,0.753-0.519,1.07c-0.217,0.253-0.549,0.536-0.607,0.883C178.635,78.474,177.585,78.377,177.699,77.705z M194.822,63.375c0.257-0.466,0.739-0.978,0.427-1.509c-0.344-0.584,0.623-1.009,0.963-0.43c0.313,0.53,0.203,1.276-0.088,1.793 c-0.123,0.22-0.261,0.43-0.384,0.653c-0.065,0.117-0.13,0.238-0.171,0.366c-0.052,0.156-0.001,0.146-0.091,0.002 c0.358,0.569-0.452,1.246-0.816,0.671C194.33,64.398,194.542,63.877,194.822,63.375z M188.163,71.975 c0.275-0.229,0.771-0.512,0.701-0.921c-0.035-0.206,0.105-0.323,0.13-0.497c0-0.024,0.012-0.044,0.017-0.066 c-0.31-0.512,0.442-1.102,0.856-0.6l0.165,0.206c0.14,0.167,0.175,0.463,0.024,0.638c-0.071,0.084-0.094,0.213-0.137,0.339 c0.032,0.756-0.521,1.25-1.086,1.716C188.307,73.224,187.637,72.408,188.163,71.975z M157.647,98.435 c0.21-0.193,0.36-0.432,0.527-0.66c-0.183-0.489,0.51-0.986,0.899-0.513l0.167,0.203c0.192,0.231,0.142,0.55-0.072,0.742 c-0.332,0.306-0.513,0.732-0.85,1.043C157.816,99.71,157.147,98.893,157.647,98.435z M155.182,102.078 c-0.634,1.573-1.266,3.133-1.957,4.684c-0.276,0.623-1.269,0.256-0.991-0.366c0.692-1.552,1.325-3.11,1.956-4.682 C154.444,101.082,155.434,101.448,155.182,102.078z M146.83,111.629c0.034-0.783-0.6-1.421-0.327-2.227 c0.222-0.648,1.209-0.278,0.991,0.363c-0.091,0.27,0.14,0.649,0.217,0.903c0.111,0.356,0.187,0.687,0.17,1.064 C147.853,112.414,146.802,112.309,146.83,111.629z M158.015,104.283c0.36-0.297,0.767-0.605,1.015-1.008 c0.16-0.261,0.189-0.573,0.388-0.804c0.439-0.512,1.307,0.093,0.862,0.608c-0.094,0.108-0.054,0.325-0.165,0.453 c-0.16,0.186-0.25,0.421-0.416,0.608c-0.312,0.351-0.652,0.66-1.013,0.959C158.159,105.532,157.488,104.717,158.015,104.283z M183.827,83.739c0.35-0.288,0.691-0.57,0.896-0.983c0.133-0.268,0.308-0.607,0.509-0.828c0.45-0.5,1.317,0.104,0.861,0.606 c-0.262,0.292-0.394,0.717-0.626,1.039c-0.274,0.38-0.611,0.686-0.968,0.982C183.973,84.987,183.302,84.173,183.827,83.739z M163.635,102.394l3.261-2.681c0.526-0.434,1.197,0.381,0.671,0.815l-3.261,2.681C163.779,103.642,163.11,102.826,163.635,102.394z M171.142,96.564l3.464-2.848c0.526-0.434,1.197,0.381,0.671,0.815l-3.464,2.848C171.286,97.812,170.615,96.997,171.142,96.564z M151.485,114.097c-0.649-0.213-0.278-1.202,0.366-0.993c0.274,0.091,1.042-0.842,1.281-1.049c0.518-0.443,1.185,0.372,0.67,0.816 C153.166,113.418,152.448,114.41,151.485,114.097z M179.815,90.793c-0.041-0.357,0.057-0.686,0.277-0.972 c0.186-0.238,0.461-0.489,0.584-0.783c-0.4-0.522,0.397-1.17,0.824-0.652c0.329,0.402,0.339,0.751,0.078,1.214 c-0.131,0.235-0.752,0.767-0.72,1.027C180.938,91.3,179.895,91.471,179.815,90.793z M159.977,109.162 c-0.49-0.47,0.33-1.136,0.815-0.671c-0.071-0.067,0.127-0.046,0.167-0.057c0.118-0.029,0.233-0.071,0.345-0.124 c0.169-0.082,0.322-0.17,0.472-0.286c0.537-0.416,1.209,0.399,0.67,0.815C161.768,109.365,160.695,109.851,159.977,109.162z M171.785,101.501c-0.526,0.432-1.196-0.384-0.671-0.815c0.416-0.341,1.036-0.695,1.35-1.128c0.184-0.255,0.299-0.528,0.522-0.751 c0.479-0.484,1.144,0.336,0.67,0.815c-0.256,0.257-0.345,0.626-0.649,0.873L171.785,101.501z M206.859,73.932 c-0.658,2.094-1.627,4.078-3.305,5.544c-0.513,0.449-1.18-0.368-0.669-0.815c1.535-1.344,2.38-3.18,2.983-5.094 C206.073,72.915,207.061,73.286,206.859,73.932z M168.198,107.525c0.547-0.398,1.222,0.414,0.669,0.815 c-0.703,0.511-1.656,0.402-2.337,0.897c-0.547,0.399-1.22-0.414-0.669-0.815C166.565,107.91,167.515,108.021,168.198,107.525z M191.434,87.368c-0.354,0.411-0.574,0.939-0.943,1.357c-0.438,0.498-0.957,0.913-1.466,1.332 c-0.526,0.433-1.196-0.383-0.671-0.816c0.485-0.398,1.014-0.789,1.41-1.278c0.307-0.38,0.497-0.843,0.81-1.203 C191.013,86.248,191.879,86.852,191.434,87.368z M156.659,118.179c-0.982-0.052-1.969,0.617-2.788-0.24 c-0.472-0.49,0.347-1.157,0.815-0.67c0.203,0.212,0.771,0.021,1.009-0.027c0.353-0.072,0.704-0.132,1.067-0.114 C157.442,117.167,157.337,118.218,156.659,118.179z M158.569,114.735c-0.626,0.26-1.059-0.704-0.429-0.963 c0.546-0.226,1.131-0.225,1.712-0.201c0.448,0.016,1.353,0.187,1.691-0.208c0.439-0.51,1.305,0.093,0.861,0.608 C161.376,115.173,159.822,114.219,158.569,114.735z M172.945,104.99c-0.547,0.402-1.219-0.412-0.671-0.816 c0.37-0.273,0.825-0.366,1.188-0.635c0.546-0.402,1.22,0.413,0.671,0.816C173.761,104.626,173.307,104.721,172.945,104.99z M182.155,97.756l-1.501,1.234c-0.526,0.433-1.197-0.381-0.671-0.815l1.929-1.587c0.141-0.398,0.402-0.667,0.758-0.963 c0.525-0.436,1.194,0.379,0.67,0.814c-0.302,0.251-0.346,0.478-0.552,0.772C182.636,97.427,182.356,97.592,182.155,97.756z M199.614,92.965c0.511-0.453,1.179,0.366,0.671,0.816c-0.525,0.467-0.905,1.121-1.463,1.546c-0.503,0.379-1.09,0.6-1.595,0.969 c-0.547,0.401-1.221-0.412-0.67-0.816c0.499-0.365,1.137-0.547,1.597-0.968C198.676,94.029,199.081,93.441,199.614,92.965z M206.784,86.728c-0.403,0.331-0.857,0.678-1.099,1.152c-0.305,0.601-1.297,0.24-0.99-0.366c0.283-0.559,0.699-1,1.18-1.404 c0.216-0.18,0.208-0.414,0.383-0.632c0.137-0.172,0.336-0.302,0.505-0.44c0.525-0.432,1.195,0.383,0.67,0.816 c-0.22,0.18-0.316,0.225-0.374,0.435C207.013,86.458,206.925,86.613,206.784,86.728z M183.141,106.171l-3.465,2.849 c-0.526,0.434-1.197-0.384-0.671-0.815l3.465-2.851C182.997,104.923,183.668,105.737,183.141,106.171z M217.766,73.602 c0.19,1.616-0.606,2.97-1.001,4.483c-0.173,0.661-1.16,0.287-0.992-0.365c0.345-1.31,1.113-2.553,0.949-3.951 C216.642,73.095,217.684,72.924,217.766,73.602z M198.499,85.678c-0.022-0.669,1.018-0.847,1.043-0.167 c0.049,1.373-1.166,2.321-2.128,3.115c-0.526,0.435-1.196-0.381-0.671-0.815C197.317,87.336,198.531,86.531,198.499,85.678z M213.24,74.045c-0.095,0.915-0.974,1.453-1.362,2.252c-0.296,0.608-1.287,0.246-0.991-0.365c0.197-0.407,0.457-0.743,0.728-1.098 c0.15-0.196,0.293-0.396,0.429-0.605c0.053-0.067,0.114-0.126,0.182-0.175c-0.077,0.089-0.089,0.053-0.037-0.111 C212.257,73.265,213.309,73.367,213.24,74.045z M163.145,117.805c-1.143,0.493-2.276,0.051-3.44-0.077 c-0.677-0.077-0.577-1.127,0.101-1.051c0.934,0.103,1.998,0.558,2.909,0.166C163.339,116.573,163.772,117.536,163.145,117.805z M167.173,114.175c-0.545,0.401-1.219-0.411-0.67-0.815c0.371-0.273,0.824-0.367,1.187-0.636c0.546-0.401,1.219,0.414,0.671,0.816 C167.991,113.814,167.538,113.908,167.173,114.175z M175.735,107.136c-0.536,0.418-1.208-0.396-0.669-0.816 c0.564-0.438,1.235-0.699,1.798-1.136c0.538-0.418,1.208,0.398,0.669,0.815C176.968,106.437,176.298,106.698,175.735,107.136z M186.225,99.535c-0.526,0.432-1.196-0.383-0.67-0.816l3.464-2.847c0.526-0.434,1.197,0.381,0.671,0.815L186.225,99.535z M193.709,92.014c0.331-0.304,0.511-0.732,0.85-1.041c0.503-0.461,1.172,0.356,0.671,0.815c-0.333,0.303-0.513,0.73-0.852,1.042 C193.877,93.29,193.208,92.473,193.709,92.014z M173.814,111.449c-0.547,0.4-1.221-0.415-0.67-0.814 c0.255-0.189,0.49-0.279,0.79-0.359c0.292-0.08,0.352-0.506,0.54-0.713c0.452-0.499,1.318,0.105,0.862,0.608 c-0.265,0.293-0.327,0.656-0.666,0.904C174.407,111.267,174.069,111.261,173.814,111.449z M171.024,116.414 c-0.284,0.095-0.604,0.273-0.907,0.267c-0.32-0.006-0.612,0.05-0.885,0.219c-0.577,0.356-1-0.612-0.428-0.964 c0.485-0.3,1.044-0.238,1.565-0.41c0.68-0.225,1.421-0.411,2.005-0.843c0.545-0.403,1.218,0.411,0.67,0.818 C172.435,115.949,171.735,116.179,171.024,116.414z M176.762,113.374c-0.529,0.138-0.802-0.616-0.42-0.929l0.205-0.168 c0.15-0.123,0.305-0.14,0.448-0.098c0.95-0.362,1.757-1.034,2.537-1.675c0.527-0.43,1.197,0.385,0.67,0.817 C179.15,112.184,178.099,113.022,176.762,113.374z M184.096,108.465c-0.65-0.212-0.279-1.202,0.364-0.991 c-0.028-0.009-0.046-0.014-0.055-0.016c0.016,0.003,0.05,0.005,0.088-0.013c0.08-0.038,0.159-0.073,0.23-0.125 c0.193-0.134,0.379-0.278,0.557-0.435c0.294-0.261,0.57-0.541,0.869-0.796c0.519-0.441,1.189,0.376,0.669,0.815 C186.122,107.497,185.148,108.804,184.096,108.465z M192.468,103.626c-0.21,0.172-0.401,0.338-0.658,0.427 c-0.183,0.065-0.363,0.083-0.532,0.185c-0.582,0.35-1.005-0.617-0.43-0.963c0.204-0.123,0.47-0.112,0.664-0.231 c0.194-0.117,0.371-0.303,0.546-0.447l0.875-0.721c0.526-0.432,1.198,0.383,0.671,0.816L192.468,103.626z M203.052,94.238 c0.631-0.521,1.228-1.047,1.749-1.67c-0.178-0.487,0.512-0.983,0.901-0.51l0.168,0.203c0.144,0.176,0.166,0.453,0.023,0.639 c-0.625,0.825-1.374,1.497-2.17,2.154C203.196,95.485,202.527,94.671,203.052,94.238z"/>
        <path id="four" style="opacity:0.7;fill:#8CAF3E;" d="M202.455,201.686c0.351,1.084,0.665,2.111,0.998,3.106l0,0 c-0.626-0.123-1.297,0.143-1.548,0.905l-0.164,0.492c-0.661-0.251-1.494-0.054-1.762,0.833c-0.853,2.724-4.447-0.892-6.177-2.585 c-0.006-0.005-0.009-0.006-0.012-0.01c-0.023-0.425-0.208-0.837-0.591-1.095c-12.894-8.786-11.784-28.522-19.336-41.068 c0.032,0.025,0.067,0.052,0.099,0.076c5.641,4.22,11.626,8.138,17.729,11.833c2.697,3.065,5.586,11.894,6.332,15.654 C198.8,193.742,201.224,197.867,202.455,201.686z M178.839,186.256c-3.126-9.668-5.101-24.767-15.162-29.974 c-0.569-0.293-0.723-0.776-0.631-1.239c-3.192-1.78-6.525-3.246-9.908-4.021c1.881,1.25,3.16,3.392,4.021,5.422 c2.003,4.692,1.849,10.277,3.089,15.183c1.56,6.184,4.88,11.168,7.007,17c0.001,0.001,0.001,0.001,0.002,0.003 c0,0,0.014,0.007,0.009,0.022c0.665,0.622,1.355,1.445,2.219,2.444c3.043,3.588,6.919,5.326,9.765,9.199 c0.171,0.236,0.265,0.49,0.283,0.744c1.502,0.608,3.01,1.203,4.165,2.226c1.626,1.433,3.185,1.645,4.431-0.045 c0.08-0.102,0.149-0.181,0.231-0.256C183.784,198.479,180.774,192.239,178.839,186.256z M238.393,204.797 c-0.516-0.94-1.264-1.486-1.775-2.312l-0.04-0.011c-0.788-0.354-0.998-1.151-0.81-1.801c-5.768-3.63-11.553-7.39-17.398-11.01 c1.09,2.09,1.653,4.365,2.626,6.507c1.434,3.166,2.753,9.054,5.75,11.293c0.008-0.002,0.015-0.003,0.024-0.002 c0.056,0.006,0.108,0.027,0.161,0.041c2.416,0.718,4.646,2.118,6.577,3.698c0.259,0.204,6.191,5.023,6.252,3.874 c0.064-1.255,1.147-1.663,2.206-1.725c-0.538-1.231-1.044-2.499-1.516-3.756C239.835,207.936,239.235,206.356,238.393,204.797z M224.336,209.101c-2.425-2.329-3.922-6.544-4.928-9.385c-0.851-2.407-1.731-4.953-2.788-7.283 c-1.019-2.253-2.651-4.077-4.047-6.102c-0.061-0.091-0.113-0.182-0.147-0.269c-2.299-1.365-4.609-2.696-6.934-3.972 c-3.03-1.654-6.061-3.363-9.081-5.118c1.213,3.026,2.087,6.362,3.607,8.53c0.877,1.246,0.909,4.06,1.452,5.412 c0.789,1.976,1.602,3.95,2.309,5.961c1.401,3.988,2.177,8.331,4.475,11.892c2.081,0.903,4.402,0.775,6.102-1.025 c0.362-0.369,0.916-0.392,1.385-0.281C219.389,208.372,221.138,211.966,224.336,209.101z M223.43,146.879 c-0.049,0.011-0.079,0.039-0.129,0.047c-5.039,0.811-10.363-0.696-15.477-0.266c-6.525,0.547-13.529-0.319-19.927,1.395 c-5.926,1.586-12.173,3.41-17.954,5.446c-1.053,0.37-2.067,0.538-3.058,0.57c2.854,1.549,5.523,3.46,8.155,5.42 c0.25-0.09,0.522-0.138,0.832-0.065c7.274,1.726,15.976-2.09,23.302-2.993c5.78-0.706,11.036-0.847,16.814-0.659 c5.116,0.169,10.098,0.646,15.169,1.326c2.847,0.382,5.431,0.359,7.691,1.762c0.001-0.001,0.001-0.001,0.005,0 c0.154-0.023,0.297-0.006,0.443,0.045c3.401,1.095-2.916-2.132-3.692-2.66c-0.733-0.512-1.087-0.777-1.428-1.19 c-1.027,0.013-2.022-1.074-1.227-2.128c0.284-0.366,0.49-0.669,0.844-0.92c-0.117-0.055-0.234-0.108-0.386-0.191 c-1.151-0.591-2.362-0.996-3.524-1.546c-2.217-1.054-4.436-2.035-6.448-3.39L223.43,146.879z M163.483,187.085 c-1.367-2.691-2.989-5.24-3.982-8.128c-1.692-4.919-2.655-9.863-3.502-14.983c-0.413-2.5-0.677-5.618-2.011-7.818 c-1.899-3.127-6.897-4.15-10.345-4.104c-1.314,0.019-1.809,0.086-2.965-0.005c-0.049-0.003-0.081-0.03-0.128-0.037 c-0.267,0.119-0.533,0.204-0.798,0.336c-0.248,0.123-0.482,0.147-0.707,0.135c0,0.005-0.004,0.008-0.007,0.01 c-2.825,4.464-1.795,11.882,0.061,16.7c0.986-1.006,1.95-1.75,3.467-2.252c0.432-0.135,1.099,0.087,1.345,0.451 c2.012,2.897,2.88,6.55,4.881,9.475c3.112-5.273,11.08,10.84,12.525,10.507c0.831-0.183,1.532-0.289,2.156-0.288 C163.478,187.086,163.478,187.086,163.483,187.085z M177.335,139.016c-9.318,2.372-18.221,5.767-27.296,8.643 c-0.016,0.007-0.036,0.012-0.052,0.017c2.663,0.313,5.275,1.135,7.963,2.228c0.318-0.405,0.842-0.64,1.48-0.427 c3.976,1.332,6.671,2.54,11.003,0.891c1.888-0.718,3.664-1.087,5.635-1.543c4.666-1.082,9.084-3.643,13.927-3.967 c6.488-0.441,13.062-0.605,19.543-1.145c3.78-0.316,7.724,0.79,11.52,0.622l0,0c-0.007-0.342,0.101-0.662,0.336-0.923 c-0.698-0.176-1.297-0.331-1.49-0.381c-0.494-0.151-0.768-0.479-0.881-0.857c-6.972-2.334-14.494-2.862-21.776-3.461 C190.704,138.184,183.765,137.389,177.335,139.016z M221.442,158.809c-5.611-0.252-11.218-0.813-16.823-0.192 c-6.346,0.705-12.391,1.793-18.6,3.202c-2.348,0.537-4.515,0.857-6.725,0.819c0.854,0.615,1.71,1.221,2.58,1.797 c2.656,1.762,5.352,3.483,8.063,5.183c0.417-0.467,1.109-0.732,1.821-0.373c0.122,0.063,0.247,0.122,0.37,0.184 c0.382,0.193,0.695,0.824,0.619,1.243c0.087-0.478,17.234-2.07,19.04-2.18c5.334-0.326,10.562-0.128,15.86,0.569 c6.321,0.829,12.949,2.706,19.229,4.413c0.001-0.003-0.002-0.006-0.002-0.009c0.026-0.659,0.292-1.266,0.894-1.79 c1.005-0.865-5.969-5.186-6.741-5.813c-1.349-1.104-2.38-2.461-3.055-3.989c-0.003-0.009-0.007-0.021-0.009-0.032 c-0.259-0.163-0.454-0.366-0.545-0.616C233.872,158.869,225.152,158.978,221.442,158.809z M257.39,215.917 c0.789,0.025,3.461,0.238,6.108,0.514c0.005,0.001,0.008,0,0.011,0.003c-3.628-2.065-7.148-4.339-10.99-6.09 c-3.939-1.792-7.536-3.922-11.139-6.154c0.001,0.001-0.001,0.003,0.003,0.008c0.169,0.339,0.318,0.687,0.455,1.028 c0.767,1.962,1.565,3.919,2.283,5.893c0.238,0.615,0.671,1.99,1.203,2.968c0.897,0.373,1.803,0.808,2.578,1.07 C251.207,216.262,254.073,215.796,257.39,215.917z M268.127,215.755c-4.286-5.461-9.325-11.9-11.44-18.377 c-7.246-2.099-14.667-0.007-22.015-0.677c6.199,3.831,12.065,7.965,18.74,10.977C258.533,209.991,263.132,213.301,268.127,215.755z M231.258,193.282c8.488,2.359,17.123-0.935,25.634,1.233c0.002-0.003,0.004-0.007,0.008-0.009 c2.116-1.858,2.103-1.268-0.139-3.931c-0.243-0.288-0.482-0.589-0.692-0.883c-0.012-0.016-0.021-0.027-0.031-0.041 c-0.107-0.012-0.208-0.004-0.324-0.048c-7.63-2.791-16.339-4.823-24.487-4.339c-3.953,0.23-8.053,0.888-12.004,0.477 c-1.073-0.112-2.296-0.339-3.533-0.542c4.716,2.827,9.421,5.669,14.119,8.532C230.136,193.343,230.638,193.108,231.258,193.282z M255.227,183.597c-1.931-1.711-5.188-4.344-7.018-6.853l0.002-0.002c-7.897-2.095-16.537-4.497-24.617-5.296 c-7.132-0.71-14.15-0.019-21.222,0.986c-2.381,0.34-4.611,0.659-6.853,0.619c1.064,0.649,2.121,1.314,3.191,1.956 c3.931,2.374,7.871,4.735,11.81,7.095c0.004,0.001,0.006-0.001,0.009,0.001c2.326-0.228,4.398,0.368,6.704,0.61 c4.786,0.494,9.359-0.15,14.144-0.257c7.773-0.178,15.259,1.158,22.583,3.568c0,0-0.005-0.003-0.002-0.005l-0.009-0.02 c-0.222-0.574-0.181-1.277,0.33-1.696C254.698,183.986,254.984,183.755,255.227,183.597z M48.456,136.102 c-0.642,1.466,0.971,1.609-1.918,2.776c-0.591,0.232-0.935,0.678-1.293,1.172c-0.677,0.897-0.222,2.073,0.115,2.988 c0.995,2.675-1.924,1.717-2.489,2.884c-0.127,0.263-0.364,0.599-0.355,0.928c0.109,2.384-1.154,5.245-4.118,4.489 c-1.439-0.37-2.471,0.085-3.686,0.816c-1.772,1.066-3.791,0.822-5.481-0.158c0.047-0.332-0.115-0.664-0.551-0.705 c-2.945-0.246-4.347-1.48-5.675-4.022c-0.139-0.266-0.551-0.383-0.83-0.282c-2.247,0.865-1.953-2.893-3.652-3.382 c-2.145-0.623-3.001-4.997-4.499-6.895c-1.815-2.298-1.506-4.498-1.074-7.018c0.14-0.831-0.119-1.392-0.434-2.112 c-0.478-1.068-1.594-1.892-2.08-2.951c-0.41-0.911-0.146-2.535-0.062-3.729c0.006-0.02,0.016-0.04,0.025-0.058 c1.048-3.264-2.603-5.644-0.192-8.628c0.395-0.495,1.114-1.462,1.191-2.12c0.214-1.873-0.762-4.681,1.023-6.031 c1.06-0.799,2.298-1.295,3.355-2.132c1.032-0.796,1.794-1.993,2.657-2.949c1.699-1.857,4.09-2.031,6.375-2.559 c2.685-0.628,4.654-2.234,7.454-0.523c0.108,0.06,0.203,0.101,0.299,0.096c0.002,0,0.005,0,0.007,0 c0.597,0.343,1.161,0.486,1.914,0.485c0.816-0.001,1.553-0.415,2.385-0.1c0.983,0.373,1.107,1.368,1.308,2.234 c0.173,0.755,0.858,1.158,1.48,1.496c0.597,0.323,1.806,0.89,1.169,1.805c-0.195,0.283-0.311,0.453-0.405,0.785 c-0.045,0.155-0.008,0.317,0.063,0.458c-0.033,0.255,0.075,0.514,0.394,0.647c0.506,0.21,1.591,0.485,1.625,1.085 c0.046,0.807,0.328,1.06,0.899,1.537c2.662,2.222-0.363,1.698-0.575,3.652c-0.094,0.863-0.599,1.014-1.229,0.991 c-0.158-0.026-0.315-0.055-0.473-0.077c-0.094-0.013-0.176,0-0.256,0.016c-0.677-0.073-1.374-0.122-1.822,0.381 c-0.53,0.595-0.509,1.024-0.509,1.765c0,0.399,1.326,2.812,1.412,3.303c-0.367,0.012-0.727,0.262-0.7,0.734l0.007,0.119 c0.021,0.359,0.314,0.634,0.663,0.664c-0.099,1.261,0.47,2.384,0.553,3.825c0.139,2.423-2.617,1.21-2.92,2.975 c-0.115,0.666-0.132,0.779,0.124,1.398c0.998,2.415-1.415,2.816-2.773,3.767c-1.077,0.756-1.525,1.469-1.096,2.75 c0.02,0.055,0.05,0.09,0.079,0.134c0.356,1.021,1.148,1.558,2.09,2.118c2.002,1.189,0.509,2.145,1.193,3.554 c0.593,1.218,2.246,0.485,0.01,3.738c-0.28,0.405-1.047,0.732-1.097,1.295c-0.121,1.393,1.87,3.807-0.174,4.47 c-0.88,0.285-0.421,1.647,0.461,1.36c1.244-0.402,2.464-1.83,2.383-3.229c-0.032-0.551-1.38-2.031-0.968-2.51 c0.602-0.701,1.115-1.205,1.381-2.125c0.567-1.954-0.85-3.109-0.114-4.82c0.134-0.312,0.167-0.589,0.129-0.845 c2.668-1.09,5.038-3.04,8.028-3.264c1.044-0.077,2.378-0.659,3.372-0.998c1.724-0.587,3.833-0.635,5.687-0.533 c0.249,0.16,0.596,0.151,0.842-0.011c0.002,0,0.003,0.001,0.006,0.004c1.219,0.656,2.422,1.334,3.614,2.04 c-1.991,0.55-4.076,1.586-5.305,0.108c-0.223-0.272-0.496-0.38-0.83-0.284c-1.34,0.351-2.139,1.417-3.676,1.497 C49.636,134.446,48.949,134.978,48.456,136.102z M24.975,141.796c-0.036,0.043-0.076,0.083-0.112,0.126 c-0.228,0.251-0.512,0.279-0.754,0.186c-2.153,0.302-5.232-0.768-5.178-3.417c0.021-1.101,0.099-0.994,0.214-2 c0.078-0.681-1.43-1.669-2.004-2.092c-0.571-0.423-1.017-1.551-0.867-2.24c0.545-2.526,3.507-6.455,1.32-8.867 c-0.957-1.058-1.916-2.37-2.234-3.796c-0.647-2.872,0.332-5.02,2.642-6.82c0.732-0.572,1.522,0.632,0.795,1.196 c-6.207,4.838,3.135,8.391,0.73,13.695c-0.915,2.017-3.047,4.811-0.161,6.623c0.283,0.179,0.63,0.368,0.805,0.661 c1.02,1.703,0.002,6.72,4.038,5.584C24.883,140.447,25.475,141.239,24.975,141.796z M31.447,116.018 c0.726,1.231,1.176,2.243,0.706,3.647c-0.832,2.493-4.291,2.501-1.919,6.005c0.8,1.184,1.889,2.611,1.51,4.172 c-0.547,2.258-2.406,4.613-4.713,2.837c-0.736-0.565,0.226-1.632,0.957-1.073c2.054-1.916,2.402-3.629,1.048-5.14 c-0.182-0.287-0.365-0.575-0.546-0.863c-0.19-0.361-0.374-0.724-0.553-1.09c-0.354-1.028-0.33-0.959-0.118-2.054 c0.559-2.887,4.626-2.106,1.967-6.394c-0.87-1.402-0.617-2.71,0.045-4.12c0.393-0.836,1.232-1.599,1.81-2.31 c2.265-2.779,1.117-5.506-2.492-6.162c-0.91-0.165-0.608-1.569,0.302-1.404c2.522,0.457,6.319,2.93,4.858,6.055 C33.183,110.533,29.579,112.847,31.447,116.018z M64.37,121.87c1.122,0.719,2.211,1.506,3.344,2.183 c0.036,0.021,0.071,0.036,0.108,0.058c-2.433-4.851-4.289-11.07-9.179-13.77c-0.149-0.082-0.236-0.199-0.294-0.323 c-1.077,0.528-2.245,0.698-3.79-0.167c-1.677-0.938-2.719,0.392-4.248,0.184c-0.989-0.133-3.023-1.575-4.189-1.595 c-0.139,0.568-0.416,1.084-0.819,1.35c-0.1,0.068-0.193,0.139-0.281,0.215c4.374,0.907,9.059,2.34,12.91,4.535 C60.979,116.276,62.87,118.723,64.37,121.87z M73.32,140.986c-0.991-0.794-2.045-1.536-3.179-2.217 c-2.447-1.467-4.957-3.034-7.511-4.569l-0.123,0.008c-1.429-0.012-3.762,0.5-4.72,1.576c-0.248,0.281-0.9,0.637-1.321,0.549 c-0.748-0.164-1.005-0.529-1.451-1.089c-0.561-0.715-0.76-0.553-1.164-0.18c0.072,0.101,0.116,0.221,0.123,0.352 c0.056,2.115,0.802,3.745,3.376,3.815c0.693,0.018,0.977,0.038,1.646,0.169c0.621,0.107,1.394,0.754,1.609,1.325 c1.466,3.821,5.237,1.042,7.444,0.12C70.181,139.968,70.935,142.72,73.32,140.986z M114.975,154.348 c0-0.005-0.001-0.012,0.002-0.02c-0.116-0.023-0.229-0.069-0.34-0.174c-0.958-0.923-5.449,0.142-6.446,0.617 c-1.944,0.929-2.559,2.644-4.182,3.827c-1.08,0.79-2.851,0.424-4.047,0.571c-0.477,0.059-9.232,2.484-6.436,4.419 c0.181,0.127,0.26,0.282,0.272,0.44c0.002,0.002,0.003,0.004,0.006,0.005c1.356,0.735,3.055,1.167,4.272,0.644 c0.608-0.264,1.288-0.623,1.952-0.728c2.594-0.414,4.776-0.427,6.624-2.677c1.174-1.43,2.12-2.731,3.783-3.582 C112.353,156.709,113.868,156.255,114.975,154.348z M117.124,94.841c-0.71,1.657-1.87,3.16-2.696,4.768 c-0.335,0.398-0.643,0.821-0.754,1.356c-0.03,0.266-0.024,0.531,0.019,0.792c0.042,0.727-1.223,1.932-1.951,1.068 c-0.386-0.451-1.158-0.417-1.301,0.245c-0.247,1.14-2.759,2.984-3.775,1.249c-0.104-0.174-0.241-0.271-0.387-0.311 c-0.335-3.212-0.317-6.532,0.615-9.22c0.002-0.004,0.003-0.008,0.006-0.012c0.972-0.034,1.94-0.469,2.752-1.273 c0.459-0.452,0.02-1.229-0.578-1.195l-0.12,0.007c-0.29,0.017-0.471,0.175-0.569,0.377c-0.4,0.296-0.872,0.351-1.383,0.259 c-0.003,0-0.005-0.003-0.006-0.004c-0.147-0.105-0.331-0.151-0.499-0.131c-0.003,0-0.004,0.003-0.008,0.003 c-1.836-0.625-4.033-2.751-5.386-3.205c-0.816-0.274-1.662,0.051-2.411,0.314c-2.508,0.883-1.485-0.486-2.046-1.346 c-0.48-0.737-1.38-1.75-2.402-1.51c-1.789,0.424-5.584,3.128-6.821,0.32c0.001-0.028,0.013-0.049,0.011-0.078l-0.007-0.118 c-0.022-0.392-0.367-0.698-0.759-0.676l-0.12,0.007c-0.476,0.028-0.774,0.502-0.639,0.949c0.638,2.096,2.13,2.527,4.194,2.445 c1.057-0.041,2.028-0.274,2.959-0.747c2.131-1.086,2.082,0.94,2.831,2.067c0.229,0.342,0.873,0.608,1.276,0.553 c2.5-0.337,4.798-0.434,6.785,1.68c0.468,0.495,0.984,0.833,1.521,1.047c-0.002,0.003-0.004,0.007-0.004,0.01 c-1.13,3.505-0.581,7.301-0.203,10.955c0.588,5.582,1.46,11.231,2.598,16.741c0.563,2.738,1.136,5.444,1.596,8.206 c0.442,2.613-0.095,5.423,0.173,8.091c0.258,2.547,1.015,4.848,2.057,7.178c1.02,2.295,2.857,4.458,3.253,6.939 c0,0.003,0,0.003,0,0.004c-1.533-0.732-3.813-0.022-5.342,0.283c-3.906,0.78-5.679,4.724-9.723,4.81 c-1.44,0.03-6.493,1.801-8.044,3.929c0-0.002,0-0.002-0.002-0.003c-2.523-4.089-5.764-7.844-8.574-11.691 c-3.078-4.217-6.094-8.352-10.523-11.246c-3.103-2.031-6.337-3.869-9.588-5.667c-0.104-0.154-0.28-0.259-0.508-0.283 c-2-1.105-4-2.199-5.983-3.314c-4.728-2.658-9.541-4.839-14.886-5.723c-0.002-0.001-0.006-0.001-0.009-0.001 c0.657-1.763-0.835-4.908-0.315-6.186c0.174-0.42-0.054-0.794-0.369-0.959c0.101-0.497,0.078-0.975-0.065-1.608 c-0.243-1.066-1.638-2.401,0.684-2.23c0.301,0.023,0.557,0.01,0.779-0.028c4.047,1.014,8.088,3.588,11.594,5.543 c1.74,0.971,3.338,2.2,5.238,2.854c2.589,0.892,4.483,2.354,6.8,3.695c3.317,1.92,6.537,3.2,10.22,4.309 c1.937,0.585,4.282,1.271,6.603,2.145c0.035,0.092,0.085,0.181,0.111,0.271c0.181,0.597,0.844,0.579,1.186,0.237 c2.844,1.172,5.524,2.654,7.203,4.614c0.595,0.692,1.803-0.093,1.197-0.796c-2.326-2.71-5.323-3.826-8.438-5.051 c-0.673-1.469-2.243-3.144-3.131-4.24c-1.851-2.285-3.421-5.208-4.886-7.759c-1.593-2.772-3.551-5.304-5.198-8.041 c-1.236-2.056-2.496-4.099-4.09-5.891c0.909-0.681,1.86-1.261,2.427-2.339c1.666-3.163-3.072-3.778-4.461-4.975 c-0.816-2.198,1.27-1.59,2.004-1.512c0.396,0.044,0.755-0.142,0.853-0.552c0.321-1.336,1.78,0.191,2.893,0.338 c1.115,0.146,2.714-0.005,3.3-1.151c1.215-2.377,3.703-0.711,5.438-0.552c0.698,0.063,1.332-0.238,1.765-0.734 c1.224,7.256,4.224,13.811,6.559,20.747c1.877,5.571,4.655,11.867,10.392,14.347c0.577,0.251,1.051-0.259,1.04-0.725 c1.263-0.766,1.199-1.954,1.176-3.382c-0.059-3.539-0.751-7.314-1.275-10.811c-1.003-6.708-1.79-14.064-4.782-20.221 c-0.398-0.822-1.767-0.372-1.362,0.461c0.323,0.661,0.608,1.332,0.872,2.01c-1.006,0.084-1.561,1.553-1.893,2.455 c-0.811,2.204-2.704,0.756-4.213,0.921c-1.119,0.124-1.415,2.715-2.872,1.695c-0.111-0.077-0.225-0.111-0.34-0.126 c-0.821-2.56-1.519-5.157-1.949-7.87c-0.071-0.448-0.458-0.654-0.813-0.641c0.027-0.165,0.037-0.336,0.027-0.512 c0.053,0.924,1.487,0.842,1.434-0.082c-0.054-0.946-1.35-1.356-2.091-0.862c-1.449,0.964-1.781,2.933-4.004,1.003 c-0.455-0.396-1.278-0.873-1.919-0.616c-0.755,0.304-1.476,0.512-1.856,1.336c-1.158,2.503-2.795,1.602-4.924,0.448 c-1.209-0.656-1.656,0.695-1.877,1.634c-2.325-0.025-4.1,1.139-2.696,3.999c0.119,0.242,0.324,0.362,0.539,0.406 c0.349,0.314,0.705,0.565,1.228,0.714c1.449,0.153,2.022,1.191,1.721,3.114c-0.466,0.345-1.052,0.49-1.495,0.876 c-0.593-0.401-1.306,0.343-0.987,0.943c-0.911,0.878-1.781,1.587-3.334,1.838c-0.862,0.14-1.533,0.836-2.149,1.391 c-3.575,3.22-4.695-1.148-7.589,0.45c-2.442,1.348-3.629-1.439-5.597-1.228c-0.093-0.271-0.226-0.515-0.43-0.689 c-0.806-0.694-1.287-1.042-1.651-2.131c-0.378-1.127-1.099-1.062-2.057-1.354c0.26-0.622,0.651-1.126,0.356-1.931 c-0.443-1.206-1.245-1.51-2.311-2.086c-0.699-0.379-0.466-1.331-0.831-1.942c-0.314-0.522-0.689-1.036-1.219-1.36 c-0.468-0.286-1.098-0.633-1.681-0.566c-0.969,0.11-2.162,0.559-3.067-0.067c-0.106-0.074-0.217-0.11-0.328-0.127 c-0.005,0-0.007-0.003-0.01-0.005c-0.01-0.008-0.01-0.018-0.019-0.007c-3.66-2.172-6.994,0.307-10.788,0.932 c-0.739,0.117-1.389,0.334-1.976,0.633c-0.033-0.065-0.074-0.129-0.125-0.182c-2.579-2.783-0.709-3.796,0.143-5.735 c0.719-1.64-1.822-1.948,0.896-4.004c2.219-1.676,1.329-5.491,3.949-6.626c2.719-1.176,3.478-4.604,6.379-5.422 c2.019-0.559,3.677-1.78,5.842-1.8c1.152-0.02,1.829-0.398,2.704-1.139c0.163-0.132,0.237-0.296,0.256-0.468 c1.296-1.484,2.252-3.9,3.836-4.635c1.418-0.648,3.527-0.475,4.34-2.119c1.852-3.756,4.146-2.376,7.282-3.227 c3.386-0.933,3.689-4.709,8.071-4.283c0.171,0.02,0.311-0.017,0.439-0.08c0.126,0.048,0.269,0.061,0.429,0.031 c2.971-0.586,6.079,0.21,8.931-0.965c0.942-0.386,1.825-0.984,2.733-1.463c2.69-1.393,5.466-1.267,8.307-0.523 c4.557,1.193,8.58,5.054,9.468,9.689c0.501,2.608-1.151,4.783,1.217,6.671c0.117,0.087,0.234,0.138,0.357,0.158l0.012,0 c1.741,1.338,3.254,1.686,5.586,1.674c2.825-0.021,4.029,2.642,5.843,4.134c1.07,0.876,2.577,1.27,3.829,1.823 c3.849,1.706,2.664,6.254,4.434,9.263C116.793,89.596,118.622,91.345,117.124,94.841z M88.891,128.927 c-0.962-2.094-3.073-3.974-4.289-5.991c-1.393-2.309-2.548-4.675-3.632-7.14c-1.445-3.28-2.942-6.547-4.292-9.868 c-1.073-2.638-1.752-5.482-3.008-8.035c-0.407-0.833,0.96-1.279,1.363-0.461c1.431,2.918,2.128,6.162,3.493,9.125 c1.335,2.903,2.428,5.895,3.805,8.779c1.384,2.9,2.67,5.864,4.48,8.54c1.049,1.548,2.662,2.895,3.44,4.59 C90.64,129.309,89.275,129.759,88.891,128.927z M94.628,154.098c-4.142-2.041-5.935-5.689-8.631-9.194 c-3.825-4.977-8.925-9.259-14.436-12.272c-4.919-2.688-9.554-5.933-14.548-8.47c-2.44-1.236-5.04-2.127-7.469-3.367 c-1.883-0.963-3.578-2.171-5.583-2.892c-0.869-0.313-0.208-1.591,0.654-1.28c2.353,0.847,4.316,2.387,6.612,3.36 c2.562,1.089,5.147,2.134,7.571,3.516c4.831,2.763,9.72,5.556,14.458,8.463c4.553,2.792,8.725,6.102,12.287,10.094 c3.298,3.695,5.065,8.458,9.735,10.762C96.11,153.228,95.46,154.51,94.628,154.098z M107.333,147.59 c0.047,0.816-1.13,1.037-1.399,0.272c-1.127-3.236-2.643-6.336-4.764-9.032c-1.918-2.436-3.694-5.981-5.987-8.028 c-0.693-0.617,0.262-1.69,0.956-1.073c1.231,1.098,2.207,2.971,3.202,4.312c1.134,1.523,2.354,3.005,3.419,4.571 c1.851,2.724,3.305,5.375,4.422,8.482c0.076,0.099,0.135,0.218,0.144,0.376L107.333,147.59z M100.636,95.792 c0.159,3.811,1.52,7.459,2.445,11.124c0.905,3.594,1.428,7.236,2.121,10.876c0.653,3.452,0.852,6.935,1.256,10.415 c0.15,1.29,0.988,3.744-0.052,4.83c-0.641,0.669-1.716-0.286-1.074-0.956c0.681-0.712-0.479-6.144-0.596-7.251 c-0.343-3.244-0.903-6.424-1.47-9.636c-1.122-6.356-3.797-12.857-4.063-19.319C99.165,94.95,100.6,94.865,100.636,95.792z M91.255,74.234c-0.401,0.862-0.946,1.642-1.867,2.025c-2.74,1.138-3.51,2.399-4.674,4.875c-1.263,2.686-4.66,2.286-7.06,2.17 c-3.799-0.183-4.524,2.336-6.441,4.469c-0.65,0.723-1.458,0.676-2.331,0.727c-1.688,0.097-3.615-1.293-5.173-1.697 c-2.973-0.77-3.765,1.366-6.098,2.198c-5.248,1.873-10.863-3.413-11.593-8.425c-0.132-0.917,1.303-0.992,1.436-0.082 c0.526,3.626,6.26,10.084,10.392,6.631c1.084-0.905,2.38-2.145,3.942-2.057c2.259,0.129,3.923,1.263,6.082,1.755 c3.743,0.852,2.96-2.807,5.029-3.975c1.902-1.074,3.556-0.996,5.708-0.921c1.934,0.068,4.259,0.345,5.23-2.306 c0.246-0.666,0.457-1.27,0.872-1.857c0.925-1.309,1.838-1.88,3.287-2.48c3.898-1.618,0.918-5.014-0.58-6.467 c-1.529-1.487-2.776-2.588-5.266-1.619c-0.867,0.336-1.32-1.027-0.461-1.362c2.595-1.008,4.845-0.188,6.685,1.908 C89.715,69.272,92.336,71.914,91.255,74.234z M97.511,121.727c0.158,0.763,0.677,1.617,0.69,2.394 c0.011,0.791-0.303,1.614-0.894,2.097c0.213,0.126,0.431,0.244,0.654,0.36c0.052-0.075,0.13-0.142,0.23-0.198 c1.015-0.554,0.752-3.547,0.39-6.018c-0.079,0.059-0.154,0.122-0.237,0.175C97.771,120.909,97.334,120.871,97.511,121.727z M88.931,100.924c-1.584-0.954-1.174,0.912-2.518,1.299c-0.56,0.159-0.993,0.182-1.41,0.086c1.015,2.945,2.156,5.852,3.226,8.822 c1.305,3.625,2.599,7.745,4.859,11.014c-0.03-0.091-0.061-0.182-0.08-0.27c-0.261-1.15-0.507-2.3-0.733-3.456 c-0.402-2.066-0.484-4.243-0.489-6.341c-0.011-3.863,0.869-7.561,3.143-10.708c0.125-0.175,0.282-0.25,0.438-0.264 c-0.302-1.346-0.656-2.677-1.087-3.987c-0.129,0.016-0.265,0.006-0.414-0.077C94.119,97.183,91.368,102.392,88.931,100.924z M51.367,129.813c0.988-0.103,1.994-0.182,2.999-0.213c-0.006-0.003-0.012-0.007-0.017-0.009 c-4.486-2.227-9.141-3.973-13.951-4.603c-0.165,0.055-0.342,0.055-0.505,0.001c-1.096,0.375-0.499,2.952-1.027,3.987 c-0.409,0.801-3.677,2.235-3.709,3.133c0.002,0.003,0.004,0.003,0.004,0.003c0.262,1.024,2.087,1.632,3.192,2.506 c2.61-1.01,5.012-3.205,7.878-3.418C48.028,131.07,49.629,129.993,51.367,129.813z M63.515,107.402 c0.742-0.079,1.47-0.72,1.868-1.304c0.132-0.195,0.28-0.374,0.432-0.539c1.821,2.031,3.152,4.395,4.557,6.731 c1.446,2.401,3.205,4.613,4.605,7.053c1.348,2.351,2.94,4.568,4.302,6.919c0.624,1.077,1.78,2.202,2.673,3.364 c-0.196-0.087-0.392-0.172-0.588-0.263c-3.679-1.697-7.622-2.48-11.284-4.11c-3.143-5.156-4.854-12.65-10.469-15.993 C60.763,108.476,61.936,107.566,63.515,107.402z M65.412,111.111c1.907,1.301,3.511,3.438,4.884,5.281 c1.537,2.061,3.316,4.385,4.459,6.673c0.41,0.821-0.783,1.625-1.195,0.798c-0.903-1.806-2.29-3.511-3.42-5.202 c-1.399-2.094-3.259-4.823-5.381-6.272C64.003,111.877,64.647,110.588,65.412,111.111z M208.7,18.522 c0.119,1.242,0.353,2.691,0.653,3.903c0.081,0.331,0.413,0.551,0.742,0.402c0.887-0.401,2.019-1.333,3.076-1.845 c-0.881,3.02-0.934,7.589-3.467,9.396c-0.976-1.601-2.346-3.071-3.822-4.332c0.568-2.202,1.097-4.4,1.685-6.592 c0.224-0.841,0.504-1.631,0.819-2.394C208.518,17.538,208.659,18.024,208.7,18.522z M211.44,36.031 c0.06-0.009,0.144-0.022,0.228-0.037c0.257-0.004,0.503-0.004,0.756,0.006c1.022,0.145,2.096,0.654,3.1,0.677 c2.274,0.058,5.788-1.769,7.547-3.172c4.03-3.191,8.094-6.26,11.191-10.405c-0.009,0.006-0.024,0.005-0.038,0.003 c-0.384,0.015-0.763-0.013-1.149,0.016c-0.256,0.021-0.564,0.012-0.834-0.051c-0.01,0.022-0.026,0.035-0.044,0.049 c-0.199,0.205-0.567,0.14-0.742-0.072l-0.082-0.099c-0.191-0.235-0.128-0.506,0.044-0.677c0.043-0.281,0.276-0.514,0.527-0.475 c0.638-0.919,0.881-2.171,1.131-3.227c0.119-0.506,0.616-1.628,0.554-2.286c-0.035-0.026-0.062-0.058-0.089-0.091 c-0.723,0.567-1.53,0.998-2.318,1.469c-0.583,0.356-1.36,1.037-2.027,1.175c-0.467,0.096-1.166,0.891-1.656,0.446 c-0.151-0.135-0.203-0.313-0.178-0.482c0,0-0.007,0.007-0.005-0.008c-0.192-0.117-0.336-0.34-0.249-0.618 c-0.781-1.216-1.655-1.496-2.617-0.855c-0.51,0.243-1.016,0.509-1.515,0.783c-1.089,0.553-2.24,0.965-3.201,1.742 c-2.058,1.653-3.478,3.914-4.401,6.381C214.124,29.574,213.041,32.843,211.44,36.031z M176.762,13.886 c0.221,0.569-0.523,0.977-0.876,0.597c-0.522,0.115-1.023-0.362-1.381-0.697c-0.239-0.226-0.464-0.466-0.697-0.683 c-0.089-0.09-0.177-0.181-0.26-0.265c-0.095,2.128,0.818,4.385,2.237,6.278l0.08,0.097c0.009,0.01,0.009,0.01,0.015,0.018 c1.596,2.074,3.785,3.706,5.934,4.291c1.599,0.433,3.813,0.581,5.186,1.569c1.609,1.177,2.44,2.818,3.516,4.46 c0.065,0.111,0.099,0.22,0.104,0.326c0.001,0.001-0.001,0.002,0,0.004c0.1,0.121,0.199,0.243,0.285,0.373 c0.057,0.088,0.087,0.202,0.118,0.298c0,0.001,0.001,0.001,0.003,0.002c0.262,0.086,0.538,0.171,0.805,0.265 c0.123-0.232,0.308-0.423,0.528-0.603c0.837-0.686,1.337-1.264,0.852-2.443c-0.623-1.519-1.615-2.824-1.782-4.441 c-0.075-0.126-0.089-0.291-0.031-0.437l0.008-0.007c0.001-0.002,0.004-0.004,0.005-0.006c0-0.062-0.008-0.119-0.007-0.181 c0.005-0.141,0.062-0.242,0.138-0.318c-0.002-0.005-0.001-0.008-0.001-0.014c-0.134-0.792-0.666-2.652-0.732-2.965 c-0.494-1.999-1.102-4.015-2.006-5.881c-1.574-3.242-3.371-5.96-5.916-8.473c-0.028-0.003-0.065-0.013-0.087-0.025 c-0.317,0.412-0.478,0.966-0.673,1.443c-0.242,0.553-1.058,0.323-1.031-0.191c-0.067-0.014-0.124-0.035-0.187-0.077 c-1.112-0.672-2.048-1.461-2.93-2.417c-0.488-0.528-1.753-1.633-2.116-0.363c-0.192,0.648-0.361,1.321-0.428,2.005 C175.151,8.337,175.691,11.171,176.762,13.886z M207.854,1.755c0.276-0.627,0.661-1.173,1.002-1.755 c-8.402,4.558-8.37,14.467-7.089,23.004c0.116,0.109,0.232,0.22,0.347,0.331c0.909,0.546,1.888,1.206,2.849,1.964 c0.675-2.987,1.172-6.17,2.359-8.965c0.486-1.137,0.953-2.232,1.547-3.321c0.754-1.359-1.364-0.327-1.924-0.045l-0.007,0.006 l-0.098,0.08c-0.423,0.349-0.964-0.107-0.827-0.59c0.305-1.125,0.07-2.242,0.326-3.343c0.341-1.496,0.532-2.978,0.797-4.481 C207.303,3.695,207.458,2.638,207.854,1.755z M193.942,15.585c-0.328,1.528-0.57,3.476-1.579,4.727 c0.278,1.156,0.403,2.233,0.121,2.855c0.149,1.97,1.98,3.452,1.992,5.471c0.004,0.534-0.096,1.351-0.568,1.713 c-0.199,0.155-0.842,0.504-1.07,0.777l0.001,0.001c2.507,0.754,5.03,1.413,7.483,2.402c3.536,1.425,6.17,3.632,8.513,6.448 c0.132-0.055,0.296-0.038,0.448,0.095c2.515,2.196,4.744,4.506,6.609,7.041c2.942,1.683,8.056,4.295,10.667,1.207 c-2.906-0.262-4.904-0.697-7.026-3.078c-1.509-1.684-2.929-3.444-4.584-4.91c-1.425-0.753-2.761-1.662-4.12-2.583 c-0.224-0.09-0.456-0.172-0.688-0.239c-0.25-0.071-0.35-0.26-0.346-0.455c-0.072-0.038-0.136-0.081-0.199-0.124 c-0.141-0.09-0.212-0.209-0.231-0.332c0.001,0,0.001,0,0.001-0.001c-2.928-1.842-7.012-2.262-8.037-6.168 c-0.425-1.621-2.241-5.754-0.62-7.316c0.003-0.002,0.004-0.007,0.007-0.008c-0.265-1.751-0.473-3.55-0.566-5.343 c-0.234,0.082-0.482,0.013-0.574-0.281c-0.123-0.432-1.134-3.59-1.501-3.056c-0.184,0.274-0.63,0.298-0.836,0.031 c-1.017-1.337-1.377-3.105-2.264-4.532c-0.155,0.727-0.211,1.539-0.352,2.214C194.377,13.287,194.189,14.439,193.942,15.585z M175.295,23.471c0.165,0.765,1.247,3.061,2.267,2.988c0.104-0.005,0.207,0.02,0.293,0.058c3.144,0.217,6.277,1.07,9.267,2.494 c0.765,0.367,1.551,0.691,2.333,0.993c-0.009-0.062-0.019-0.122-0.005-0.188c-0.962-1.585-1.854-3.519-3.727-4.151 c-1.118-0.379-2.259-0.603-3.405-0.916c-2.031-0.558-3.74-1.505-5.292-2.961c-0.472-0.443-0.944-0.933-1.395-1.448 C175.314,21.35,175.065,22.458,175.295,23.471z M226.627,32.113c-0.953,0.753-1.908,1.485-2.886,2.207 c-1.886,1.414-4.206,2.447-6.421,3.244c-1.781,0.644-3.471-0.399-5.215-0.441c1.45,0.666,2.808,1.603,4.006,2.679 c0.448,0.194,0.908,0.374,1.376,0.509c2.471,0.729,5.033,0.902,7.551,1.389c2.472,0.481,4.78,1.359,7.217,1.896 c0.009-0.006,3.011,0.572,2.113-0.371c-0.624-0.66-1.238-1.373-2.121-1.683c-0.61-0.209-0.32-1.104,0.24-1.02 c0.042-0.033,0.088-0.043,0.142-0.06c1.299-0.332,2.823,0.425,4.067,0.742c2.261,0.587,4.197-0.049,6.117-1.121 c-0.999-1.448-2.064-2.444-3.734-3.313c-1.105-0.579-2.919-1.835-4.253-1.313c-0.631,0.245-1.063-0.711-0.431-0.956 c0.304-0.113,0.608-0.173,0.926-0.188c0.041-0.116,0.117-0.206,0.243-0.269c0.568-0.289,1.427-1.638,0.164-1.447 c-0.419,0.072-0.82,0.115-1.243,0.134c-0.641,0.036-1.253-0.226-1.85-0.405c-1.009-0.33-2.059-0.194-3.066-0.404 c-0.557-0.114-1.42-0.265-2.033-0.063c-0.035,0.057-0.072,0.112-0.136,0.166l-0.106,0.088 C227.097,32.27,226.813,32.258,226.627,32.113z M201.504,26.967c0.15,0.522,0.296,1.044,0.436,1.566 c0.481,2.037,1.133,3.704,3.075,4.83c1.562,0.902,3.424,1.426,4.96,2.377c0.165-1.257-0.186-2.632-0.823-3.937 c-0.365-0.029-0.591-0.485-0.418-0.791c-0.866-1.501-2.045-2.853-3.114-3.737c-0.014-0.017-0.028-0.018-0.043-0.035l-0.131,0.107 c-0.431,0.356-0.957-0.101-0.827-0.591c0.024-0.086,0.039-0.168,0.063-0.255c-0.983-0.799-1.943-1.535-3.025-2.224 c-0.01-0.003-0.022-0.01-0.031-0.014c-0.006-0.001-0.011-0.004-0.017-0.003c-0.028-0.025-0.059-0.045-0.09-0.066 c-0.022-0.016-0.047-0.023-0.068-0.044C201.414,24.114,201.376,26.513,201.504,26.967z"/>
        <path id="five" style="fill:#18737F;" d="M278.414,93.874c-2.339,1.01-3.936,3.076-6.161,4.265 c-2.694,1.44-5.088-2.651-2.392-4.092c2.22-1.186,3.817-3.253,6.161-4.265c1.186-0.512,2.531-0.364,3.242,0.85 C279.857,91.643,279.601,93.362,278.414,93.874z M281.633,110.536c-0.684-1.168-2.086-1.427-3.242-0.85 c-0.203,0.101-0.405,0.201-0.61,0.3c-0.023,0.011-0.252,0.106-0.357,0.151c-0.164,0.058-0.33,0.108-0.498,0.153 c-0.026,0.007-0.046,0.013-0.067,0.019c-0.03,0-0.067,0-0.116,0.002c-1.291,0.045-2.37,1.044-2.37,2.37 c0,1.258,1.078,2.415,2.37,2.37c1.47-0.051,2.744-0.625,4.04-1.271C281.939,113.202,282.253,111.595,281.633,110.536z M262.774,55.66c-1.152-0.675-2.542-0.232-3.242,0.85c-1.166,1.802-1.714,3.796-1.746,5.935c-0.046,3.058,4.694,3.054,4.739,0 c0.021-1.384,0.342-2.373,1.099-3.543C264.327,57.816,263.85,56.29,262.774,55.66z M169.617,243.039 c-1.676-2.844-2.96-5.854-4.185-8.913c-0.48-1.198-1.564-2.027-2.915-1.655c-1.14,0.314-2.136,1.714-1.655,2.915 c1.375,3.435,2.781,6.85,4.663,10.045C167.075,248.062,171.172,245.679,169.617,243.039z M179.728,234.192 c-0.64-1.278-1.274-2.589-2.266-3.639c-0.887-0.938-2.458-0.894-3.351,0c-0.933,0.932-0.887,2.413,0,3.352 c0.046,0.046,0.086,0.096,0.129,0.144c0.016,0.023,0.035,0.049,0.058,0.082c0.162,0.236,0.304,0.487,0.446,0.736 c0.32,0.56,0.604,1.142,0.892,1.718c0.577,1.155,2.183,1.47,3.242,0.85C180.045,236.751,180.306,235.347,179.728,234.192z M198.316,227.393c-1.394-1.392-2.77-2.541-4.836-2.59c-1.292-0.03-2.37,1.101-2.37,2.37c0,1.314,1.079,2.34,2.37,2.37 c0.038,0,0.076,0.004,0.114,0.005c0.012,0.003,0.021,0.005,0.035,0.008c0.01,0.003,0.016,0.005,0.025,0.008 c0.068,0.04,0.136,0.082,0.202,0.124c0.112,0.095,0.222,0.193,0.33,0.293c0.267,0.247,0.522,0.507,0.779,0.764 c0.913,0.912,2.438,0.913,3.352,0C199.228,229.832,199.228,228.306,198.316,227.393z M40.966,216.019 c-0.927-0.926-2.42-0.894-3.351,0c-1.186,1.14-2.612,2.004-3.792,3.16c-0.922,0.904-0.906,2.446,0,3.352 c0.92,0.92,2.429,0.903,3.351,0c1.18-1.156,2.605-2.02,3.792-3.16C41.897,218.475,41.865,216.918,40.966,216.019z M31.927,209.067 c-1.68,1.598-4.786,2.74-7.104,3.737c-3.162,1.361-6.39,2.582-9.479,4.107c-2.741,1.353-0.338,5.44,2.392,4.092 c3.087-1.524,6.314-2.756,9.479-4.107c2.765-1.181,5.848-2.371,8.063-4.478C37.497,210.309,34.14,206.963,31.927,209.067z M101.242,41.002c-0.82-2.598-2.151-4.994-2.972-7.593c-0.918-2.908-5.476-1.606-4.553,1.318c0.82,2.598,2.151,4.994,2.971,7.593 C97.607,45.227,102.165,43.925,101.242,41.002z M114.604,35.053c-0.358-1.699-0.514-3.422-0.737-5.142 c-0.166-1.28-1.025-2.348-2.421-2.318c-1.187,0.025-2.485,1.138-2.318,2.421c0.276,2.126,0.48,4.256,0.923,6.357 c0.266,1.263,1.765,1.958,2.936,1.618C114.293,37.609,114.87,36.317,114.604,35.053z M31.981,56.978 c-1.106-1.106-2.212-2.212-3.318-3.318c-0.913-0.913-2.438-0.913-3.351,0c-0.913,0.913-0.913,2.438,0,3.351 c1.106,1.106,2.212,2.212,3.317,3.317c0.913,0.913,2.438,0.913,3.351,0C32.894,59.416,32.894,57.891,31.981,56.978z M20.133,62.93 c-0.54-0.516-1.18-0.902-1.787-1.329c-0.035-0.031-0.074-0.06-0.108-0.093c-0.933-0.892-2.423-0.928-3.351,0 c-0.898,0.898-0.933,2.459,0,3.351c0.54,0.517,1.18,0.902,1.788,1.33c0.035,0.031,0.073,0.059,0.107,0.092 c0.933,0.892,2.423,0.928,3.351,0C21.031,65.384,21.067,63.822,20.133,62.93z M10.401,80.245c-2.913,0.001-5.812,0.031-8.687,0.559 c-3.003,0.551-1.727,5.118,1.26,4.57c2.439-0.448,4.956-0.389,7.427-0.389C13.457,84.983,13.457,80.244,10.401,80.245z M59.599,115.484c-0.283-0.02-0.325,0.545-0.325,0.545c-0.326,0.175-0.718,0.09-1.044,0.265c-1.696,0.615-3.872,0.797-5.612,1.239 c-0.031-2.678,0.787-5.292,1.387-8.037l2.079-9.324l1.072-4.532c0.235-1.263,0.057-2.329,0.163-3.374 c0.341-1.939,1.555-3.358-0.194-5.506c-1.464-1.758-4.125-3.12-6.366-2.83c-2.263,0.204-1.715,1.268-1.971,2.815l-2.731,15.878 l-1.448,9.256c-0.319,2.026-0.409,7.511-1.798,8.605c-1.021,0.721-3.088,0.968-4.284,1.364l-3.935,1.277 c-2.283,0.857-4.172,2.169-6.521,2.765c0.365-1.482,0.534-3.006,0.703-4.53c0.319-2.025-0.122-3.765,0.284-5.813 c0.619-3.398,0.956-6.817,1.771-10.172c0.429-1.961,0.748-3.986,1.09-5.925c0.343-1.569,0.119-3.178,0.354-4.442 c0.344-1.199,1.145-2.421,1.315-3.575c0.188-2.177-2.188-3.149-4.082-3.316c-1.437-0.191-3.243-0.01-3.804,1.428 c0.152-0.131,0.113,1.175,0.069,1.001c-0.107,0.675-0.3,1.372-0.515,1.983c-1.931,8.082-2.904,16.292-4.05,24.546 c-0.296,2.483-0.679,4.987-0.953,7.557c-0.17,1.155-0.318,2.395-0.575,3.572c-0.343,1.569-0.975,1.266-2.431,2.099 c-0.652,0.35-1.978,0.965-2.127,1.835c-0.341,1.939,2.577,2.494,3.884,2.533c-0.323,7.12-1.126,14.175-1.253,21.337 c-0.016,1.763-0.378,3.985,0.433,5.724c0.747,1.848,4.412,4.251,6.476,3.264c1.978-0.964,1.049-4.988,1.13-6.86 c0.032-3.157,0.239-6.357,0.445-9.558c0.121-2.809,0.59-5.705,0.427-8.534l-0.009-2.59c0.126-1.328,0.009-3.614,0.549-4.77 c0.734-1.482,3.974-2.583,5.67-3.198c1.761-0.724,3.522-1.449,5.304-2.086c1.718-0.528,2.846-1.555,4.346-2.214 c-0.939,5.424-1.093,11.019-1.945,16.42c-0.596,3.855-1.105,7.688-1.396,11.651c-0.206,3.201-0.63,6.641-0.466,9.84 c0.116,1.916,1.318,3.37,3.236,3.994c4.424,1.379,4.585-2.366,4.878-5.589c0.501-6.053,1.372-12.108,2.07-18.118 c0.273-2.939,0.177-5.508,0.732-8.427l1.105-7.687c0.298-1.743,0.57-5.052,1.85-6.21c0.847-0.678,1.324-0.984,1.976-1.335 c1.217-0.679,2.74-0.88,4.043-1.582c0.5-0.22,2.087-0.9,2.127-1.836C60.709,115.48,60.165,115.525,59.599,115.484z M28.814,107.646 l-0.064,0.479C28.706,107.951,28.771,107.842,28.814,107.646z M172.5,64.153l-1.072,4.531 C171.79,66.463,172.088,64.35,172.5,64.153z M171.321,69.359c-0.084,0.762-0.256,1.546-0.384,2.134L171.321,69.359z M194.718,68.515c0.078-0.219,0.167-0.442,0.277-0.67C194.886,68.1,194.814,68.355,194.718,68.515z M195.128,67.578 c-0.055,0.092-0.09,0.179-0.133,0.267C195.034,67.755,195.077,67.665,195.128,67.578z M190.283,76.215 c0.022,0.087-0.043,0.196-0.043,0.196C190.218,76.324,190.305,76.302,190.283,76.215z M268.921,73.763 c-0.967-2.718-2.979,0.663-3.651,1.667c-1.17,1.593-2.47,3.034-3.64,4.627c-3.446,4.3-6.587,8.708-9.727,13.116 c0.461-5.117,1.704-10.433,3.233-15.358c0.301-1.002,0.537-1.896,0.099-2.895c-1.031-2.239-4.406-2.401-6.406-1.523 c-1.738,0.812-1.691,1.726-1.73,3.031c-0.144,2.352-2.182,4.905-3.241,6.934c-0.432,0.85-3.263,6.847-3.35,6.869 c0.261-0.066,0.391-0.285,0.542-0.416c-1.406,2.487-3.834,5.325-5.719,7.748c-0.759,1.026-2.836,4.516-4.448,4.369 c-4.506-0.245-0.132-19.133-0.415-19.154c-0.283-0.021-1.324,7.557-1.535,9.278c0.31-4.615,1.078-9.255,1.977-13.742 c0,0.37-0.083,1.132,0.091,1.088c0.283,0.021,0.86-3.181,0.576-3.201c-0.087,0.022-0.152,0.131-0.239,0.153 c0.172-0.414,0.564-0.698,0.605-1.265c-0.026-1.197-1.64-2.084-2.685-2.189c-2.308-0.34-4.435,1.496-4.885,3.74 c-0.173,0.414-0.279,1.089-0.408,1.307c-0.13,0.589-0.52,0.872-0.736,1.483c-0.538,1.896-0.574,3.942-0.828,5.859 c-0.013,0.176-0.06,0.738-0.122,1.497c-0.713,1.316-1.306,2.695-1.906,4.017c-2.032,4.034-4.042,8.155-6.401,11.995 c-0.606,0.895-2.011,3.751-3.341,3.255c-0.806-0.259-0.903-3.197-0.971-3.828c-0.024-0.827,0.503-5.313-0.151-5.703 c-0.305-0.107-0.408,1.308-0.474,1.417c0.156-5.225,1.527-11.498,2.575-16.858c0.643-2.94,1.479-6.579-1.38-8.724 c-5.02-3.727-8.282,3.49-10.185,6.936c-0.822,1.505-8.384,17.683-8.188,17.726c0,0,0.54-1.156,1.34-2.748 c-1.101,2.595-2.115,5.167-3.02,7.803c0.052-3.809,0.214-7.554,0.461-11.321c0.167-1.895,0.226-3.854,0.371-5.835 c0.211-2.091,0.534-3.006,1.66-4.773c1.949-2.902,3.766-5.956,5.366-9.139c0.605-1.265,0.905-2.637,1.532-3.815 c0.584-0.982,1.538-1.965,2.166-3.142c3.113-6.346,5.024-13.775,6.437-20.615c0.575-3.202,1.044-6.469,1.141-9.734 c-0.002-0.74-0.119-9.229-0.555-9.119c-0.087,0.022-0.064,0.109-0.107,0.305c-0.266-1.414-0.75-2.958-1.625-4.217 c0.086-0.022,0.852,1.172,0.852,1.172c0.434-0.48-1.816-2.78-2.253-3.039c-0.981-0.584-2.222-0.732-3.353-0.445 c-2.307,0.4-4.085,2.147-5.494,3.894c-2.666,3.361-4.065,7.698-5.641,11.709c-0.905,2.267-1.725,4.512-2.435,6.822 c-0.539,1.526-1.857,4.36-1.459,5.926c0.109,0.065,0.195,0.043,0.195,0.043l-0.536,2.266c0,0,0.125-1.698,0.19-1.807 c-0.368,0.371-0.34,2.308-0.318,2.395c-1.497,6.521-3.176,12.876-3.952,19.468c-0.496-0.293-1.293,0.567-1.853,0.709 c-3.436,1.057-6.915,1.94-10.264,2.975c-0.023-0.087,0.063-0.479,0.191-1.067c-0.193,0.697-0.365,1.111-0.626,1.177 c1.263-5.969,2.701-11.982,4.77-17.692c-0.043,0.196-0.796,2.702-0.708,2.68c0.283,0.02,2.376-5.233,2.309-5.864 c-0.088-0.348-0.651,0.72-0.672,0.634c0.389-0.655,1.149-1.31,1.233-2.072c0.167-1.894-1.859-2.214-3.229-2.143 c-2.829,0.162-5.786,1.283-6.952,3.986c-1.146,2.42-1.767,5.078-2.215,7.692c-0.257,1.176-0.887,1.614-1.34,2.748 c-0.668,1.743-0.923,3.66-1.287,5.511c-0.321,1.655-0.619,3.398-0.831,5.118c-0.149,0.871,0.005,1.48-0.712,1.94 c-0.695,0.546-2.239,0.661-3.087,0.969c-3.283,1.296-6.632,1.961-9.937,3.169c-0.217,0.067-0.434,0.132-0.651,0.197 c0.985-2.493,1.495-5.374,2.04-7.865c1.2-5.119,2.744-12.178,0.875-17.352l-0.11-0.435l-0.108-0.065 c-1.384-3.26-5.531-6.467-9.05-4.278c-1.846,1.117-2.795,3.579-3.638,5.367l-1.317,3.205c-0.303,0.632-0.58,2.091-0.839,2.898 l0.065-0.109l-1.57,5.491l0.321-1.655c-0.457,0.023-1.422,4.25-1.573,4.751c-0.538,1.896-0.988,3.769-1.352,5.621 c-0.857,3.921-1.692,7.929-1.874,11.957c-0.269,4.05-0.734,8.057-1.09,12.128c-0.188,2.178-0.354,4.442-0.455,6.597 c-0.079,1.375-0.408,3.469-0.237,5.125c-0.537,1.564-1.036,3.146-1.534,4.677c-1.444,4.163-2.888,8.325-4.724,12.402 c-6.157,13.322-4.882-7.928-5.534-7.577c-0.326,0.175-0.256,1.547-0.277,1.83c-0.099-3.308,0.257-7.38,1.137-10.844 c0.471-2.157,1.205-4.01-1.065-5.656c-4.212-3.098-7.048,1.418-8.451,4.644c-1.709-3.085-4.685-7.515-8.947-6.434 c-1.914,0.486-2.802,1.729-3.82,3.191c-0.651,0.721-1.237,0.962-1.779,1.748c-0.932,1.07-1.406,2.486-1.924,3.729 c-0.726,1.996-1.268,4.132-1.648,6.309c-0.312,0.689-0.546,1.426-0.717,1.884c-0.971,2.376-1.878,4.643-2.98,6.867 c-0.908,1.897-1.902,3.816-2.527,5.734c0.044,0.174-0.02,0.654-0.02,0.654c-0.215,0.61-0.627,1.177-0.93,1.81 c-0.585,0.981-1.147,2.05-1.818,3.053c-0.996,1.55-6.56,10.276-8.642,6.082c-1.074-2.042-1.062-4.916-1.157-7.114 c-0.026-1.198-0.03-2.307-0.143-3.482c-0.047-0.914-0.528-1.718-0.314-2.698c0.129-0.588,0.237-0.523,0.802-0.852l1.347-0.896 c0.869-0.591,1.737-1.182,2.474-1.925c1.106-1.114,2.081-2.38,2.97-3.624c2.122-2.945,4.309-6.371,4.579-10.051 c0.123-2.068-0.319-4.178-1.956-5.522c-1.506-1.192-3.619-1.489-5.447-1.396c-4.918,0.322-7.801,3.924-9.593,8.175 c-2.269,4.927-3.337,10.569-3.166,15.989c0.031,2.677,0.323,5.289,0.551,8.009c0.227,2.72,0.585,5.222,2.594,7.305 c-0.308-0.848-0.68-1.587-0.879-2.37c-0.11-0.434-0.047-0.914-0.135-1.263c-0.044-0.174-0.35-0.651-0.417-0.912 c-0.199-0.783-0.179-1.436-0.204-2.264c-0.112-0.805-0.397-1.566-0.509-2.371c-0.134-0.892,0.038-1.676,0.187-2.547 c0.084-0.762,0.017-1.393,0.101-2.155c0.107-0.676,0.104-1.416,0.188-2.178c-0.023-0.457,0.279-1.089,0.408-1.677 c-0.062,0.849-0.408,1.677-0.405,2.418c0.004,1.109,0.465,2.196,0.643,3.263c0.113,1.175,0.052,2.394,0.187,3.656 c0.113,1.175-0.144,2.351-0.031,3.526c0.091,1.089-0.058,1.959,0.293,2.981c0.155,0.609,0.396,1.195,0.616,1.696 c0.263,0.674,0.809,0.999,1.376,1.41c1.92,1.365,4.274,2.249,6.691,2.285c1.676,0.037,3.046-0.403,4.326-1.561 c1.801-1.661,3.186-3.864,4.333-5.914c1.06-2.028,1.727-4.141,2.59-6.213c0.821-1.875,1.924-3.729,2.745-5.604l1.369-3.161 c0.012,0.349,0.017,0.702,0.038,1.045c0.183,2.546,0.694,5.287,2.007,7.546c0.788,1.282,3.149,4.016,5.083,3.248 c0.087-0.023-0.109-0.065-0.414-0.173c1.306,0.039,2.654-0.488,3.521-1.449c0.131,0.152-0.802,0.852-0.802,0.852 c1.332,1.236,6.28-9.186,6.604-10.102c0.733-1.853,1.097-3.704,1.722-5.622c0.474-1.417,1.295-3.291,1.833-4.817 c0.068,0.631,0.266,1.414,0.266,1.414c-0.308,5.356-0.418,11.124,2.972,15.727c1.619,2.367,4.586,4.208,7.411,2.934 c2.499-1.097,4.034-4.172,5.092-6.57c1.34-2.747,2.353-5.689,3.344-8.718c0.391-1.327,0.76-2.649,1.091-3.994 c0.034,3.832,0.126,7.674,0.806,11.476c0.909,4.677,2.454,10.767,6.968,13.232c5.038,2.703,9.095-1.011,11.671-5.091 c3.009-4.93,5.232-10.401,7.216-15.719c1.23-3.329,2.149-6.706,3.097-10.046c0.131,2.603,0.136,5.175,0.203,7.727 c0.005,1.48-0.011,2.873,0.167,4.31c0.003,0.74,0.027,1.567,0.204,2.263c0.044,0.174,0.331,1.305,0.417,0.913l0.268,1.784 l-0.332-1.305c-0.367,0.741,0.861,3.393,1.081,3.892c0.789,1.651,2.057,2.997,3.887,3.643c1.656,0.69,4.075,1.096,5.529-0.106 c1.91-1.596,3.118-4.495,4.068-6.588c2.141-4.339,3.976-8.786,5.81-13.233c1.56-3.92,3.206-7.785,4.438-11.772 c0.239,1.684,0.582,3.34,1.131,4.896c0.264,1.044,0.66,2.24,1.664,2.911c1.266,0.975,3.377,0.903,4.199-0.602 c0.238-0.523,0.171-0.784,0.235-1.263l0.86-3.181c1.271-3.749,3.043-7.346,4.205-11.16c0.13-0.589,0.236-1.263,0.472-1.787 c0.304-0.632,0.544-0.416,0.955-0.983c1.169-1.593,1.837-3.707,2.68-5.495c1.728-3.772,3.346-7.979,5.902-11.405l-0.978,6.73 l0.195-0.327l-0.555,3.289c-0.109-0.065,0.041-0.936,0.018-1.023c-0.348,0.088-1.14,3.901-1.225,4.293 c-0.515,2.353-1.116,4.728-1.172,7.057c0.008,2.22-0.072,4.463-0.151,6.705c0.07,1.371,0.14,2.743,0.558,4.025 c0.088,0.348,1.578,3.303,1.774,2.976l-0.088-0.348c0.306,0.478,0.591,0.869,0.962,1.237l-0.72-0.651 c-0.107,0.675,2.75,2.08,3.077,2.275c1.635,0.974,3.161,1.513,5.184,1.092c1.675-0.332,2.391-1.162,3.322-2.602 c2.489-4.057,3.712-9.09,5.263-13.558c0.328-0.872,0.646-1.764,0.965-2.655c0.022,0.153,0.05,0.259,0.093,0.257l0.13-0.218 c-0.019,0.653,0.071,1.371,0.138,2.002c-0.196-0.043-0.067-0.63-0.241-0.587c-0.892,0.134,0.173,5.79,0.414,6.376 c0.616,1.696,2.298,3.584,4.172,4.034c0.894,0.236,1.981,0.146,2.894-0.271c0.348-0.088,1.824-1.204,1.216-1.049l0.478-0.306 l-0.13,0.218c0.109,0.065,2.888-2.121,3.366-2.428c2.258-1.685,3.925-4.237,5.267-6.615l4.285-7.198 c0.974-1.636,1.597-3.924,2.724-5.321c-0.165,2.635-0.33,5.269-0.407,7.882c-0.229,3.114,0.154,6.813-0.575,9.776 c-0.601,2.375-2.986,5.017-4.22,7.089c-1.797,2.771-3.594,5.542-5.195,8.355c-2.229,3.991-3.998,8.329-5.791,12.58 c-1.834,4.447-4.315,10.724,0.312,14.365c3.166,2.623,8.023,3.52,11.672,1.483c3.347-1.775,3.987-5.086,5.022-8.311 c3.228-10.634,3.557-22.106,4.194-33.101c0.146-1.611-0.168-4.309,0.393-5.748c0.562-1.439,2.036-2.924,2.838-4.146 c2.014-3.011,4.136-5.957,6.281-8.816l6.045-7.923C268.147,76.552,269.514,75.372,268.921,73.763z M70.036,124.503 c0.043-0.196,0.02-0.283,0.02-0.283c0.599-3.115,0.805-6.315,1.948-9.475l1.036-2.485c0.238-0.523,0.648-1.461,1.213-1.79 c1.239-0.592,2.161,1.582,2.294,2.474l0.116,1.915c0.045,0.544,0.308,0.848,0.331,1.305c-0.042,0.566-0.41,0.937-0.561,1.439 l-0.993,2.289c-1.405,2.856-3.42,5.498-5.829,7.683C69.803,126.506,69.821,125.483,70.036,124.503z M104.702,115.892 c-0.28,0.72-0.561,1.439-0.754,2.136l-1.445,3.792c-0.927,2.55-1.963,5.035-3.109,7.455c-0.28,0.72-1.684,3.946-2.62,3.906 c-1.415-0.104-1.171-4.981-1.174-5.721c-0.048-1.284,1.163-15.851,2.315-16.421c-1.588,0.311-2.639,17.336-2.569,18.708 c-0.385-4.439,0.121-9.012,0.868-13.368c0.449-2.244,1.277-8.102,4.148-8.83c1.566-0.397,2.731,2.733,3.257,3.711 c-0.131-0.152-1.554-2.476-1.619-2.367c-0.347,0.458,2.607,4.802,2.784,5.497C104.961,115.086,104.961,115.086,104.702,115.892z M105.111,114.585l-0.221-0.87C105.24,113.997,105.306,114.257,105.111,114.585z M107.785,119.647c0,0-0.048-1.284-0.027-1.567 l0.281-0.719L107.785,119.647z M141.641,82.086c-0.21,0.118-0.419,0.24-0.609,0.358c0.119-0.336,0.229-0.659,0.315-0.943 c0.753-2.506,1.333-4.968,1.998-7.452c1.03-4.335,2.19-8.889,2.609-13.44C145.411,67.794,143.708,75.002,141.641,82.086z M138.876,72.128c0.68-4.617,1.339-9.321,2.782-13.854c0.366-1.112,2.957-7.325,3.952-2.67l0.022,0.087 c1.062,4.916-0.768,10.844-1.796,15.549l-1.932,7.712c-0.326,1.136-0.817,2.44-1.257,3.756c-0.119,0.092-0.212,0.175-0.232,0.232 c-0.042,0.163-0.018,0.282,0.034,0.383c-0.399,1.255-0.725,2.501-0.78,3.603c0.104-0.941,0.547-2.214,0.977-3.404 c0.139,0.077,0.324,0.117,0.53,0.134c-1.454,4.853-3.051,9.642-4.537,14.317C137.218,89.679,137.622,80.687,138.876,72.128z M159.413,87.751l-0.272,3.31c-0.105,1.045-0.772,3.159-0.508,4.203c0.045,0.174,0.196-0.327,0.259-0.806 c-0.104,1.415-0.295,2.853-0.312,4.246c-0.022-0.087-0.026-1.197-0.113-1.175c-0.194,0.049-0.38,1.222-0.531,2.548 c-0.092,0.123-0.187,0.266-0.284,0.436c-0.888,1.614-1.118,3.988-1.678,5.797c-0.838,2.898-1.699,5.709-2.647,8.542 c-1.766,5.448-3.51,10.984-5.995,16.151c-1.015,2.202-3.021,7.433-6.068,7.836c-2.263,0.204-3.212-3.537-3.631-5.19 c-0.354-1.392-0.619-2.805-0.777-4.154c-0.111-0.805-0.078-3.591-0.69-4.177l-0.034,2.787c-0.178-1.066-0.291-2.241-0.295-3.352 c-0.131-0.151,0.034-2.786,0.009-3.613c-0.007-1.851-0.013-3.701,0.068-5.573c-0.006-1.85,0.009-3.613,0.112-5.399 c0.037-1.677,0.448-2.614,1.096-4.074c2.679-5.865,4.899-12.077,6.858-18.222c0.521-1.697,0.846-3.193,1.4-4.671 c2.791-0.438,5.786-1.11,8.153-2.197c2.151-1.009,4.545-1.431,6.936-2.223C159.915,81.698,159.665,84.724,159.413,87.751z M167.279,89.922c-0.189,1.807-0.488,3.55-0.787,5.292c0.276-1.829,0.445-3.724,0.786-5.662 C167.235,89.748,167.257,89.835,167.279,89.922z M165.573,131.004l0.306,0.108C165.791,131.134,165.682,131.069,165.573,131.004z M181.942,99.906c-2.138,4.709-4.081,9.461-6.22,14.171l-3.479,7.457c-0.562,1.069-1.102,2.224-1.751,3.315 c-0.237,0.523-1.971,2.815-1.752,3.315c0.044,0.174,0.802-0.852,1.084-1.201c-0.302,0.632-0.715,1.2-1.039,1.745 c0.065-0.109-1.497,1.398-1.802,1.29c-1.829-0.276-1.631-5.698-1.679-6.981c-0.221-7.444,0.318-15.174,0.944-22.555 c0.444-4.094,0.931-8.014,1.57-12.065c0.319-2.025,0.617-4.138,1.023-6.186l0.379-3.615l-0.471,2.157 c0.211-1.72,0.486-4.29,0.985-4.509l-0.129,0.588c0.108-0.305,0.238-0.523,0.39-0.655c0.802-0.851,3.392-0.861,4.523-1.147 c0.783-0.199,1.762-0.355,2.479-0.814c0.477-0.306,0.237-0.523,0.802-0.852c0.999-0.439,2.482-0.074,3.524-0.709 c0.422-0.227,0.886-0.61,1.252-1.062c-0.01,0.128-0.027,0.255-0.037,0.383c-0.689,8.601-0.615,17.286-0.018,25.838 c0.008,0.122,0.016,0.248,0.023,0.371C182.308,98.898,182.106,99.545,181.942,99.906z M201.281,27.961l0.065-0.109l-0.087,0.022 c0,0,0.087-0.022,0.065-0.109l0.022,0.087c0.043-0.196,0.085-0.392,0.02-0.283c0.431-1.22,1.376-4.793,2.86-4.059 c1.482,0.735,1.279,4.676,1.262,6.069c-0.011,2.873-0.393,5.748-0.797,8.536c-0.852,5.401-2.292,10.674-4.015,15.926 c-0.841,2.528-1.767,5.078-2.717,7.541c-0.518,1.242-1.036,2.485-1.642,3.75l-0.497,0.96l1.169-1.964l2.243-5.754 c1.252-3.096,2.35-6.43,3.361-9.742c-2.45,8.955-5.967,17.718-10.553,25.919l0.867-7.535c0.128-0.589,0.653-6.185,0.653-6.185 c-0.153,0.131-0.302,0.632-0.453,1.134c0.874-5.315,2.312-10.957,3.534-16.36c1.372-5.904,2.7-11.981,4.574-17.735 C201.215,28.07,201.302,28.048,201.281,27.961z M242.969,128.405l0.022,0.086l-0.172,0.784l0.022,0.087 c-0.087,0.022-0.065,0.109-0.065,0.109c0.022,0.087-0.021,0.283-0.021,0.283c-0.362,2.222-0.898,4.488-1.543,6.688 c-0.56,1.809-1.225,4.663-2.897,5.735c-3.171,2.101-4.888-3.575-4.852-5.621c0.113-5.029,2.556-10,4.564-14.491 c2.051-4.687,4.365-9.07,7.158-13.391C244.621,115.207,244.078,121.826,242.969,128.405z M247.566,123.164 c-0.043,0.196-0.086,0.392-0.216,0.61L247.566,123.164z M125.077,175.377l0.06-0.111 C125.163,175.351,125.077,175.377,125.077,175.377z M158.754,165.196l-0.06,0.112C158.694,165.308,158.779,165.282,158.754,165.196 z M188.822,167.057c-0.266,0.361-0.421,0.782-0.507,0.809C188.487,167.813,188.642,167.392,188.822,167.057z M223.751,165.12 c-1.239,2.433-2.34,5.011-3.442,7.59c-2.237,5.354-3.494,11.165-5.681,16.692c-1.72,4.263-4.398,11.904-10.345,8.627 c-4.778-2.504-5.893-9.666-6.828-14.351c-1.806,3.352-3.811,6.669-6.09,9.694c-1.299,1.608-2.804,3.464-4.996,3.651 c-7.118,0.634-8.979-9.021-8.366-14.17c0.234-2.198,0.074-4.378,0.254-6.65c-1.974,1.08-4.12,1.916-4.516,2.118 c-0.172,0.051-1.187,0.73-1.127,0.619c-0.756,0.601-0.61,0.463-0.981,1.417c-0.378,1.238-0.645,2.536-0.937,3.748 c-0.241,0.446-1.972,5.93-2.651,5.853c0,0,0.43-1.066,0.319-1.126l-1.618,3.67c0.18-0.335,0.326-0.473,0.352-0.386 c-0.078,1.616-2.399,4.185-3.406,5.518c-1.067,1.444-2.503,2.904-4.232,3.703c-1.668,0.688-3.663,0.91-5.528,0.626 c-5.819-0.974-10.888-6.951-9.708-13.02c0.176-0.879,0.311-1.776,0.44-2.683c-1.981,1.087-4.143,1.929-4.54,2.131 c-0.171,0.051-1.187,0.731-1.126,0.619c-0.757,0.601-0.61,0.463-0.981,1.418c-0.379,1.238-0.646,2.536-0.938,3.748 c-0.241,0.446-1.971,5.931-2.65,5.853c0,0,0.43-1.066,0.318-1.126l-1.618,3.67c0.181-0.335,0.327-0.473,0.353-0.386 c-0.078,1.616-2.4,4.185-3.407,5.517c-1.067,1.444-2.503,2.905-4.231,3.703c-1.668,0.688-3.663,0.91-5.528,0.626 c-4.141-0.693-7.888-3.922-9.289-7.912c-1.619,3.84-4.688,7.552-7.999,9.624c-0.464,0.326-2.381,0.807-2.683,1.365 c-0.387,0.584,0.377,3.448,0.497,4.161c0.103,1.281,0.205,2.562,0.222,3.869c0.066,5.226,0.623,11.15-0.866,16.187 c-1.3,4.418-4.766,8.173-9.734,6.288c-4.323-1.61-6.074-7.456-7.001-11.488c-2.369-9.784-1.212-19.687-1.337-29.487 c-0.142-9.233,1.417-18.414,3.175-27.559c0.922-5.055,2.076-10.272,3.677-15.249c1.188-3.541,2.841-10.22,6.667-11.834 c7.566-3.203,8.602,9.322,8.153,13.766c-0.941,8.432-3.334,17.019-6.389,24.962c-1.85,4.77-3.898,9.506-6.032,14.267 c-0.697,1.427-1.368,2.94-2.151,4.392c-0.576,1.203-0.646,1.599-0.775,3.043c-0.044,1.419-0.113,2.751-0.096,4.058 c-0.217,5.218-0.263,10.384,0.002,15.645c0.231,3.585,0.289,8.159,2.093,11.366l-0.421-0.156l0.112,0.061 c5.095,5.125,6.932-8.448,7.191-11.336c0.466-4.075,0.562-8.132,0.177-12.233c-0.085-0.912-0.042-2.329-0.471-3.139 c-0.481-0.98-1.65-1.754-2.131-2.734c-0.996-1.763-1.666-3.998-1.828-6.104c-0.076-2.132,1.068-4.255,3.25-2.285 c0.825,0.876,1.357,2.029,1.864,3.095c0.343,0.834,0.54,2.743,1.116,3.413c0.877,1.049,2.734-0.257,3.611-1.082 c3.637-2.87,5.797-7.546,7.656-11.662c0.075-0.177,0.278-0.81,0.556-1.59c0.311-2.199,0.633-4.455,1.458-6.696 c0.766-1.822,1.618-3.67,2.942-5.191c0.533-0.722,1.178-1.383,1.935-1.985c0.499-0.525,1.763-0.997,2.09-1.469 c0.413-0.499,0.259-2.889,0.397-3.679c0.138-0.791,0.362-1.607,0.611-2.338c0.688-2.08,1.635-4.237,3.132-5.811 c2.434-2.509,5.846-1.751,8.639-0.245c0,0,1.745,0.508,1.814,1.049l-0.447-0.241l0.55,0.585l0.112,0.06 c-0.464-0.61,0.954,0.37,0.954,0.37c0.636,0.559,1.126,1.256,1.529,1.978c0.618,1.126,0.918,2.442,1.107,3.697 c0.609,3.285,0.642,6.835,0.623,10.213c2.276-1.116,4.505-2.378,6.684-3.564c0.226-1.164,0.514-2.333,0.943-3.499 c0.766-1.822,1.618-3.67,2.943-5.191c0.533-0.723,1.178-1.384,1.935-1.985c0.499-0.524,1.763-0.997,2.09-1.469 c0.412-0.499,0.259-2.889,0.397-3.679c0.138-0.791,0.362-1.607,0.612-2.338c0.688-2.08,1.635-4.238,3.131-5.81 c2.434-2.509,5.846-1.751,8.639-0.246c0,0,1.745,0.508,1.814,1.049l-0.446-0.241l0.549,0.585l0.112,0.06 c-0.465-0.61,0.954,0.37,0.954,0.37c0.636,0.559,1.125,1.256,1.53,1.978c0.618,1.126,0.918,2.442,1.108,3.697 c0.609,3.285,0.641,6.835,0.623,10.214c2.294-1.126,4.542-2.4,6.739-3.594c0.844-3.293,2.267-6.868,4.862-8.969 c3.552-2.844,8.614,0.605,11.733,2.575c-0.203-8.184,0.471-16.256,1.601-24.37c0.095-0.31-0.05-2.983,0.483-3.705 c-0.267,0.361-0.285,1.865-0.251,2.605c0.06-1.049,0.293-2.149,0.526-3.249l-0.086,0.026c0.154-0.421,0.449-3.507,0.604-3.928 c0.387-1.521,0.886-2.982,1.411-4.357c1.066-2.381,2.504-4.779,4.567-6.334c2.82-2.156,7.756-2.885,10.101,0.254 c3.162,4.299,1.68,10.926,0.544,15.577c-0.74,2.845-1.541,5.802-2.479,8.613l-1.36,3.592l-0.516,1.092 c0.034-0.198,0.069-0.396-0.043-0.456l-0.405,1.151l-0.155,0.422l-2.203,6.094l-0.035,0.198c-0.06,0.112-0.12,0.224-0.095,0.31 c0,0,0.06-0.112,0.095-0.31c0,0,0.061-0.112,0.035-0.198c0.275-0.645,0.706-1.711,0.903-1.676c0,0-3.606,9.231-3.915,10.073 c-1.351,3.309-0.27,7.857,0.218,11.365c0.222,1.994,1.533,14.813,4.542,13.911c0.774-0.232,1.368-2.003,1.642-2.648 c0.878-1.761,1.557-3.558,2.212-5.44c1.395-3.79,2.617-7.53,3.925-11.294c1.334-3.679,2.754-7.383,4.424-10.882 c0.387-0.583,2.84-6.471,4.205-3.789l0.027,0.086C226.951,160.789,224.714,163.333,223.751,165.12z M89.143,199.913 c3.588-7.727,6.618-15.754,8.658-23.955c0.611-2.338,3.946-21.232,0.396-21.198c-1.22-0.009-1.737,2.019-2.107,2.973 c-1.42,3.705-2.109,7.659-2.91,11.553c-1.576,7.874-2.534,15.937-3.406,23.975l-0.036,0.535c0.022-0.234,0.055-0.471,0.036-0.535 c0.06-0.112,0.077,0.258-0.104,1.53l-0.026-0.086c0.026,0.086-0.034,0.197-0.009,0.284L89.143,199.913z M132.12,191.069 c-3.938,0.617-9.069,0.374-11.303-3.641c-0.396,0.868-0.982,3.292-1.499,6.257l0.284-0.928c0.086,0.911-3.635,18.515,3.192,15.346 l0.086-0.026C128.564,205.157,131.12,196.802,132.12,191.069z M132.684,179.189c-0.214-2.278-0.272-6.852-2.232-8.701 c-2.518-2.15-4.54,2.672-5.315,4.778c-0.086,0.025-0.06,0.111-0.06,0.111l-0.034,0.198l-0.026-0.086 c-0.035,0.198-0.095,0.31-0.009,0.285c-0.25,0.73-0.611,1.4-0.844,2.5c0.06-0.112,0.543-1.942,0.706-1.71 c0.413,0.439-0.397,3.679-0.5,4.272c-0.104,1.53-0.122,3.034,0.144,4.547c0.266,1.513,0.583,3.198,2.096,3.87 c0.868,0.395,2.037,0.232,3.009,0.036c0.542-0.069,1.711-0.231,2.175-0.558c0.808-0.429,0.628-0.094,0.8-1.083 C133.24,185.112,132.803,181.776,132.684,179.189z M165.736,180.999c-3.937,0.617-9.069,0.375-11.303-3.641 c-0.396,0.868-0.982,3.292-1.498,6.258l0.284-0.928c0.085,0.911-3.636,18.515,3.191,15.346l0.086-0.026 C162.18,195.088,164.736,186.733,165.736,180.999z M166.3,169.119c-0.214-2.278-0.272-6.852-2.231-8.701 c-2.518-2.15-4.54,2.672-5.315,4.778c-0.086,0.025-0.06,0.112-0.06,0.112l-0.035,0.198l-0.026-0.086 c-0.035,0.198-0.095,0.31-0.009,0.284c-0.25,0.73-0.611,1.4-0.844,2.501c0.06-0.112,0.542-1.942,0.705-1.71 c0.413,0.439-0.397,3.679-0.5,4.272c-0.104,1.53-0.122,3.034,0.143,4.548c0.267,1.513,0.583,3.197,2.096,3.869 c0.869,0.395,2.038,0.233,3.009,0.036c0.542-0.069,1.711-0.232,2.175-0.558c0.809-0.429,0.628-0.094,0.8-1.083 C166.856,175.042,166.419,171.706,166.3,169.119z M191.179,166.164l0.619,0.19C191.574,166.233,191.376,166.198,191.179,166.164z M190.919,189.383c-0.834,1.281-1.918,2.354-2.717,2.5c-2.889,0.678-2.5-5.529-2.241-9.354c-0.199,3.713-0.356,9.757,2.128,9.294 c2.029-0.42,4.068-4.873,4.997-6.463c0.989-1.701,1.979-3.403,2.856-5.165c1.024-1.899,0.482-3.705,0.208-5.872 c0,0-0.052-0.172-0.043-0.456l-0.103-0.344c-0.119-1.65,0.044-3.292-1.227-4.41c-1.109-0.886-2.235-2.141-3.584-2.58 c-0.533-0.215-1.263-0.465-1.814-0.112c-0.085,0.026-0.171,0.052-0.232,0.163l0.352-0.386c-1.753,0.713-2.254,4.048-2.659,6.137 c-0.81,4.177-1.31,8.449-1.243,12.739c0.068,1.478-0.183,6.894,2.051,7.161C188.838,192.442,190.171,190.638,190.919,189.383z M196.769,179.199c-1.36,2.656-2.83,5.251-4.413,7.786l-1.015,1.616l0.086-0.026c0.98-1.417,1.936-2.922,2.718-4.374 C194.833,183.058,196.932,180.368,196.769,179.199z M204.049,163.152l2.685-6.988l-1.076,2.665l-1.299,2.544 c2.212-5.44,4.148-11.173,5.715-16.89c1.343-4.899,3.642-12.24,1.752-17.295c-0.231-0.774-0.739-1.84-1.641-2.038 c-2.312-0.526-3.363,4.099-3.75,5.62c-1.602,5.914-2.102,12.06-2.432,18.155l0.025,0.086c0,0-0.06,0.111-0.068,0.395l0.025,0.086 c-0.06,0.112-0.009,0.284,0.017,0.37c-0.06,0.112-0.034,0.198-0.009,0.284l-0.086,0.963c-0.025-0.086,0.009-0.284-0.043-0.455 c0.017,0.37-0.017,0.567,0.043,0.455c-0.182,4.083-0.278,8.141-0.289,12.173c0.034-0.198,0.155-0.421,0.276-0.644 c-0.25,0.731-0.525,1.375-0.457,1.917l0.241-0.447L204.049,163.152z"/>
    </g>
</svg>
